<svg width="1512" height="1486" viewBox="0 0 1512 1486" fill="none" xmlns="http://www.w3.org/2000/svg">
<g opacity="0.4">
<path d="M1600.64 -275C1562.52 -262.522 1487.35 -208.175 1491.58 -90.6076C1496.86 56.3517 1612.17 148.317 1641 286.958C1662.27 389.285 1659.25 645.576 1529.53 753.253" stroke="url(#paint0_linear_132_5292)" stroke-width="2"/>
<path d="M1548.72 -244.671C1510.61 -232.194 1435.43 -177.846 1439.66 -60.279C1444.95 86.6803 1560.25 178.645 1589.08 317.286C1610.35 419.614 1607.33 675.904 1477.62 783.582" stroke="url(#paint1_linear_132_5292)" stroke-width="2"/>
<path d="M1496.01 -215.622C1457.9 -203.144 1382.73 -148.797 1386.95 -31.2292C1392.24 115.73 1507.54 207.695 1536.37 346.336C1557.65 448.663 1554.63 704.954 1424.91 812.632" stroke="url(#paint2_linear_132_5292)" stroke-width="2"/>
<path d="M1442.57 -187.843C1404.46 -175.366 1329.28 -121.018 1333.51 -3.45088C1338.8 143.508 1454.1 235.474 1482.93 374.114C1504.2 476.442 1501.18 732.732 1371.47 840.41" stroke="url(#paint3_linear_132_5292)" stroke-width="2"/>
<path d="M1388.41 -161.392C1350.29 -148.914 1275.12 -94.5667 1279.35 23.0008C1284.63 169.96 1399.94 261.925 1428.76 400.566C1450.04 502.893 1447.02 759.184 1317.3 866.862" stroke="url(#paint4_linear_132_5292)" stroke-width="2"/>
<path d="M1333.51 -136.364C1295.4 -123.887 1220.23 -69.5393 1224.45 48.0281C1229.74 194.987 1345.04 286.953 1373.87 425.593C1395.15 527.921 1392.13 784.211 1262.41 891.889" stroke="url(#paint5_linear_132_5292)" stroke-width="2"/>
<path d="M1277.88 -112.897C1239.77 -100.42 1164.59 -46.0725 1168.82 71.4949C1174.11 218.454 1289.41 310.419 1318.24 449.06C1339.51 551.388 1336.49 807.678 1206.78 915.356" stroke="url(#paint6_linear_132_5292)" stroke-width="2"/>
<path d="M1221.49 -91.1699C1183.38 -78.6922 1108.2 -24.345 1112.43 93.2225C1117.72 240.182 1233.02 332.147 1261.85 470.788C1283.12 573.115 1280.1 829.406 1150.39 937.083" stroke="url(#paint7_linear_132_5292)" stroke-width="2"/>
<path d="M1164.32 -71.4072C1126.21 -58.9295 1051.04 -4.58231 1055.27 112.985C1060.55 259.944 1175.85 351.91 1204.68 490.551C1225.96 592.878 1222.94 849.168 1093.22 956.846" stroke="url(#paint8_linear_132_5292)" stroke-width="2"/>
<path d="M1106.37 -53.8955C1068.26 -41.4178 993.083 12.9294 997.311 130.497C1002.6 277.456 1117.9 369.421 1146.73 508.062C1168 610.39 1164.98 866.68 1035.27 974.358" stroke="url(#paint9_linear_132_5292)" stroke-width="2"/>
<path d="M1047.63 -38.9985C1009.52 -26.5209 934.345 27.8264 938.572 145.394C943.857 292.353 1059.16 384.318 1087.99 522.959C1109.26 625.287 1106.24 881.577 976.527 989.255" stroke="url(#paint10_linear_132_5292)" stroke-width="2"/>
<path d="M988.141 -27.1782C950.026 -14.7005 874.854 39.6467 879.082 157.214C884.367 304.174 999.671 396.139 1028.5 534.78C1049.77 637.107 1046.75 893.397 917.037 1001.08" stroke="url(#paint11_linear_132_5292)" stroke-width="2"/>
<path d="M927.99 -19.0181C889.875 -6.54039 814.703 47.8068 818.931 165.374C824.216 312.334 939.52 404.299 968.346 542.94C989.622 645.267 986.603 901.557 856.885 1009.24" stroke="url(#paint12_linear_132_5292)" stroke-width="2"/>
<path d="M867.37 -15.2534C829.255 -2.77574 754.083 51.5715 758.311 169.139C763.596 316.098 878.9 408.063 907.727 546.704C929.002 649.032 925.983 905.322 796.266 1013" stroke="url(#paint13_linear_132_5292)" stroke-width="2"/>
<path d="M806.645 -16.7852C768.531 -4.30748 693.359 50.0398 697.587 167.607C702.871 314.567 818.176 406.532 847.002 545.173C868.278 647.5 865.259 903.79 735.541 1011.47" stroke="url(#paint14_linear_132_5292)" stroke-width="2"/>
<path d="M746.454 -24.6548C708.339 -12.1771 633.167 42.1701 637.395 159.738C642.68 306.697 757.984 398.662 786.81 537.303C808.086 639.63 805.067 895.921 675.349 1003.6" stroke="url(#paint15_linear_132_5292)" stroke-width="2"/>
<path d="M687.817 -39.9229C649.702 -27.4452 574.53 26.9021 578.758 144.47C584.043 291.429 699.347 383.394 728.173 522.035C749.449 624.362 746.43 880.653 616.712 988.33" stroke="url(#paint16_linear_132_5292)" stroke-width="2"/>
<path d="M622.1 -67.5122C583.986 -55.0345 508.814 -0.687295 513.042 116.88C518.326 263.84 633.631 355.805 662.457 494.446C683.733 596.773 680.714 853.063 550.996 960.741" stroke="url(#paint17_linear_132_5292)" stroke-width="2"/>
<path d="M565.795 -89.4448C527.681 -76.9671 452.509 -22.6199 456.737 94.9476C462.021 241.907 577.326 333.872 606.152 472.513C627.428 574.84 624.408 831.131 494.691 938.808" stroke="url(#paint18_linear_132_5292)" stroke-width="2"/>
<path d="M507.801 -106.829C469.686 -94.3509 394.514 -40.0037 398.742 77.5638C404.027 224.523 519.331 316.488 548.157 455.129C569.433 557.456 566.414 813.747 436.696 921.425" stroke="url(#paint19_linear_132_5292)" stroke-width="2"/>
<path d="M448.512 -119.555C410.398 -107.077 335.226 -52.7298 339.453 64.8377C344.738 211.797 460.043 303.762 488.869 442.403C510.145 544.73 507.125 801.021 377.408 908.699" stroke="url(#paint20_linear_132_5292)" stroke-width="2"/>
<path d="M388.348 -127.626C350.234 -115.148 275.061 -60.8011 279.289 56.7664C284.574 203.726 399.879 295.691 428.705 434.332C449.98 536.659 446.961 792.95 317.244 900.627" stroke="url(#paint21_linear_132_5292)" stroke-width="2"/>
<path d="M327.712 -131.143C289.598 -118.665 214.426 -64.3182 218.654 53.2493C223.938 200.209 339.243 292.174 368.069 430.815C389.345 533.142 386.325 789.432 256.608 897.11" stroke="url(#paint22_linear_132_5292)" stroke-width="2"/>
<path d="M266.972 -130.286C228.858 -117.808 153.685 -63.4612 157.913 54.1063C163.198 201.066 278.503 293.031 307.329 431.672C328.604 533.999 325.585 790.289 195.868 897.967" stroke="url(#paint23_linear_132_5292)" stroke-width="2"/>
<path d="M206.449 -125.287C168.334 -112.809 93.162 -58.4622 97.3899 59.1053C102.675 206.065 217.979 298.03 246.805 436.671C268.081 538.998 265.062 795.288 135.344 902.966" stroke="url(#paint24_linear_132_5292)" stroke-width="2"/>
<path d="M146.41 -116.401C108.295 -103.923 33.123 -49.576 37.3508 67.9915C42.6356 214.951 157.94 306.916 186.766 445.557C208.042 547.884 205.023 804.175 75.3052 911.852" stroke="url(#paint25_linear_132_5292)" stroke-width="2"/>
<path d="M87.0731 -103.884C48.9586 -91.4061 -26.2135 -37.0589 -21.9856 80.5086C-16.7008 227.468 98.6036 319.433 127.43 458.074C148.706 560.401 145.686 816.692 15.9688 924.369" stroke="url(#paint26_linear_132_5292)" stroke-width="2"/>
<path d="M28.622 -87.9722C-9.49255 -75.4945 -84.6646 -21.1473 -80.4368 96.4202C-75.152 243.38 40.1524 335.345 68.9786 473.986C90.2544 576.313 87.2351 832.603 -42.4824 940.281" stroke="url(#paint27_linear_132_5292)" stroke-width="2"/>
<path d="M-28.7701 -68.8643C-66.8846 -56.3866 -142.057 -2.03935 -137.829 115.528C-132.544 262.487 -17.2396 354.453 11.5865 493.093C32.8623 595.421 29.843 851.711 -99.8745 959.389" stroke="url(#paint28_linear_132_5292)" stroke-width="2"/>
</g>
<circle cx="746.499" cy="746.499" r="746.499" transform="matrix(-0.348826 0.937188 0.937188 0.348826 327.077 -434.704)" fill="url(#paint29_radial_132_5292)" fill-opacity="0.1"/>
<defs>
<linearGradient id="paint0_linear_132_5292" x1="1571.16" y1="-275" x2="1571.16" y2="753.253" gradientUnits="userSpaceOnUse">
<stop offset="0.166667" stop-color="#D8DCE7" stop-opacity="0.03"/>
<stop offset="0.489583" stop-color="#D8DCE7" stop-opacity="0.13"/>
<stop offset="0.635417" stop-color="#D8DCE7" stop-opacity="0.36"/>
<stop offset="1" stop-color="#D8DCE7" stop-opacity="0"/>
</linearGradient>
<linearGradient id="paint1_linear_132_5292" x1="1519.24" y1="-244.671" x2="1519.24" y2="783.582" gradientUnits="userSpaceOnUse">
<stop offset="0.166667" stop-color="#D8DCE7" stop-opacity="0.03"/>
<stop offset="0.489583" stop-color="#D8DCE7" stop-opacity="0.13"/>
<stop offset="0.635417" stop-color="#D8DCE7" stop-opacity="0.36"/>
<stop offset="1" stop-color="#D8DCE7" stop-opacity="0"/>
</linearGradient>
<linearGradient id="paint2_linear_132_5292" x1="1466.53" y1="-215.622" x2="1466.53" y2="812.632" gradientUnits="userSpaceOnUse">
<stop offset="0.166667" stop-color="#D8DCE7" stop-opacity="0.03"/>
<stop offset="0.489583" stop-color="#D8DCE7" stop-opacity="0.13"/>
<stop offset="0.635417" stop-color="#D8DCE7" stop-opacity="0.36"/>
<stop offset="1" stop-color="#D8DCE7" stop-opacity="0"/>
</linearGradient>
<linearGradient id="paint3_linear_132_5292" x1="1413.09" y1="-187.843" x2="1413.09" y2="840.41" gradientUnits="userSpaceOnUse">
<stop offset="0.166667" stop-color="#D8DCE7" stop-opacity="0.03"/>
<stop offset="0.489583" stop-color="#D8DCE7" stop-opacity="0.13"/>
<stop offset="0.635417" stop-color="#D8DCE7" stop-opacity="0.36"/>
<stop offset="1" stop-color="#D8DCE7" stop-opacity="0"/>
</linearGradient>
<linearGradient id="paint4_linear_132_5292" x1="1358.92" y1="-161.392" x2="1358.92" y2="866.862" gradientUnits="userSpaceOnUse">
<stop offset="0.166667" stop-color="#D8DCE7" stop-opacity="0.03"/>
<stop offset="0.489583" stop-color="#D8DCE7" stop-opacity="0.13"/>
<stop offset="0.635417" stop-color="#D8DCE7" stop-opacity="0.36"/>
<stop offset="1" stop-color="#D8DCE7" stop-opacity="0"/>
</linearGradient>
<linearGradient id="paint5_linear_132_5292" x1="1304.03" y1="-136.364" x2="1304.03" y2="891.889" gradientUnits="userSpaceOnUse">
<stop offset="0.166667" stop-color="#D8DCE7" stop-opacity="0.03"/>
<stop offset="0.489583" stop-color="#D8DCE7" stop-opacity="0.13"/>
<stop offset="0.635417" stop-color="#D8DCE7" stop-opacity="0.36"/>
<stop offset="1" stop-color="#D8DCE7" stop-opacity="0"/>
</linearGradient>
<linearGradient id="paint6_linear_132_5292" x1="1248.4" y1="-112.897" x2="1248.4" y2="915.356" gradientUnits="userSpaceOnUse">
<stop offset="0.166667" stop-color="#D8DCE7" stop-opacity="0.03"/>
<stop offset="0.489583" stop-color="#D8DCE7" stop-opacity="0.13"/>
<stop offset="0.635417" stop-color="#D8DCE7" stop-opacity="0.36"/>
<stop offset="1" stop-color="#D8DCE7" stop-opacity="0"/>
</linearGradient>
<linearGradient id="paint7_linear_132_5292" x1="1192.01" y1="-91.1699" x2="1192.01" y2="937.083" gradientUnits="userSpaceOnUse">
<stop offset="0.166667" stop-color="#D8DCE7" stop-opacity="0.03"/>
<stop offset="0.489583" stop-color="#D8DCE7" stop-opacity="0.13"/>
<stop offset="0.635417" stop-color="#D8DCE7" stop-opacity="0.36"/>
<stop offset="1" stop-color="#D8DCE7" stop-opacity="0"/>
</linearGradient>
<linearGradient id="paint8_linear_132_5292" x1="1134.84" y1="-71.4072" x2="1134.84" y2="956.846" gradientUnits="userSpaceOnUse">
<stop offset="0.166667" stop-color="#D8DCE7" stop-opacity="0.03"/>
<stop offset="0.489583" stop-color="#D8DCE7" stop-opacity="0.13"/>
<stop offset="0.635417" stop-color="#D8DCE7" stop-opacity="0.36"/>
<stop offset="1" stop-color="#D8DCE7" stop-opacity="0"/>
</linearGradient>
<linearGradient id="paint9_linear_132_5292" x1="1076.89" y1="-53.8955" x2="1076.89" y2="974.358" gradientUnits="userSpaceOnUse">
<stop offset="0.166667" stop-color="#D8DCE7" stop-opacity="0.03"/>
<stop offset="0.489583" stop-color="#D8DCE7" stop-opacity="0.13"/>
<stop offset="0.635417" stop-color="#D8DCE7" stop-opacity="0.36"/>
<stop offset="1" stop-color="#D8DCE7" stop-opacity="0"/>
</linearGradient>
<linearGradient id="paint10_linear_132_5292" x1="1018.15" y1="-38.9985" x2="1018.15" y2="989.255" gradientUnits="userSpaceOnUse">
<stop offset="0.166667" stop-color="#D8DCE7" stop-opacity="0.03"/>
<stop offset="0.489583" stop-color="#D8DCE7" stop-opacity="0.13"/>
<stop offset="0.635417" stop-color="#D8DCE7" stop-opacity="0.36"/>
<stop offset="1" stop-color="#D8DCE7" stop-opacity="0"/>
</linearGradient>
<linearGradient id="paint11_linear_132_5292" x1="958.66" y1="-27.1782" x2="958.66" y2="1001.08" gradientUnits="userSpaceOnUse">
<stop offset="0.166667" stop-color="#D8DCE7" stop-opacity="0.03"/>
<stop offset="0.489583" stop-color="#D8DCE7" stop-opacity="0.13"/>
<stop offset="0.635417" stop-color="#D8DCE7" stop-opacity="0.36"/>
<stop offset="1" stop-color="#D8DCE7" stop-opacity="0"/>
</linearGradient>
<linearGradient id="paint12_linear_132_5292" x1="898.509" y1="-19.0181" x2="898.509" y2="1009.24" gradientUnits="userSpaceOnUse">
<stop offset="0.166667" stop-color="#D8DCE7" stop-opacity="0.03"/>
<stop offset="0.489583" stop-color="#D8DCE7" stop-opacity="0.13"/>
<stop offset="0.635417" stop-color="#D8DCE7" stop-opacity="0.36"/>
<stop offset="1" stop-color="#D8DCE7" stop-opacity="0"/>
</linearGradient>
<linearGradient id="paint13_linear_132_5292" x1="837.889" y1="-15.2534" x2="837.889" y2="1013" gradientUnits="userSpaceOnUse">
<stop offset="0.166667" stop-color="#D8DCE7" stop-opacity="0.03"/>
<stop offset="0.489583" stop-color="#D8DCE7" stop-opacity="0.13"/>
<stop offset="0.635417" stop-color="#D8DCE7" stop-opacity="0.36"/>
<stop offset="1" stop-color="#D8DCE7" stop-opacity="0"/>
</linearGradient>
<linearGradient id="paint14_linear_132_5292" x1="777.164" y1="-16.7852" x2="777.164" y2="1011.47" gradientUnits="userSpaceOnUse">
<stop offset="0.166667" stop-color="#D8DCE7" stop-opacity="0.03"/>
<stop offset="0.489583" stop-color="#D8DCE7" stop-opacity="0.13"/>
<stop offset="0.635417" stop-color="#D8DCE7" stop-opacity="0.36"/>
<stop offset="1" stop-color="#D8DCE7" stop-opacity="0"/>
</linearGradient>
<linearGradient id="paint15_linear_132_5292" x1="716.973" y1="-24.6548" x2="716.973" y2="1003.6" gradientUnits="userSpaceOnUse">
<stop offset="0.166667" stop-color="#D8DCE7" stop-opacity="0.03"/>
<stop offset="0.489583" stop-color="#D8DCE7" stop-opacity="0.13"/>
<stop offset="0.635417" stop-color="#D8DCE7" stop-opacity="0.36"/>
<stop offset="1" stop-color="#D8DCE7" stop-opacity="0"/>
</linearGradient>
<linearGradient id="paint16_linear_132_5292" x1="658.336" y1="-39.9229" x2="658.336" y2="988.33" gradientUnits="userSpaceOnUse">
<stop offset="0.166667" stop-color="#D8DCE7" stop-opacity="0.03"/>
<stop offset="0.489583" stop-color="#D8DCE7" stop-opacity="0.13"/>
<stop offset="0.635417" stop-color="#D8DCE7" stop-opacity="0.36"/>
<stop offset="1" stop-color="#D8DCE7" stop-opacity="0"/>
</linearGradient>
<linearGradient id="paint17_linear_132_5292" x1="592.62" y1="-67.5122" x2="592.62" y2="960.741" gradientUnits="userSpaceOnUse">
<stop offset="0.166667" stop-color="#D8DCE7" stop-opacity="0.03"/>
<stop offset="0.489583" stop-color="#D8DCE7" stop-opacity="0.13"/>
<stop offset="0.635417" stop-color="#D8DCE7" stop-opacity="0.36"/>
<stop offset="1" stop-color="#D8DCE7" stop-opacity="0"/>
</linearGradient>
<linearGradient id="paint18_linear_132_5292" x1="536.314" y1="-89.4448" x2="536.314" y2="938.808" gradientUnits="userSpaceOnUse">
<stop offset="0.166667" stop-color="#D8DCE7" stop-opacity="0.03"/>
<stop offset="0.489583" stop-color="#D8DCE7" stop-opacity="0.13"/>
<stop offset="0.635417" stop-color="#D8DCE7" stop-opacity="0.36"/>
<stop offset="1" stop-color="#D8DCE7" stop-opacity="0"/>
</linearGradient>
<linearGradient id="paint19_linear_132_5292" x1="478.32" y1="-106.829" x2="478.32" y2="921.425" gradientUnits="userSpaceOnUse">
<stop offset="0.166667" stop-color="#D8DCE7" stop-opacity="0.03"/>
<stop offset="0.489583" stop-color="#D8DCE7" stop-opacity="0.13"/>
<stop offset="0.635417" stop-color="#D8DCE7" stop-opacity="0.36"/>
<stop offset="1" stop-color="#D8DCE7" stop-opacity="0"/>
</linearGradient>
<linearGradient id="paint20_linear_132_5292" x1="419.031" y1="-119.555" x2="419.031" y2="908.699" gradientUnits="userSpaceOnUse">
<stop offset="0.166667" stop-color="#D8DCE7" stop-opacity="0.03"/>
<stop offset="0.489583" stop-color="#D8DCE7" stop-opacity="0.13"/>
<stop offset="0.635417" stop-color="#D8DCE7" stop-opacity="0.36"/>
<stop offset="1" stop-color="#D8DCE7" stop-opacity="0"/>
</linearGradient>
<linearGradient id="paint21_linear_132_5292" x1="358.867" y1="-127.626" x2="358.867" y2="900.627" gradientUnits="userSpaceOnUse">
<stop offset="0.166667" stop-color="#D8DCE7" stop-opacity="0.03"/>
<stop offset="0.489583" stop-color="#D8DCE7" stop-opacity="0.13"/>
<stop offset="0.635417" stop-color="#D8DCE7" stop-opacity="0.36"/>
<stop offset="1" stop-color="#D8DCE7" stop-opacity="0"/>
</linearGradient>
<linearGradient id="paint22_linear_132_5292" x1="298.231" y1="-131.143" x2="298.231" y2="897.11" gradientUnits="userSpaceOnUse">
<stop offset="0.166667" stop-color="#D8DCE7" stop-opacity="0.03"/>
<stop offset="0.489583" stop-color="#D8DCE7" stop-opacity="0.13"/>
<stop offset="0.635417" stop-color="#D8DCE7" stop-opacity="0.36"/>
<stop offset="1" stop-color="#D8DCE7" stop-opacity="0"/>
</linearGradient>
<linearGradient id="paint23_linear_132_5292" x1="237.491" y1="-130.286" x2="237.491" y2="897.967" gradientUnits="userSpaceOnUse">
<stop offset="0.166667" stop-color="#D8DCE7" stop-opacity="0.03"/>
<stop offset="0.489583" stop-color="#D8DCE7" stop-opacity="0.13"/>
<stop offset="0.635417" stop-color="#D8DCE7" stop-opacity="0.36"/>
<stop offset="1" stop-color="#D8DCE7" stop-opacity="0"/>
</linearGradient>
<linearGradient id="paint24_linear_132_5292" x1="176.968" y1="-125.287" x2="176.968" y2="902.966" gradientUnits="userSpaceOnUse">
<stop offset="0.166667" stop-color="#D8DCE7" stop-opacity="0.03"/>
<stop offset="0.489583" stop-color="#D8DCE7" stop-opacity="0.13"/>
<stop offset="0.635417" stop-color="#D8DCE7" stop-opacity="0.36"/>
<stop offset="1" stop-color="#D8DCE7" stop-opacity="0"/>
</linearGradient>
<linearGradient id="paint25_linear_132_5292" x1="116.929" y1="-116.401" x2="116.929" y2="911.852" gradientUnits="userSpaceOnUse">
<stop offset="0.166667" stop-color="#D8DCE7" stop-opacity="0.03"/>
<stop offset="0.489583" stop-color="#D8DCE7" stop-opacity="0.13"/>
<stop offset="0.635417" stop-color="#D8DCE7" stop-opacity="0.36"/>
<stop offset="1" stop-color="#D8DCE7" stop-opacity="0"/>
</linearGradient>
<linearGradient id="paint26_linear_132_5292" x1="57.5922" y1="-103.884" x2="57.5922" y2="924.37" gradientUnits="userSpaceOnUse">
<stop offset="0.166667" stop-color="#D8DCE7" stop-opacity="0.03"/>
<stop offset="0.489583" stop-color="#D8DCE7" stop-opacity="0.13"/>
<stop offset="0.635417" stop-color="#D8DCE7" stop-opacity="0.36"/>
<stop offset="1" stop-color="#D8DCE7" stop-opacity="0"/>
</linearGradient>
<linearGradient id="paint27_linear_132_5292" x1="-0.859001" y1="-87.9722" x2="-0.859001" y2="940.281" gradientUnits="userSpaceOnUse">
<stop offset="0.166667" stop-color="#D8DCE7" stop-opacity="0.03"/>
<stop offset="0.489583" stop-color="#D8DCE7" stop-opacity="0.13"/>
<stop offset="0.635417" stop-color="#D8DCE7" stop-opacity="0.36"/>
<stop offset="1" stop-color="#D8DCE7" stop-opacity="0"/>
</linearGradient>
<linearGradient id="paint28_linear_132_5292" x1="-58.2511" y1="-68.8643" x2="-58.2511" y2="959.389" gradientUnits="userSpaceOnUse">
<stop offset="0.166667" stop-color="#D8DCE7" stop-opacity="0.03"/>
<stop offset="0.489583" stop-color="#D8DCE7" stop-opacity="0.13"/>
<stop offset="0.635417" stop-color="#D8DCE7" stop-opacity="0.36"/>
<stop offset="1" stop-color="#D8DCE7" stop-opacity="0"/>
</linearGradient>
<radialGradient id="paint29_radial_132_5292" cx="0" cy="0" r="1" gradientUnits="userSpaceOnUse" gradientTransform="translate(746.499 746.499) rotate(90) scale(707.887 762.087)">
<stop stop-color="#6658DB"/>
<stop offset="1" stop-color="#6658DB" stop-opacity="0"/>
</radialGradient>
</defs>
</svg>
