<svg width="449" height="320" viewBox="0 0 449 320" fill="none" xmlns="http://www.w3.org/2000/svg">
<g clip-path="url(#clip0_1059_12228)">
<rect width="449" height="320" rx="8" fill="white"/>
<rect width="449" height="320" rx="8" fill="black" fill-opacity="0.03"/>
<g clip-path="url(#clip1_1059_12228)">
<path d="M-627 -2853C-627 -2859.63 -621.627 -2865 -615 -2865H873C879.627 -2865 885 -2859.63 885 -2853V622H-627V-2853Z" fill="#FEFEFE"/>
<g opacity="0.4">
<path d="M-217.345 857.243C-178.026 848.581 -97.0483 800.773 -87.6863 678.836C-75.9838 526.415 -179.966 418.603 -192.619 272.164C-201.958 164.081 -169.389 -100.377 -28.0502 -197.232" stroke="url(#paint0_linear_1059_12228)" stroke-opacity="0.5" stroke-width="2"/>
<path d="M-159.348 839.172C-120.03 830.51 -39.0517 782.702 -29.6897 660.765C-17.9872 508.344 -121.969 400.532 -134.623 254.093C-143.961 146.01 -111.393 -118.448 29.9464 -215.302" stroke="url(#paint1_linear_1059_12228)" stroke-opacity="0.5" stroke-width="2"/>
<path d="M-100.799 822.981C-61.4807 814.319 19.4971 766.511 28.8591 644.574C40.5616 492.153 -63.4206 384.341 -76.0737 237.902C-85.4126 129.819 -52.8438 -134.639 88.4952 -231.493" stroke="url(#paint2_linear_1059_12228)" stroke-opacity="0.5" stroke-width="2"/>
<path d="M-41.7066 808.907C-2.38791 800.245 78.5899 752.437 87.9519 630.5C99.6544 478.079 -4.32783 370.267 -16.9809 223.828C-26.3198 115.745 6.24897 -148.713 147.588 -245.568" stroke="url(#paint3_linear_1059_12228)" stroke-opacity="0.5" stroke-width="2"/>
<path d="M17.9101 797.246C57.2288 788.584 138.207 740.776 147.569 618.839C159.271 466.418 55.2889 358.606 42.6358 212.167C33.2969 104.084 65.8657 -160.374 207.205 -257.229" stroke="url(#paint4_linear_1059_12228)" stroke-opacity="0.5" stroke-width="2"/>
<path d="M78.0044 788.373C117.323 779.711 198.301 731.903 207.663 609.967C219.365 457.545 115.383 349.733 102.73 203.294C93.3911 95.211 125.96 -169.247 267.299 -266.101" stroke="url(#paint5_linear_1059_12228)" stroke-opacity="0.5" stroke-width="2"/>
<path d="M138.492 782.762C177.81 774.101 258.788 726.293 268.15 604.356C279.853 451.935 175.87 344.123 163.217 197.683C153.878 89.6001 186.447 -174.858 327.786 -271.712" stroke="url(#paint6_linear_1059_12228)" stroke-opacity="0.5" stroke-width="2"/>
<path d="M199.212 781.008C238.531 772.346 319.509 724.538 328.871 602.601C340.573 450.18 236.591 342.368 223.938 195.928C214.599 87.8452 247.168 -176.613 388.507 -273.467" stroke="url(#paint7_linear_1059_12228)" stroke-opacity="0.5" stroke-width="2"/>
<path d="M259.892 783.845C299.211 775.183 380.189 727.375 389.551 605.438C401.253 453.017 297.271 345.205 284.618 198.766C275.279 90.6826 307.848 -173.775 449.187 -270.63" stroke="url(#paint8_linear_1059_12228)" stroke-opacity="0.5" stroke-width="2"/>
<path d="M320.065 792.166C359.384 783.504 440.362 735.696 449.724 613.76C461.426 461.338 357.444 353.526 344.791 207.087C335.452 99.0039 368.021 -165.454 509.36 -262.308" stroke="url(#paint9_linear_1059_12228)" stroke-opacity="0.5" stroke-width="2"/>
<path d="M378.979 806.977C418.297 798.315 499.275 750.508 508.637 628.571C520.339 476.149 416.357 368.337 403.704 221.898C394.365 113.815 426.934 -150.643 568.273 -247.497" stroke="url(#paint10_linear_1059_12228)" stroke-opacity="0.5" stroke-width="2"/>
<path d="M435.491 829.259C474.81 820.597 555.788 772.789 565.15 650.852C576.852 498.431 472.87 390.619 460.217 244.18C450.878 136.097 483.447 -128.361 624.786 -225.216" stroke="url(#paint11_linear_1059_12228)" stroke-opacity="0.5" stroke-width="2"/>
<path d="M497.619 865.056C536.938 856.395 617.916 808.587 627.278 686.65C638.98 534.228 534.998 426.416 522.345 279.977C513.006 171.894 545.575 -92.5637 686.914 -189.418" stroke="url(#paint12_linear_1059_12228)" stroke-opacity="0.5" stroke-width="2"/>
</g>
<circle cx="260.424" cy="200.427" r="299.083" transform="rotate(-173.628 260.424 200.427)" fill="url(#paint13_radial_1059_12228)" fill-opacity="0.22"/>
</g>
<rect x="19.5" y="78.5" width="411" height="255" rx="7.5" fill="white"/>
<path d="M40.6289 121V111.136H42.3926L45.5371 119.004H45.6465L48.791 111.136H50.5547V121H49.1602V113.761H49.0576L46.1592 121H45.0244L42.1328 113.761H42.0234V121H40.6289ZM56.0029 121.144C53.8223 121.144 52.4893 119.688 52.4893 117.295V117.281C52.4893 114.896 53.8291 113.433 56.0029 113.433C58.1699 113.433 59.5098 114.889 59.5098 117.281V117.295C59.5098 119.688 58.1768 121.144 56.0029 121.144ZM56.0029 119.906C57.2744 119.906 57.999 118.936 57.999 117.295V117.281C57.999 115.634 57.2744 114.67 56.0029 114.67C54.7246 114.67 54.0068 115.634 54.0068 117.281V117.295C54.0068 118.942 54.7246 119.906 56.0029 119.906ZM61.2803 121V113.576H62.7637V114.704H62.873C63.2354 113.911 63.9463 113.433 65.0264 113.433C66.6875 113.433 67.6035 114.424 67.6035 116.194V121H66.127V116.543C66.127 115.312 65.6143 114.704 64.5273 114.704C63.4404 114.704 62.7637 115.449 62.7637 116.646V121H61.2803Z" fill="#4A3AD4"/>
<path d="M102.421 121V112.455H99.3174V111.136H107.049V112.455H103.952V121H102.421ZM110.316 121.144C108.642 121.144 107.773 120.139 107.773 118.382V113.576H109.257V118.033C109.257 119.264 109.708 119.872 110.795 119.872C111.984 119.872 112.62 119.127 112.62 117.931V113.576H114.097V121H112.62V119.879H112.504C112.148 120.679 111.396 121.144 110.316 121.144ZM119.354 121.144C117.18 121.144 115.867 119.66 115.867 117.309V117.302C115.867 114.984 117.207 113.433 119.278 113.433C121.35 113.433 122.621 114.93 122.621 117.158V117.678H117.357C117.385 119.1 118.164 119.927 119.388 119.927C120.338 119.927 120.905 119.455 121.083 119.072L121.11 119.018L122.539 119.011L122.525 119.072C122.279 120.05 121.254 121.144 119.354 121.144ZM119.285 114.649C118.273 114.649 117.508 115.34 117.378 116.618H121.151C121.035 115.292 120.29 114.649 119.285 114.649Z" fill="#4A3AD4"/>
<path d="M156.283 121L153.624 111.136H155.217L157.028 118.806H157.124L159.182 111.136H160.604L162.675 118.806H162.771L164.575 111.136H166.168L163.502 121H162.06L159.94 113.624H159.845L157.732 121H156.283ZM170.229 121.144C168.055 121.144 166.742 119.66 166.742 117.309V117.302C166.742 114.984 168.082 113.433 170.153 113.433C172.225 113.433 173.496 114.93 173.496 117.158V117.678H168.232C168.26 119.1 169.039 119.927 170.263 119.927C171.213 119.927 171.78 119.455 171.958 119.072L171.985 119.018L173.414 119.011L173.4 119.072C173.154 120.05 172.129 121.144 170.229 121.144ZM170.16 114.649C169.148 114.649 168.383 115.34 168.253 116.618H172.026C171.91 115.292 171.165 114.649 170.16 114.649ZM177.967 121.123C176.101 121.123 174.891 119.626 174.891 117.295V117.281C174.891 114.93 176.08 113.446 177.967 113.446C178.985 113.446 179.854 113.952 180.25 114.752H180.366V110.664H181.843V121H180.366V119.831H180.25C179.819 120.645 179.006 121.123 177.967 121.123ZM178.391 119.858C179.628 119.858 180.387 118.881 180.387 117.295V117.281C180.387 115.695 179.621 114.718 178.391 114.718C177.146 114.718 176.401 115.688 176.401 117.281V117.295C176.401 118.888 177.146 119.858 178.391 119.858Z" fill="#4A3AD4"/>
<path d="M215.806 121V112.455H212.702V111.136H220.434V112.455H217.337V121H215.806ZM222.211 121V110.664H223.694V114.704H223.804C224.166 113.911 224.877 113.433 225.957 113.433C227.618 113.433 228.534 114.424 228.534 116.194V121H227.058V116.543C227.058 115.312 226.545 114.704 225.458 114.704C224.371 114.704 223.694 115.449 223.694 116.646V121H222.211ZM233.08 121.144C231.405 121.144 230.537 120.139 230.537 118.382V113.576H232.021V118.033C232.021 119.264 232.472 119.872 233.559 119.872C234.748 119.872 235.384 119.127 235.384 117.931V113.576H236.86V121H235.384V119.879H235.268C234.912 120.679 234.16 121.144 233.08 121.144Z" fill="#4A3AD4"/>
<path d="M274.528 121V111.136H280.688V112.455H276.06V115.579H280.298V116.871H276.06V121H274.528ZM282.506 121V113.576H283.989V114.697H284.099C284.365 113.911 285.056 113.446 286.047 113.446C286.286 113.446 286.546 113.48 286.696 113.515V114.882C286.43 114.827 286.177 114.793 285.896 114.793C284.762 114.793 283.989 115.49 283.989 116.563V121H282.506ZM288.884 112.25C288.371 112.25 287.954 111.833 287.954 111.327C287.954 110.814 288.371 110.397 288.884 110.397C289.39 110.397 289.813 110.814 289.813 111.327C289.813 111.833 289.39 112.25 288.884 112.25ZM288.139 121V113.576H289.615V121H288.139Z" fill="#4A3AD4"/>
<path d="M332.41 121.239C330.182 121.239 328.753 120.111 328.616 118.45L328.609 118.361H330.113L330.12 118.437C330.202 119.332 331.152 119.906 332.472 119.906C333.729 119.906 334.625 119.277 334.625 118.361V118.354C334.625 117.596 334.092 117.104 332.786 116.823L331.706 116.591C329.703 116.167 328.842 115.237 328.842 113.781V113.774C328.849 112.072 330.325 110.896 332.417 110.896C334.509 110.896 335.876 112.079 335.985 113.61L335.992 113.706H334.509L334.495 113.617C334.365 112.811 333.593 112.223 332.396 112.229C331.241 112.229 330.387 112.77 330.387 113.699V113.706C330.387 114.438 330.906 114.916 332.185 115.189L333.258 115.429C335.329 115.873 336.177 116.707 336.177 118.17V118.177C336.177 120.063 334.707 121.239 332.41 121.239ZM340.019 121.123C338.604 121.123 337.558 120.262 337.558 118.915V118.901C337.558 117.575 338.556 116.803 340.326 116.693L342.336 116.577V115.921C342.336 115.107 341.823 114.656 340.818 114.656C339.998 114.656 339.458 114.957 339.28 115.483L339.273 115.511H337.845L337.852 115.463C338.029 114.246 339.198 113.433 340.887 113.433C342.753 113.433 343.806 114.362 343.806 115.921V121H342.336V119.947H342.22C341.782 120.699 341.003 121.123 340.019 121.123ZM339.034 118.854C339.034 119.537 339.615 119.94 340.415 119.94C341.522 119.94 342.336 119.216 342.336 118.259V117.623L340.524 117.739C339.499 117.801 339.034 118.17 339.034 118.84V118.854ZM348.7 121.048C347.066 121.048 346.396 120.474 346.396 119.045V114.745H345.234V113.576H346.396V111.703H347.907V113.576H349.5V114.745H347.907V118.689C347.907 119.489 348.208 119.817 348.939 119.817C349.165 119.817 349.295 119.811 349.5 119.79V120.973C349.261 121.014 348.987 121.048 348.7 121.048Z" fill="#EE2EE8"/>
<path d="M387.619 121.239C385.391 121.239 383.962 120.111 383.825 118.45L383.818 118.361H385.322L385.329 118.437C385.411 119.332 386.361 119.906 387.681 119.906C388.938 119.906 389.834 119.277 389.834 118.361V118.354C389.834 117.596 389.301 117.104 387.995 116.823L386.915 116.591C384.912 116.167 384.051 115.237 384.051 113.781V113.774C384.058 112.072 385.534 110.896 387.626 110.896C389.718 110.896 391.085 112.079 391.194 113.61L391.201 113.706H389.718L389.704 113.617C389.574 112.811 388.802 112.223 387.605 112.229C386.45 112.229 385.596 112.77 385.596 113.699V113.706C385.596 114.438 386.115 114.916 387.394 115.189L388.467 115.429C390.538 115.873 391.386 116.707 391.386 118.17V118.177C391.386 120.063 389.916 121.239 387.619 121.239ZM395.706 121.144C394.031 121.144 393.163 120.139 393.163 118.382V113.576H394.646V118.033C394.646 119.264 395.098 119.872 396.185 119.872C397.374 119.872 398.01 119.127 398.01 117.931V113.576H399.486V121H398.01V119.879H397.894C397.538 120.679 396.786 121.144 395.706 121.144ZM401.626 121V113.576H403.109V114.704H403.219C403.581 113.911 404.292 113.433 405.372 113.433C407.033 113.433 407.949 114.424 407.949 116.194V121H406.473V116.543C406.473 115.312 405.96 114.704 404.873 114.704C403.786 114.704 403.109 115.449 403.109 116.646V121H401.626Z" fill="#EE2EE8"/>
<rect x="325" y="147" width="28" height="26" rx="8" fill="#4A3AD4"/>
<path d="M382 155C382 150.582 385.582 147 390 147H402C406.418 147 410 150.582 410 155V165C410 169.418 406.418 173 402 173H390C385.582 173 382 169.418 382 165V155Z" fill="#4A3AD4"/>
<path d="M45.4844 166V165.031L49.2969 160.906C50.7344 159.352 51.1562 158.766 51.1562 157.781V157.766C51.1562 156.578 50.3516 155.688 49.0234 155.688C47.6719 155.688 46.7734 156.57 46.7734 157.898L46.7656 157.914L45.4219 157.906L45.4062 157.898C45.4141 155.898 46.9609 154.461 49.1172 154.461C51.0859 154.461 52.5938 155.797 52.5938 157.617V157.633C52.5938 158.922 52.0391 159.859 50 161.961L47.4375 164.609V164.734H52.7812V166H45.4844ZM58.8438 166.266C56.7422 166.266 55.2422 164.914 55.0781 163.109L55.0703 163.023H56.4219L56.4297 163.086C56.5625 164.164 57.5391 165.023 58.8594 165.023C60.3594 165.023 61.3906 163.953 61.3906 162.43V162.414C61.3906 160.914 60.3438 159.844 58.8828 159.844C58.1328 159.844 57.4922 160.07 57.0078 160.531C56.8125 160.719 56.6328 160.938 56.4922 161.203H55.2734L55.8672 154.727H62.1406V155.984H56.9766L56.5938 159.797H56.7188C57.2188 159.039 58.1016 158.625 59.125 158.625C61.2422 158.625 62.7656 160.211 62.7656 162.391V162.406C62.7656 164.68 61.1328 166.266 58.8438 166.266Z" fill="#160A29"/>
<path d="M101.836 166V165.031L105.648 160.906C107.086 159.352 107.508 158.766 107.508 157.781V157.766C107.508 156.578 106.703 155.688 105.375 155.688C104.023 155.688 103.125 156.57 103.125 157.898L103.117 157.914L101.773 157.906L101.758 157.898C101.766 155.898 103.312 154.461 105.469 154.461C107.438 154.461 108.945 155.797 108.945 157.617V157.633C108.945 158.922 108.391 159.859 106.352 161.961L103.789 164.609V164.734H109.133V166H101.836ZM115.477 166.266C113.414 166.266 111.234 164.812 111.234 160.57V160.555C111.234 156.711 112.836 154.461 115.57 154.461C117.461 154.461 118.867 155.57 119.25 157.234L119.273 157.336H117.859L117.828 157.25C117.484 156.305 116.695 155.719 115.555 155.719C113.508 155.719 112.672 157.719 112.586 160.07C112.578 160.156 112.578 160.25 112.578 160.336H112.727C113.141 159.414 114.203 158.594 115.727 158.594C117.844 158.594 119.422 160.203 119.422 162.367V162.383C119.422 164.633 117.75 166.266 115.477 166.266ZM112.914 162.367C112.914 163.852 114.031 165.023 115.461 165.023C116.875 165.023 118.008 163.875 118.008 162.414V162.398C118.008 160.898 116.945 159.82 115.484 159.82C114.023 159.82 112.914 160.891 112.914 162.359V162.367Z" fill="#160A29"/>
<path d="M158.875 166V165.031L162.688 160.906C164.125 159.352 164.547 158.766 164.547 157.781V157.766C164.547 156.578 163.742 155.688 162.414 155.688C161.062 155.688 160.164 156.57 160.164 157.898L160.156 157.914L158.812 157.906L158.797 157.898C158.805 155.898 160.352 154.461 162.508 154.461C164.477 154.461 165.984 155.797 165.984 157.617V157.633C165.984 158.922 165.43 159.859 163.391 161.961L160.828 164.609V164.734H166.172V166H158.875ZM169 166L174.062 156.094V155.984H168.031V154.727H175.492V156.031L170.477 166H169Z" fill="#160A29"/>
<path d="M214.82 166V165.031L218.633 160.906C220.07 159.352 220.492 158.766 220.492 157.781V157.766C220.492 156.578 219.688 155.688 218.359 155.688C217.008 155.688 216.109 156.57 216.109 157.898L216.102 157.914L214.758 157.906L214.742 157.898C214.75 155.898 216.297 154.461 218.453 154.461C220.422 154.461 221.93 155.797 221.93 157.617V157.633C221.93 158.922 221.375 159.859 219.336 161.961L216.773 164.609V164.734H222.117V166H214.82ZM228.328 166.188C225.938 166.188 224.234 164.844 224.234 162.953V162.938C224.234 161.547 225.211 160.391 226.656 160.055V160.023C225.422 159.641 224.641 158.703 224.641 157.516V157.5C224.641 155.797 226.195 154.539 228.328 154.539C230.461 154.539 232.016 155.797 232.016 157.5V157.516C232.016 158.703 231.234 159.641 230 160.023V160.055C231.445 160.391 232.422 161.547 232.422 162.938V162.953C232.422 164.844 230.719 166.188 228.328 166.188ZM228.328 159.5C229.688 159.5 230.617 158.727 230.617 157.633V157.617C230.617 156.523 229.688 155.75 228.328 155.75C226.969 155.75 226.039 156.523 226.039 157.617V157.633C226.039 158.727 226.969 159.5 228.328 159.5ZM228.328 164.961C229.883 164.961 230.992 164.086 230.992 162.867V162.852C230.992 161.617 229.891 160.734 228.328 160.734C226.766 160.734 225.664 161.617 225.664 162.852V162.867C225.664 164.086 226.773 164.961 228.328 164.961Z" fill="#160A29"/>
<path d="M271.336 166V165.031L275.148 160.906C276.586 159.352 277.008 158.766 277.008 157.781V157.766C277.008 156.578 276.203 155.688 274.875 155.688C273.523 155.688 272.625 156.57 272.625 157.898L272.617 157.914L271.273 157.906L271.258 157.898C271.266 155.898 272.812 154.461 274.969 154.461C276.938 154.461 278.445 155.797 278.445 157.617V157.633C278.445 158.922 277.891 159.859 275.852 161.961L273.289 164.609V164.734H278.633V166H271.336ZM284.68 154.461C286.742 154.461 288.922 155.914 288.922 160.156V160.172C288.922 164.016 287.32 166.266 284.586 166.266C282.695 166.266 281.289 165.156 280.906 163.492L280.883 163.391H282.297L282.328 163.477C282.672 164.422 283.461 165.008 284.602 165.008C286.648 165.008 287.484 163.008 287.57 160.656C287.578 160.57 287.578 160.477 287.578 160.391H287.43C287.016 161.312 285.953 162.133 284.43 162.133C282.312 162.133 280.734 160.523 280.734 158.359V158.344C280.734 156.094 282.406 154.461 284.68 154.461ZM284.672 160.906C286.133 160.906 287.242 159.836 287.242 158.367V158.359C287.242 156.875 286.125 155.703 284.695 155.703C283.281 155.703 282.148 156.852 282.148 158.312V158.328C282.148 159.828 283.211 160.906 284.672 160.906Z" fill="#160A29"/>
<path d="M334.039 166.188C331.711 166.188 330.203 164.891 330.055 163.109L330.047 163.016H331.398L331.406 163.094C331.516 164.203 332.539 164.969 334.039 164.969C335.516 164.969 336.523 164.141 336.523 162.945V162.93C336.523 161.547 335.531 160.773 333.953 160.773H332.539V159.586H333.891C335.234 159.586 336.172 158.758 336.172 157.633V157.617C336.172 156.438 335.398 155.758 334.023 155.758C332.695 155.758 331.75 156.461 331.633 157.602L331.625 157.68H330.273L330.281 157.602C330.461 155.766 331.914 154.539 334.023 154.539C336.172 154.539 337.586 155.734 337.586 157.445V157.461C337.586 158.852 336.602 159.805 335.195 160.102V160.133C336.836 160.273 337.953 161.297 337.953 162.898V162.914C337.953 164.797 336.297 166.188 334.039 166.188ZM344.008 166.266C341.516 166.266 340.031 163.992 340.031 160.367V160.352C340.031 156.727 341.516 154.461 344.008 154.461C346.5 154.461 348 156.727 348 160.352V160.367C348 163.992 346.5 166.266 344.008 166.266ZM344.008 165.039C345.625 165.039 346.586 163.242 346.586 160.367V160.352C346.586 157.477 345.625 155.695 344.008 155.695C342.391 155.695 341.445 157.477 341.445 160.352V160.367C341.445 163.242 342.391 165.039 344.008 165.039Z" fill="#FEFEFE"/>
<path d="M396.305 166V156.289H396.18L393.312 158.367V156.883L396.312 154.727H397.711V166H396.305Z" fill="#FEFEFE"/>
<rect x="325" y="191" width="28" height="26" rx="8" fill="#4A3AD4"/>
<path d="M382 199C382 194.582 385.582 191 390 191H402C406.418 191 410 194.582 410 199V209C410 213.418 406.418 217 402 217H390C385.582 217 382 213.418 382 209V199Z" fill="#4A3AD4"/>
<path d="M50.4297 210V209.031L54.2422 204.906C55.6797 203.352 56.1016 202.766 56.1016 201.781V201.766C56.1016 200.578 55.2969 199.688 53.9688 199.688C52.6172 199.688 51.7188 200.57 51.7188 201.898L51.7109 201.914L50.3672 201.906L50.3516 201.898C50.3594 199.898 51.9062 198.461 54.0625 198.461C56.0312 198.461 57.5391 199.797 57.5391 201.617V201.633C57.5391 202.922 56.9844 203.859 54.9453 205.961L52.3828 208.609V208.734H57.7266V210H50.4297Z" fill="#160A29"/>
<path d="M110.578 210.188C108.25 210.188 106.742 208.891 106.594 207.109L106.586 207.016H107.938L107.945 207.094C108.055 208.203 109.078 208.969 110.578 208.969C112.055 208.969 113.062 208.141 113.062 206.945V206.93C113.062 205.547 112.07 204.773 110.492 204.773H109.078V203.586H110.43C111.773 203.586 112.711 202.758 112.711 201.633V201.617C112.711 200.438 111.938 199.758 110.562 199.758C109.234 199.758 108.289 200.461 108.172 201.602L108.164 201.68H106.812L106.82 201.602C107 199.766 108.453 198.539 110.562 198.539C112.711 198.539 114.125 199.734 114.125 201.445V201.461C114.125 202.852 113.141 203.805 111.734 204.102V204.133C113.375 204.273 114.492 205.297 114.492 206.898V206.914C114.492 208.797 112.836 210.188 110.578 210.188Z" fill="#160A29"/>
<path d="M168.258 210V207.664H162.766V206.383C164.289 203.828 166.016 201.078 167.594 198.727H169.633V206.406H171.234V207.664H169.633V210H168.258ZM164.203 206.414H168.266V200.031H168.172C166.906 201.922 165.43 204.25 164.203 206.32V206.414Z" fill="#160A29"/>
<path d="M223.516 210.266C221.414 210.266 219.914 208.914 219.75 207.109L219.742 207.023H221.094L221.102 207.086C221.234 208.164 222.211 209.023 223.531 209.023C225.031 209.023 226.062 207.953 226.062 206.43V206.414C226.062 204.914 225.016 203.844 223.555 203.844C222.805 203.844 222.164 204.07 221.68 204.531C221.484 204.719 221.305 204.938 221.164 205.203H219.945L220.539 198.727H226.812V199.984H221.648L221.266 203.797H221.391C221.891 203.039 222.773 202.625 223.797 202.625C225.914 202.625 227.438 204.211 227.438 206.391V206.406C227.438 208.68 225.805 210.266 223.516 210.266Z" fill="#160A29"/>
<path d="M280.148 210.266C278.086 210.266 275.906 208.812 275.906 204.57V204.555C275.906 200.711 277.508 198.461 280.242 198.461C282.133 198.461 283.539 199.57 283.922 201.234L283.945 201.336H282.531L282.5 201.25C282.156 200.305 281.367 199.719 280.227 199.719C278.18 199.719 277.344 201.719 277.258 204.07C277.25 204.156 277.25 204.25 277.25 204.336H277.398C277.812 203.414 278.875 202.594 280.398 202.594C282.516 202.594 284.094 204.203 284.094 206.367V206.383C284.094 208.633 282.422 210.266 280.148 210.266ZM277.586 206.367C277.586 207.852 278.703 209.023 280.133 209.023C281.547 209.023 282.68 207.875 282.68 206.414V206.398C282.68 204.898 281.617 203.82 280.156 203.82C278.695 203.82 277.586 204.891 277.586 206.359V206.367Z" fill="#160A29"/>
<path d="M336.172 210L341.234 200.094V199.984H335.203V198.727H342.664V200.031L337.648 210H336.172Z" fill="#FEFEFE"/>
<path d="M396 210.188C393.609 210.188 391.906 208.844 391.906 206.953V206.938C391.906 205.547 392.883 204.391 394.328 204.055V204.023C393.094 203.641 392.312 202.703 392.312 201.516V201.5C392.312 199.797 393.867 198.539 396 198.539C398.133 198.539 399.688 199.797 399.688 201.5V201.516C399.688 202.703 398.906 203.641 397.672 204.023V204.055C399.117 204.391 400.094 205.547 400.094 206.938V206.953C400.094 208.844 398.391 210.188 396 210.188ZM396 203.5C397.359 203.5 398.289 202.727 398.289 201.633V201.617C398.289 200.523 397.359 199.75 396 199.75C394.641 199.75 393.711 200.523 393.711 201.617V201.633C393.711 202.727 394.641 203.5 396 203.5ZM396 208.961C397.555 208.961 398.664 208.086 398.664 206.867V206.852C398.664 205.617 397.562 204.734 396 204.734C394.438 204.734 393.336 205.617 393.336 206.852V206.867C393.336 208.086 394.445 208.961 396 208.961Z" fill="#FEFEFE"/>
<rect x="325" y="235" width="28" height="26" rx="8" fill="#4A3AD4"/>
<path d="M382 243C382 238.582 385.582 235 390 235H402C406.418 235 410 238.582 410 243V253C410 257.418 406.418 261 402 261H390C385.582 261 382 257.418 382 253V243Z" fill="#4A3AD4"/>
<path d="M53.8516 242.461C55.9141 242.461 58.0938 243.914 58.0938 248.156V248.172C58.0938 252.016 56.4922 254.266 53.7578 254.266C51.8672 254.266 50.4609 253.156 50.0781 251.492L50.0547 251.391H51.4688L51.5 251.477C51.8438 252.422 52.6328 253.008 53.7734 253.008C55.8203 253.008 56.6562 251.008 56.7422 248.656C56.75 248.57 56.75 248.477 56.75 248.391H56.6016C56.1875 249.312 55.125 250.133 53.6016 250.133C51.4844 250.133 49.9062 248.523 49.9062 246.359V246.344C49.9062 244.094 51.5781 242.461 53.8516 242.461ZM53.8438 248.906C55.3047 248.906 56.4141 247.836 56.4141 246.367V246.359C56.4141 244.875 55.2969 243.703 53.8672 243.703C52.4531 243.703 51.3203 244.852 51.3203 246.312V246.328C51.3203 247.828 52.3828 248.906 53.8438 248.906Z" fill="#160A29"/>
<path d="M105.766 254V244.289H105.641L102.773 246.367V244.883L105.773 242.727H107.172V254H105.766ZM114.203 254.266C111.711 254.266 110.227 251.992 110.227 248.367V248.352C110.227 244.727 111.711 242.461 114.203 242.461C116.695 242.461 118.195 244.727 118.195 248.352V248.367C118.195 251.992 116.695 254.266 114.203 254.266ZM114.203 253.039C115.82 253.039 116.781 251.242 116.781 248.367V248.352C116.781 245.477 115.82 243.695 114.203 243.695C112.586 243.695 111.641 245.477 111.641 248.352V248.367C111.641 251.242 112.586 253.039 114.203 253.039Z" fill="#160A29"/>
<path d="M163.594 254V244.289H163.469L160.602 246.367V244.883L163.602 242.727H165V254H163.594ZM171.016 254V244.289H170.891L168.023 246.367V244.883L171.023 242.727H172.422V254H171.016Z" fill="#160A29"/>
<path d="M218.977 254V244.289H218.852L215.984 246.367V244.883L218.984 242.727H220.383V254H218.977ZM223.641 254V253.031L227.453 248.906C228.891 247.352 229.312 246.766 229.312 245.781V245.766C229.312 244.578 228.508 243.688 227.18 243.688C225.828 243.688 224.93 244.57 224.93 245.898L224.922 245.914L223.578 245.906L223.562 245.898C223.57 243.898 225.117 242.461 227.273 242.461C229.242 242.461 230.75 243.797 230.75 245.617V245.633C230.75 246.922 230.195 247.859 228.156 249.961L225.594 252.609V252.734H230.938V254H223.641Z" fill="#160A29"/>
<path d="M275.289 254V244.289H275.164L272.297 246.367V244.883L275.297 242.727H276.695V254H275.289ZM283.789 254.188C281.461 254.188 279.953 252.891 279.805 251.109L279.797 251.016H281.148L281.156 251.094C281.266 252.203 282.289 252.969 283.789 252.969C285.266 252.969 286.273 252.141 286.273 250.945V250.93C286.273 249.547 285.281 248.773 283.703 248.773H282.289V247.586H283.641C284.984 247.586 285.922 246.758 285.922 245.633V245.617C285.922 244.438 285.148 243.758 283.773 243.758C282.445 243.758 281.5 244.461 281.383 245.602L281.375 245.68H280.023L280.031 245.602C280.211 243.766 281.664 242.539 283.773 242.539C285.922 242.539 287.336 243.734 287.336 245.445V245.461C287.336 246.852 286.352 247.805 284.945 248.102V248.133C286.586 248.273 287.703 249.297 287.703 250.898V250.914C287.703 252.797 286.047 254.188 283.789 254.188Z" fill="#160A29"/>
<path d="M334.156 254V244.289H334.031L331.164 246.367V244.883L334.164 242.727H335.562V254H334.156ZM343.969 254V251.664H338.477V250.383C340 247.828 341.727 245.078 343.305 242.727H345.344V250.406H346.945V251.664H345.344V254H343.969ZM339.914 250.414H343.977V244.031H343.883C342.617 245.922 341.141 248.25 339.914 250.32V250.414Z" fill="#FEFEFE"/>
<path d="M391.359 254V244.289H391.234L388.367 246.367V244.883L391.367 242.727H392.766V254H391.359ZM399.727 254.266C397.625 254.266 396.125 252.914 395.961 251.109L395.953 251.023H397.305L397.312 251.086C397.445 252.164 398.422 253.023 399.742 253.023C401.242 253.023 402.273 251.953 402.273 250.43V250.414C402.273 248.914 401.227 247.844 399.766 247.844C399.016 247.844 398.375 248.07 397.891 248.531C397.695 248.719 397.516 248.938 397.375 249.203H396.156L396.75 242.727H403.023V243.984H397.859L397.477 247.797H397.602C398.102 247.039 398.984 246.625 400.008 246.625C402.125 246.625 403.648 248.211 403.648 250.391V250.406C403.648 252.68 402.016 254.266 399.727 254.266Z" fill="#FEFEFE"/>
<rect x="325" y="279" width="28" height="26" rx="8" fill="#4A3AD4"/>
<path d="M382 287C382 282.582 385.582 279 390 279H402C406.418 279 410 282.582 410 287V297C410 301.418 406.418 305 402 305H390C385.582 305 382 301.418 382 297V287Z" fill="#4A3AD4"/>
<path d="M49.2109 298V288.289H49.0859L46.2188 290.367V288.883L49.2188 286.727H50.6172V298H49.2109ZM57.8594 298.266C55.7969 298.266 53.6172 296.812 53.6172 292.57V292.555C53.6172 288.711 55.2188 286.461 57.9531 286.461C59.8438 286.461 61.25 287.57 61.6328 289.234L61.6562 289.336H60.2422L60.2109 289.25C59.8672 288.305 59.0781 287.719 57.9375 287.719C55.8906 287.719 55.0547 289.719 54.9688 292.07C54.9609 292.156 54.9609 292.25 54.9609 292.336H55.1094C55.5234 291.414 56.5859 290.594 58.1094 290.594C60.2266 290.594 61.8047 292.203 61.8047 294.367V294.383C61.8047 296.633 60.1328 298.266 57.8594 298.266ZM55.2969 294.367C55.2969 295.852 56.4141 297.023 57.8438 297.023C59.2578 297.023 60.3906 295.875 60.3906 294.414V294.398C60.3906 292.898 59.3281 291.82 57.8672 291.82C56.4062 291.82 55.2969 292.891 55.2969 294.359V294.367Z" fill="#160A29"/>
<path d="M106.25 298V288.289H106.125L103.258 290.367V288.883L106.258 286.727H107.656V298H106.25ZM111.383 298L116.445 288.094V287.984H110.414V286.727H117.875V288.031L112.859 298H111.383Z" fill="#160A29"/>
<path d="M162.195 298V288.289H162.07L159.203 290.367V288.883L162.203 286.727H163.602V298H162.195ZM170.711 298.188C168.32 298.188 166.617 296.844 166.617 294.953V294.938C166.617 293.547 167.594 292.391 169.039 292.055V292.023C167.805 291.641 167.023 290.703 167.023 289.516V289.5C167.023 287.797 168.578 286.539 170.711 286.539C172.844 286.539 174.398 287.797 174.398 289.5V289.516C174.398 290.703 173.617 291.641 172.383 292.023V292.055C173.828 292.391 174.805 293.547 174.805 294.938V294.953C174.805 296.844 173.102 298.188 170.711 298.188ZM170.711 291.5C172.07 291.5 173 290.727 173 289.633V289.617C173 288.523 172.07 287.75 170.711 287.75C169.352 287.75 168.422 288.523 168.422 289.617V289.633C168.422 290.727 169.352 291.5 170.711 291.5ZM170.711 296.961C172.266 296.961 173.375 296.086 173.375 294.867V294.852C173.375 293.617 172.273 292.734 170.711 292.734C169.148 292.734 168.047 293.617 168.047 294.852V294.867C168.047 296.086 169.156 296.961 170.711 296.961Z" fill="#160A29"/>
<path d="M218.711 298V288.289H218.586L215.719 290.367V288.883L218.719 286.727H220.117V298H218.711ZM227.062 286.461C229.125 286.461 231.305 287.914 231.305 292.156V292.172C231.305 296.016 229.703 298.266 226.969 298.266C225.078 298.266 223.672 297.156 223.289 295.492L223.266 295.391H224.68L224.711 295.477C225.055 296.422 225.844 297.008 226.984 297.008C229.031 297.008 229.867 295.008 229.953 292.656C229.961 292.57 229.961 292.477 229.961 292.391H229.812C229.398 293.312 228.336 294.133 226.812 294.133C224.695 294.133 223.117 292.523 223.117 290.359V290.344C223.117 288.094 224.789 286.461 227.062 286.461ZM227.055 292.906C228.516 292.906 229.625 291.836 229.625 290.367V290.359C229.625 288.875 228.508 287.703 227.078 287.703C225.664 287.703 224.531 288.852 224.531 290.312V290.328C224.531 291.828 225.594 292.906 227.055 292.906Z" fill="#160A29"/>
<path d="M271.391 298V297.031L275.203 292.906C276.641 291.352 277.062 290.766 277.062 289.781V289.766C277.062 288.578 276.258 287.688 274.93 287.688C273.578 287.688 272.68 288.57 272.68 289.898L272.672 289.914L271.328 289.906L271.312 289.898C271.32 287.898 272.867 286.461 275.023 286.461C276.992 286.461 278.5 287.797 278.5 289.617V289.633C278.5 290.922 277.945 291.859 275.906 293.961L273.344 296.609V296.734H278.688V298H271.391ZM284.82 298.266C282.328 298.266 280.844 295.992 280.844 292.367V292.352C280.844 288.727 282.328 286.461 284.82 286.461C287.312 286.461 288.812 288.727 288.812 292.352V292.367C288.812 295.992 287.312 298.266 284.82 298.266ZM284.82 297.039C286.438 297.039 287.398 295.242 287.398 292.367V292.352C287.398 289.477 286.438 287.695 284.82 287.695C283.203 287.695 282.258 289.477 282.258 292.352V292.367C282.258 295.242 283.203 297.039 284.82 297.039Z" fill="#160A29"/>
<path d="M331.719 298V297.031L335.531 292.906C336.969 291.352 337.391 290.766 337.391 289.781V289.766C337.391 288.578 336.586 287.688 335.258 287.688C333.906 287.688 333.008 288.57 333.008 289.898L333 289.914L331.656 289.906L331.641 289.898C331.648 287.898 333.195 286.461 335.352 286.461C337.32 286.461 338.828 287.797 338.828 289.617V289.633C338.828 290.922 338.273 291.859 336.234 293.961L333.672 296.609V296.734H339.016V298H331.719ZM344.133 298V288.289H344.008L341.141 290.367V288.883L344.141 286.727H345.539V298H344.133Z" fill="#FEFEFE"/>
<path d="M387.602 298V297.031L391.414 292.906C392.852 291.352 393.273 290.766 393.273 289.781V289.766C393.273 288.578 392.469 287.688 391.141 287.688C389.789 287.688 388.891 288.57 388.891 289.898L388.883 289.914L387.539 289.906L387.523 289.898C387.531 287.898 389.078 286.461 391.234 286.461C393.203 286.461 394.711 287.797 394.711 289.617V289.633C394.711 290.922 394.156 291.859 392.117 293.961L389.555 296.609V296.734H394.898V298H387.602ZM397.258 298V297.031L401.07 292.906C402.508 291.352 402.93 290.766 402.93 289.781V289.766C402.93 288.578 402.125 287.688 400.797 287.688C399.445 287.688 398.547 288.57 398.547 289.898L398.539 289.914L397.195 289.906L397.18 289.898C397.188 287.898 398.734 286.461 400.891 286.461C402.859 286.461 404.367 287.797 404.367 289.617V289.633C404.367 290.922 403.812 291.859 401.773 293.961L399.211 296.609V296.734H404.555V298H397.258Z" fill="#FEFEFE"/>
<rect x="19.5" y="78.5" width="411" height="255" rx="7.5" stroke="#F4F5F6"/>
</g>
<rect x="0.5" y="0.5" width="448" height="319" rx="7.5" stroke="#F4F5F6"/>
<defs>
<linearGradient id="paint0_linear_1059_12228" x1="-188.046" y1="860.515" x2="-69.4165" y2="-201.851" gradientUnits="userSpaceOnUse">
<stop stop-color="#D8DCE7" stop-opacity="0.48"/>
<stop offset="0.489583" stop-color="#D8DCE7" stop-opacity="0.41"/>
<stop offset="0.635417" stop-color="#D8DCE7"/>
<stop offset="1" stop-color="#D8DCE7" stop-opacity="0"/>
</linearGradient>
<linearGradient id="paint1_linear_1059_12228" x1="-130.049" y1="842.444" x2="-11.4199" y2="-219.922" gradientUnits="userSpaceOnUse">
<stop stop-color="#D8DCE7" stop-opacity="0.48"/>
<stop offset="0.489583" stop-color="#D8DCE7" stop-opacity="0.41"/>
<stop offset="0.635417" stop-color="#D8DCE7"/>
<stop offset="1" stop-color="#D8DCE7" stop-opacity="0"/>
</linearGradient>
<linearGradient id="paint2_linear_1059_12228" x1="-71.5005" y1="826.253" x2="47.1289" y2="-236.113" gradientUnits="userSpaceOnUse">
<stop stop-color="#D8DCE7" stop-opacity="0.48"/>
<stop offset="0.489583" stop-color="#D8DCE7" stop-opacity="0.41"/>
<stop offset="0.635417" stop-color="#D8DCE7"/>
<stop offset="1" stop-color="#D8DCE7" stop-opacity="0"/>
</linearGradient>
<linearGradient id="paint3_linear_1059_12228" x1="-12.4077" y1="812.179" x2="106.222" y2="-250.187" gradientUnits="userSpaceOnUse">
<stop stop-color="#D8DCE7" stop-opacity="0.48"/>
<stop offset="0.489583" stop-color="#D8DCE7" stop-opacity="0.41"/>
<stop offset="0.635417" stop-color="#D8DCE7"/>
<stop offset="1" stop-color="#D8DCE7" stop-opacity="0"/>
</linearGradient>
<linearGradient id="paint4_linear_1059_12228" x1="47.209" y1="800.517" x2="165.838" y2="-261.848" gradientUnits="userSpaceOnUse">
<stop stop-color="#D8DCE7" stop-opacity="0.48"/>
<stop offset="0.489583" stop-color="#D8DCE7" stop-opacity="0.41"/>
<stop offset="0.635417" stop-color="#D8DCE7"/>
<stop offset="1" stop-color="#D8DCE7" stop-opacity="0"/>
</linearGradient>
<linearGradient id="paint5_linear_1059_12228" x1="107.303" y1="791.645" x2="225.933" y2="-270.72" gradientUnits="userSpaceOnUse">
<stop stop-color="#D8DCE7" stop-opacity="0.48"/>
<stop offset="0.489583" stop-color="#D8DCE7" stop-opacity="0.41"/>
<stop offset="0.635417" stop-color="#D8DCE7"/>
<stop offset="1" stop-color="#D8DCE7" stop-opacity="0"/>
</linearGradient>
<linearGradient id="paint6_linear_1059_12228" x1="167.791" y1="786.034" x2="286.42" y2="-276.331" gradientUnits="userSpaceOnUse">
<stop stop-color="#D8DCE7" stop-opacity="0.48"/>
<stop offset="0.489583" stop-color="#D8DCE7" stop-opacity="0.41"/>
<stop offset="0.635417" stop-color="#D8DCE7"/>
<stop offset="1" stop-color="#D8DCE7" stop-opacity="0"/>
</linearGradient>
<linearGradient id="paint7_linear_1059_12228" x1="228.511" y1="784.279" x2="347.141" y2="-278.086" gradientUnits="userSpaceOnUse">
<stop stop-color="#D8DCE7" stop-opacity="0.48"/>
<stop offset="0.489583" stop-color="#D8DCE7" stop-opacity="0.41"/>
<stop offset="0.635417" stop-color="#D8DCE7"/>
<stop offset="1" stop-color="#D8DCE7" stop-opacity="0"/>
</linearGradient>
<linearGradient id="paint8_linear_1059_12228" x1="289.191" y1="787.117" x2="407.82" y2="-275.249" gradientUnits="userSpaceOnUse">
<stop stop-color="#D8DCE7" stop-opacity="0.48"/>
<stop offset="0.489583" stop-color="#D8DCE7" stop-opacity="0.41"/>
<stop offset="0.635417" stop-color="#D8DCE7"/>
<stop offset="1" stop-color="#D8DCE7" stop-opacity="0"/>
</linearGradient>
<linearGradient id="paint9_linear_1059_12228" x1="349.364" y1="795.438" x2="467.994" y2="-266.928" gradientUnits="userSpaceOnUse">
<stop stop-color="#D8DCE7" stop-opacity="0.48"/>
<stop offset="0.489583" stop-color="#D8DCE7" stop-opacity="0.41"/>
<stop offset="0.635417" stop-color="#D8DCE7"/>
<stop offset="1" stop-color="#D8DCE7" stop-opacity="0"/>
</linearGradient>
<linearGradient id="paint10_linear_1059_12228" x1="408.277" y1="810.249" x2="526.907" y2="-252.116" gradientUnits="userSpaceOnUse">
<stop stop-color="#D8DCE7" stop-opacity="0.48"/>
<stop offset="0.489583" stop-color="#D8DCE7" stop-opacity="0.41"/>
<stop offset="0.635417" stop-color="#D8DCE7"/>
<stop offset="1" stop-color="#D8DCE7" stop-opacity="0"/>
</linearGradient>
<linearGradient id="paint11_linear_1059_12228" x1="464.79" y1="832.531" x2="583.419" y2="-229.835" gradientUnits="userSpaceOnUse">
<stop stop-color="#D8DCE7" stop-opacity="0.48"/>
<stop offset="0.489583" stop-color="#D8DCE7" stop-opacity="0.41"/>
<stop offset="0.635417" stop-color="#D8DCE7"/>
<stop offset="1" stop-color="#D8DCE7" stop-opacity="0"/>
</linearGradient>
<linearGradient id="paint12_linear_1059_12228" x1="526.918" y1="868.328" x2="645.547" y2="-194.037" gradientUnits="userSpaceOnUse">
<stop stop-color="#D8DCE7" stop-opacity="0.48"/>
<stop offset="0.489583" stop-color="#D8DCE7" stop-opacity="0.41"/>
<stop offset="0.635417" stop-color="#D8DCE7"/>
<stop offset="1" stop-color="#D8DCE7" stop-opacity="0"/>
</linearGradient>
<radialGradient id="paint13_radial_1059_12228" cx="0" cy="0" r="1" gradientUnits="userSpaceOnUse" gradientTransform="translate(260.424 200.427) rotate(90) scale(283.613 305.328)">
<stop stop-color="#6658DB"/>
<stop offset="1" stop-color="#6658DB" stop-opacity="0"/>
</radialGradient>
<clipPath id="clip0_1059_12228">
<rect width="449" height="320" rx="8" fill="white"/>
</clipPath>
<clipPath id="clip1_1059_12228">
<path d="M-627 -2853C-627 -2859.63 -621.627 -2865 -615 -2865H873C879.627 -2865 885 -2859.63 885 -2853V622H-627V-2853Z" fill="white"/>
</clipPath>
</defs>
</svg>
