<svg xmlns="http://www.w3.org/2000/svg" width="449" height="320" fill="none"><g clip-path="url(#a)"><rect width="449" height="320" fill="#fff" rx="8"/><rect width="449" height="320" fill="#000" fill-opacity=".03" rx="8"/><g clip-path="url(#b)"><path fill="#FEFEFE" d="M-627-2853c0-6.63 5.373-12 12-12H873c6.627 0 12 5.37 12 12V622H-627v-3475Z"/><g stroke-opacity=".5" stroke-width="2" opacity=".4"><path stroke="url(#c)" d="M-217.345 857.243c39.318-8.662 120.296-56.47 129.658-178.407 11.703-152.421-92.28-260.233-104.933-406.672-9.339-108.083 23.23-372.541 164.57-469.396"/><path stroke="url(#d)" d="M-159.349 839.172c39.319-8.662 120.296-56.47 129.658-178.407 11.703-152.421-92.279-260.233-104.932-406.672-9.339-108.083 23.229-372.541 164.568-469.395"/><path stroke="url(#e)" d="M-100.8 822.981c39.318-8.662 120.296-56.47 129.658-178.407 11.703-152.421-92.28-260.233-104.933-406.672-9.339-108.083 23.23-372.541 164.57-469.395"/><path stroke="url(#f)" d="M-41.707 808.907c39.32-8.662 120.297-56.47 129.659-178.407C99.654 478.079-4.328 370.267-16.981 223.828-26.32 115.745 6.25-148.713 147.588-245.568"/><path stroke="url(#g)" d="M17.91 797.246c39.318-8.662 120.296-56.47 129.658-178.407 11.703-152.421-92.28-260.233-104.933-406.672-9.339-108.083 23.23-372.541 164.569-469.396"/><path stroke="url(#h)" d="M78.004 788.373c39.319-8.662 120.297-56.47 129.659-178.406 11.702-152.422-92.28-260.234-104.933-406.673-9.339-108.083 23.23-372.541 164.569-469.395"/><path stroke="url(#i)" d="M138.491 782.762c39.318-8.661 120.296-56.469 129.658-178.406 11.703-152.421-92.28-260.233-104.933-406.673-9.339-108.083 23.23-372.541 164.569-469.395"/><path stroke="url(#j)" d="M199.211 781.008c39.319-8.662 120.297-56.47 129.659-178.407 11.702-152.421-92.28-260.233-104.933-406.673-9.339-108.083 23.23-372.541 164.569-469.395"/><path stroke="url(#k)" d="M259.891 783.845c39.319-8.662 120.297-56.47 129.659-178.407 11.702-152.421-92.28-260.233-104.933-406.672-9.339-108.083 23.23-372.541 164.569-469.396"/><path stroke="url(#l)" d="M320.065 792.166c39.319-8.662 120.296-56.47 129.658-178.406 11.703-152.422-92.279-260.234-104.932-406.673-9.339-108.083 23.229-372.541 164.568-469.395"/><path stroke="url(#m)" d="M378.978 806.977c39.319-8.662 120.296-56.469 129.658-178.406 11.703-152.422-92.279-260.234-104.932-406.673-9.339-108.083 23.23-372.541 164.569-469.395"/><path stroke="url(#n)" d="M435.491 829.259c39.318-8.662 120.296-56.47 129.658-178.407 11.703-152.421-92.28-260.233-104.933-406.672-9.339-108.083 23.23-372.541 164.569-469.396"/><path stroke="url(#o)" d="M497.619 865.056c39.318-8.661 120.296-56.469 129.658-178.406 11.703-152.422-92.28-260.234-104.933-406.673-9.339-108.083 23.23-372.54 164.569-469.395"/></g><circle cx="260.424" cy="200.427" r="299.083" fill="url(#p)" fill-opacity=".22" transform="rotate(-173.628 260.424 200.427)"/></g><rect width="399" height="226" x="25.5" y="47.5" fill="#FEFEFE" rx="11.5"/><path fill="#6658DB" d="M64.617 100.352c-3.994 0-6.474-2.833-6.474-7.383v-.02c0-4.57 2.47-7.392 6.464-7.392 3.204 0 5.635 2.03 5.967 4.912v.078h-2.47l-.01-.04c-.362-1.67-1.71-2.773-3.487-2.773-2.392 0-3.886 2.002-3.886 5.206v.019c0 3.213 1.494 5.215 3.896 5.215 1.787 0 3.115-.996 3.477-2.549l.01-.049h2.47v.069c-.37 2.822-2.705 4.707-5.957 4.707Zm12.051-.137c-2.402 0-3.633-1.446-3.633-3.984v-6.905h2.432v6.348c0 1.65.615 2.49 2.08 2.49 1.572 0 2.412-1.016 2.412-2.617v-6.22h2.432V100h-2.432v-1.621h-.166c-.498 1.142-1.582 1.836-3.125 1.836Zm8.691-.215V89.326h2.432v1.64h.166c.361-1.142 1.338-1.816 2.744-1.816.371 0 .752.05.987.118v2.177a6.133 6.133 0 0 0-1.211-.136c-1.621 0-2.686.966-2.686 2.49V100h-2.432Zm8.457 0V89.326h2.432v1.64h.166c.361-1.142 1.338-1.816 2.744-1.816.371 0 .752.05.987.118v2.177a6.143 6.143 0 0 0-1.211-.136c-1.621 0-2.686.966-2.686 2.49V100h-2.432Zm12.618.215c-3.174 0-5.098-2.13-5.098-5.528v-.01c0-3.359 1.943-5.556 4.98-5.556 3.038 0 4.913 2.129 4.913 5.352v.8h-7.461c.029 1.915 1.064 3.028 2.714 3.028 1.319 0 2.071-.664 2.305-1.153l.029-.068h2.315l-.029.088c-.342 1.377-1.768 3.047-4.668 3.047Zm-.088-9.19c-1.358 0-2.373.918-2.559 2.618h5.068c-.166-1.749-1.152-2.618-2.509-2.618ZM113.66 100V89.326h2.432v1.631h.166c.508-1.142 1.533-1.836 3.076-1.836 2.383 0 3.682 1.436 3.682 3.975V100h-2.432v-6.338c0-1.66-.674-2.5-2.148-2.5-1.446 0-2.344 1.016-2.344 2.617V100h-2.432Zm16.426.049c-2.451 0-3.457-.82-3.457-2.881v-5.957h-1.66v-1.885h1.66V86.71h2.471v2.617h2.255v1.885H129.1v5.38c0 1.065.42 1.515 1.435 1.515.342 0 .527-.01.82-.04v1.875c-.351.069-.8.108-1.269.108Zm14.961.127c-1.494 0-2.656-.684-3.242-1.846h-.166V100h-2.432V85.195h2.432v5.83h.166c.556-1.152 1.777-1.875 3.242-1.875 2.705 0 4.385 2.11 4.385 5.508v.02c0 3.379-1.709 5.498-4.385 5.498Zm-.762-2.051c1.66 0 2.666-1.299 2.666-3.447v-.02c0-2.148-1.006-3.457-2.666-3.457-1.65 0-2.676 1.319-2.676 3.457v.02c0 2.138 1.026 3.447 2.676 3.447Zm10.488 2.051c-2.031 0-3.505-1.25-3.505-3.194v-.02c0-1.903 1.455-3.017 4.052-3.173l2.744-.166v-.918c0-1.064-.693-1.65-2.002-1.65-1.113 0-1.835.4-2.08 1.103l-.009.04h-2.295l.01-.089c.234-1.796 1.953-2.988 4.492-2.988 2.744 0 4.287 1.328 4.287 3.584V100h-2.403v-1.465h-.166c-.586 1.035-1.718 1.641-3.125 1.641Zm-1.103-3.31c0 .907.771 1.445 1.846 1.445 1.464 0 2.548-.958 2.548-2.227v-.86l-2.402.157c-1.357.088-1.992.586-1.992 1.465v.02Zm9.814 3.134V85.195h2.432V100h-2.432Zm8.418.176c-2.031 0-3.506-1.25-3.506-3.194v-.02c0-1.903 1.456-3.017 4.053-3.173l2.744-.166v-.918c0-1.064-.693-1.65-2.002-1.65-1.113 0-1.836.4-2.08 1.103l-.009.04h-2.295l.009-.089c.235-1.796 1.954-2.988 4.493-2.988 2.744 0 4.287 1.328 4.287 3.584V100h-2.403v-1.465h-.166c-.586 1.035-1.718 1.641-3.125 1.641Zm-1.103-3.31c0 .907.771 1.445 1.846 1.445 1.464 0 2.548-.958 2.548-2.227v-.86l-2.402.157c-1.357.088-1.992.586-1.992 1.465v.02Zm9.717 3.134V89.326h2.431v1.631h.166c.508-1.142 1.533-1.836 3.076-1.836 2.383 0 3.682 1.436 3.682 3.975V100h-2.432v-6.338c0-1.66-.673-2.5-2.148-2.5-1.445 0-2.344 1.016-2.344 2.617V100h-2.431Zm16.806.215c-3.213 0-5.107-2.08-5.107-5.567v-.02c0-3.446 1.885-5.507 5.097-5.507 2.745 0 4.385 1.523 4.659 3.73v.04h-2.295l-.01-.03c-.225-1.035-1.016-1.777-2.344-1.777-1.66 0-2.636 1.309-2.636 3.545v.02c0 2.265.986 3.593 2.636 3.593 1.26 0 2.032-.576 2.334-1.699l.02-.04 2.295-.009-.02.078c-.351 2.188-1.924 3.643-4.629 3.643Zm11.533 0c-3.173 0-5.097-2.13-5.097-5.528v-.01c0-3.359 1.943-5.556 4.98-5.556 3.037 0 4.912 2.129 4.912 5.352v.8h-7.461c.03 1.915 1.065 3.028 2.715 3.028 1.319 0 2.071-.664 2.305-1.153l.029-.068h2.315l-.03.088c-.341 1.377-1.767 3.047-4.668 3.047Zm-.087-9.19c-1.358 0-2.373.918-2.559 2.618h5.068c-.166-1.749-1.152-2.618-2.509-2.618Z"/><path fill="#160A29" d="M68.356 160.631c-1.735 0-3.288-.27-4.659-.809-1.36-.551-2.455-1.342-3.287-2.373-.82-1.031-1.283-2.267-1.388-3.709l-.018-.246H63.1l.035.194c.117.644.375 1.23.773 1.757.399.528.967.944 1.705 1.248.75.293 1.7.44 2.848.44 1.16 0 2.098-.141 2.812-.422.727-.293 1.254-.691 1.583-1.195.34-.504.51-1.073.51-1.705v-.036c0-.832-.288-1.511-.862-2.039-.563-.527-1.64-.972-3.235-1.336l-2.847-.632c-1.524-.34-2.8-.803-3.832-1.389-1.031-.586-1.81-1.318-2.338-2.197-.527-.891-.791-1.94-.791-3.147V143c0-1.418.375-2.648 1.125-3.691.762-1.055 1.81-1.87 3.146-2.444 1.336-.574 2.86-.861 4.57-.861 1.7 0 3.2.275 4.5.826 1.313.551 2.356 1.336 3.13 2.356.785 1.019 1.23 2.232 1.336 3.638l.017.281H73.19l-.017-.158c-.106-.738-.37-1.359-.791-1.863-.422-.516-.979-.908-1.67-1.178-.692-.269-1.494-.404-2.408-.404-1.008 0-1.858.152-2.55.457-.679.293-1.194.686-1.546 1.178-.34.48-.51 1.002-.51 1.564v.018c0 .515.123.978.37 1.388.246.411.644.774 1.195 1.09.562.305 1.306.569 2.232.791l2.883.633c2.379.516 4.172 1.307 5.379 2.373 1.219 1.055 1.828 2.52 1.828 4.395v.035c0 1.547-.41 2.859-1.23 3.937-.81 1.067-1.91 1.881-3.305 2.444-1.383.55-2.947.826-4.694.826Zm-.95 2.918v-30.463h1.899v30.463h-1.899ZM81.644 161v-3.094l8.948-8.736c1.113-1.078 1.957-1.975 2.531-2.69.574-.726.967-1.371 1.178-1.933a4.918 4.918 0 0 0 .334-1.793v-.035c0-.762-.182-1.43-.545-2.004a3.628 3.628 0 0 0-1.477-1.371c-.62-.34-1.336-.51-2.144-.51-.938 0-1.77.193-2.496.58a4.438 4.438 0 0 0-1.705 1.547c-.41.644-.621 1.377-.633 2.197v.123H81.38v-.123c0-1.547.398-2.918 1.195-4.113.797-1.195 1.875-2.133 3.235-2.813 1.37-.691 2.912-1.037 4.623-1.037 1.687 0 3.181.317 4.482.95 1.3.621 2.315 1.482 3.041 2.584.738 1.089 1.108 2.332 1.108 3.726v.035a7.16 7.16 0 0 1-.546 2.795c-.351.867-.955 1.811-1.81 2.83-.844 1.02-2.016 2.244-3.516 3.674l-7.207 6.873 1.635-2.988v2.988l-1.617-1.371H99.45V161H81.645Zm30.323.439c-1.852 0-3.469-.31-4.852-.931-1.383-.621-2.478-1.471-3.287-2.549-.797-1.09-1.26-2.338-1.389-3.744l-.017-.229h4.324l.035.194c.082.691.346 1.306.791 1.845.446.528 1.043.944 1.793 1.248.75.305 1.617.457 2.602.457.984 0 1.84-.164 2.566-.492.738-.34 1.307-.802 1.705-1.388.41-.586.616-1.266.616-2.039v-.036c0-1.336-.463-2.361-1.389-3.076-.914-.715-2.186-1.072-3.815-1.072h-3.005v-3.375h2.9c.937 0 1.752-.164 2.443-.492.703-.328 1.248-.774 1.635-1.336a3.374 3.374 0 0 0 .598-1.969v-.035c0-.774-.17-1.424-.51-1.951-.34-.539-.832-.949-1.477-1.231-.632-.293-1.4-.439-2.302-.439-.891 0-1.682.146-2.373.439-.68.293-1.225.709-1.635 1.248-.41.528-.656 1.155-.738 1.881l-.018.176h-4.201l.017-.211c.129-1.43.575-2.678 1.336-3.744.774-1.067 1.811-1.899 3.112-2.496 1.3-.598 2.8-.897 4.5-.897 1.746 0 3.263.282 4.552.844 1.301.551 2.303 1.324 3.006 2.32.715.985 1.072 2.139 1.072 3.463v.035c0 1.043-.234 1.969-.703 2.778a5.945 5.945 0 0 1-1.916 1.986 7.725 7.725 0 0 1-2.707 1.108v.087c1.875.176 3.381.797 4.518 1.864 1.137 1.054 1.705 2.461 1.705 4.218v.036c0 1.464-.404 2.765-1.213 3.902-.797 1.125-1.904 2.01-3.322 2.654-1.418.633-3.07.949-4.957.949Zm11.549 4.747 1.388-9.317h4.237l-2.567 9.317h-3.058ZM145.312 161v-4.887h-12.656v-3.849a924.224 924.224 0 0 0 2.11-3.323c.703-1.113 1.406-2.22 2.109-3.322.703-1.113 1.4-2.221 2.092-3.322a802.466 802.466 0 0 1 2.109-3.322l2.11-3.34h6.451v16.787h3.427v3.691h-3.427V161h-4.325Zm-8.578-8.49h8.649v-13.448h-.106l-1.722 2.672c-.563.879-1.131 1.764-1.705 2.655-.563.89-1.131 1.781-1.705 2.672l-1.723 2.671a512.47 512.47 0 0 0-1.688 2.655v.123Zm28.776 8.929c-2.074 0-3.856-.533-5.344-1.599-1.488-1.067-2.631-2.578-3.428-4.535-.797-1.969-1.195-4.295-1.195-6.979v-.035c0-2.684.398-5.004 1.195-6.961.797-1.969 1.94-3.48 3.428-4.535 1.488-1.066 3.27-1.6 5.344-1.6 2.062 0 3.838.534 5.326 1.6 1.5 1.055 2.648 2.566 3.445 4.535.797 1.957 1.196 4.277 1.196 6.961v.035c0 2.684-.399 5.01-1.196 6.979-.797 1.957-1.945 3.468-3.445 4.535-1.488 1.066-3.264 1.599-5.326 1.599Zm0-3.709c1.136 0 2.109-.375 2.918-1.125.808-.75 1.424-1.828 1.845-3.234.422-1.406.633-3.088.633-5.045v-.035c0-1.957-.211-3.633-.633-5.027-.421-1.407-1.037-2.479-1.845-3.217-.809-.75-1.782-1.125-2.918-1.125-1.149 0-2.127.375-2.936 1.125-.797.738-1.406 1.81-1.828 3.217-.422 1.394-.633 3.07-.633 5.027v.035c0 1.957.211 3.639.633 5.045.422 1.406 1.031 2.484 1.828 3.234.809.75 1.787 1.125 2.936 1.125Zm22.957 3.709c-2.074 0-3.856-.533-5.344-1.599-1.488-1.067-2.631-2.578-3.428-4.535-.797-1.969-1.195-4.295-1.195-6.979v-.035c0-2.684.398-5.004 1.195-6.961.797-1.969 1.94-3.48 3.428-4.535 1.488-1.066 3.27-1.6 5.344-1.6 2.062 0 3.838.534 5.326 1.6 1.5 1.055 2.648 2.566 3.445 4.535.797 1.957 1.196 4.277 1.196 6.961v.035c0 2.684-.399 5.01-1.196 6.979-.797 1.957-1.945 3.468-3.445 4.535-1.488 1.066-3.264 1.599-5.326 1.599Zm0-3.709c1.137 0 2.109-.375 2.918-1.125.808-.75 1.424-1.828 1.845-3.234.422-1.406.633-3.088.633-5.045v-.035c0-1.957-.211-3.633-.633-5.027-.421-1.407-1.037-2.479-1.845-3.217-.809-.75-1.781-1.125-2.918-1.125-1.149 0-2.127.375-2.936 1.125-.797.738-1.406 1.81-1.828 3.217-.422 1.394-.633 3.07-.633 5.027v.035c0 1.957.211 3.639.633 5.045.422 1.406 1.031 2.484 1.828 3.234.809.75 1.787 1.125 2.936 1.125Zm14.836 3.551c-.715 0-1.319-.246-1.811-.738a2.441 2.441 0 0 1-.738-1.793c0-.715.246-1.318.738-1.811.492-.492 1.096-.738 1.811-.738.703 0 1.301.246 1.793.738.492.493.738 1.096.738 1.811 0 .703-.246 1.301-.738 1.793a2.441 2.441 0 0 1-1.793.738Zm15.328.158c-2.074 0-3.856-.533-5.344-1.599-1.488-1.067-2.631-2.578-3.428-4.535-.797-1.969-1.195-4.295-1.195-6.979v-.035c0-2.684.398-5.004 1.195-6.961.797-1.969 1.94-3.48 3.428-4.535 1.488-1.066 3.27-1.6 5.344-1.6 2.062 0 3.838.534 5.326 1.6 1.5 1.055 2.648 2.566 3.445 4.535.797 1.957 1.196 4.277 1.196 6.961v.035c0 2.684-.399 5.01-1.196 6.979-.797 1.957-1.945 3.468-3.445 4.535-1.488 1.066-3.264 1.599-5.326 1.599Zm0-3.709c1.137 0 2.109-.375 2.918-1.125.808-.75 1.424-1.828 1.846-3.234.421-1.406.632-3.088.632-5.045v-.035c0-1.957-.211-3.633-.632-5.027-.422-1.407-1.038-2.479-1.846-3.217-.809-.75-1.781-1.125-2.918-1.125-1.149 0-2.127.375-2.936 1.125-.797.738-1.406 1.81-1.828 3.217-.422 1.394-.633 3.07-.633 5.027v.035c0 1.957.211 3.639.633 5.045.422 1.406 1.031 2.484 1.828 3.234.809.75 1.787 1.125 2.936 1.125Zm22.957 3.709c-2.074 0-3.856-.533-5.344-1.599-1.488-1.067-2.631-2.578-3.428-4.535-.796-1.969-1.195-4.295-1.195-6.979v-.035c0-2.684.399-5.004 1.195-6.961.797-1.969 1.94-3.48 3.428-4.535 1.488-1.066 3.27-1.6 5.344-1.6 2.062 0 3.838.534 5.326 1.6 1.5 1.055 2.648 2.566 3.445 4.535.797 1.957 1.196 4.277 1.196 6.961v.035c0 2.684-.399 5.01-1.196 6.979-.797 1.957-1.945 3.468-3.445 4.535-1.488 1.066-3.264 1.599-5.326 1.599Zm0-3.709c1.137 0 2.109-.375 2.918-1.125.808-.75 1.424-1.828 1.846-3.234.421-1.406.632-3.088.632-5.045v-.035c0-1.957-.211-3.633-.632-5.027-.422-1.407-1.038-2.479-1.846-3.217-.809-.75-1.781-1.125-2.918-1.125-1.149 0-2.127.375-2.936 1.125-.797.738-1.406 1.81-1.828 3.217-.422 1.394-.633 3.07-.633 5.027v.035c0 1.957.211 3.639.633 5.045.422 1.406 1.031 2.484 1.828 3.234.809.75 1.787 1.125 2.936 1.125Z"/><rect width="336" height="48" x="57" y="194" fill="#6658DB" rx="6"/><path fill="#FEFEFE" d="m175.945 224-3.039-11.273h1.821l2.07 8.765h.109l2.352-8.765h1.625l2.367 8.765h.109l2.063-8.765h1.82L184.195 224h-1.648l-2.422-8.43h-.109l-2.414 8.43h-1.657Zm14.102-10a1.063 1.063 0 0 1-1.063-1.055c0-.586.477-1.062 1.063-1.062.578 0 1.062.476 1.062 1.062 0 .578-.484 1.055-1.062 1.055Zm-.852 10v-8.484h1.688V224h-1.688Zm7.36.055c-1.867 0-2.633-.657-2.633-2.289v-4.914h-1.328v-1.336h1.328v-2.141h1.726v2.141h1.821v1.336h-1.821v4.507c0 .914.344 1.289 1.18 1.289.258 0 .406-.007.641-.031v1.352a5.419 5.419 0 0 1-.914.086Zm2.968-.055v-11.812h1.696v4.617h.125c.414-.907 1.226-1.453 2.461-1.453 1.898 0 2.945 1.132 2.945 3.156V224h-1.688v-5.094c0-1.406-.585-2.101-1.828-2.101-1.242 0-2.015.851-2.015 2.218V224h-1.696Zm12.688.141c-2.133 0-3.516-1.711-3.516-4.375v-.016c0-2.688 1.36-4.383 3.516-4.383 1.164 0 2.156.578 2.609 1.492h.133v-4.671h1.688V224h-1.688v-1.336h-.133c-.492.93-1.422 1.477-2.609 1.477Zm.484-1.446c1.414 0 2.282-1.117 2.282-2.929v-.016c0-1.812-.875-2.93-2.282-2.93-1.422 0-2.273 1.11-2.273 2.93v.016c0 1.82.851 2.929 2.273 2.929Zm6.469 1.305v-8.484h1.695v1.281h.125c.305-.899 1.094-1.43 2.227-1.43.273 0 .57.039.742.078v1.563a4.398 4.398 0 0 0-.914-.102c-1.297 0-2.18.797-2.18 2.024V224h-1.695Zm8.672.141c-1.617 0-2.813-.985-2.813-2.524v-.015c0-1.516 1.141-2.399 3.165-2.524l2.296-.133v-.75c0-.929-.586-1.445-1.734-1.445-.938 0-1.555.344-1.758.945l-.008.032h-1.632l.007-.055c.203-1.391 1.539-2.32 3.469-2.32 2.133 0 3.336 1.062 3.336 2.843V224h-1.68v-1.203h-.132c-.5.859-1.391 1.344-2.516 1.344Zm-1.125-2.594c0 .781.664 1.242 1.578 1.242 1.266 0 2.195-.828 2.195-1.922v-.726l-2.07.132c-1.172.071-1.703.493-1.703 1.258v.016Zm9.117 2.453-2.344-8.484h1.704l1.523 6.546h.125l1.75-6.546h1.609l1.75 6.546h.133l1.516-6.546h1.679L242.938 224h-1.743l-1.757-6.328h-.133l-1.75 6.328h-1.727Z"/><path stroke="#FEFEFE" stroke-linecap="round" stroke-linejoin="round" stroke-miterlimit="10" stroke-width="1.5" d="M273.008 220.145v-7.154h-7.153M262.991 223.008l9.917-9.917"/><rect width="399" height="226" x="25.5" y="47.5" stroke="#D8DCE7" rx="11.5"/></g><rect width="448" height="319" x=".5" y=".5" stroke="#F4F5F6" rx="7.5"/><defs><linearGradient id="c" x1="-188.046" x2="-69.417" y1="860.515" y2="-201.851" gradientUnits="userSpaceOnUse"><stop stop-color="#D8DCE7" stop-opacity=".48"/><stop offset=".49" stop-color="#D8DCE7" stop-opacity=".41"/><stop offset=".635" stop-color="#D8DCE7"/><stop offset="1" stop-color="#D8DCE7" stop-opacity="0"/></linearGradient><linearGradient id="d" x1="-130.05" x2="-11.421" y1="842.444" y2="-219.922" gradientUnits="userSpaceOnUse"><stop stop-color="#D8DCE7" stop-opacity=".48"/><stop offset=".49" stop-color="#D8DCE7" stop-opacity=".41"/><stop offset=".635" stop-color="#D8DCE7"/><stop offset="1" stop-color="#D8DCE7" stop-opacity="0"/></linearGradient><linearGradient id="e" x1="-71.501" x2="47.128" y1="826.253" y2="-236.113" gradientUnits="userSpaceOnUse"><stop stop-color="#D8DCE7" stop-opacity=".48"/><stop offset=".49" stop-color="#D8DCE7" stop-opacity=".41"/><stop offset=".635" stop-color="#D8DCE7"/><stop offset="1" stop-color="#D8DCE7" stop-opacity="0"/></linearGradient><linearGradient id="f" x1="-12.408" x2="106.222" y1="812.179" y2="-250.187" gradientUnits="userSpaceOnUse"><stop stop-color="#D8DCE7" stop-opacity=".48"/><stop offset=".49" stop-color="#D8DCE7" stop-opacity=".41"/><stop offset=".635" stop-color="#D8DCE7"/><stop offset="1" stop-color="#D8DCE7" stop-opacity="0"/></linearGradient><linearGradient id="g" x1="47.209" x2="165.838" y1="800.517" y2="-261.848" gradientUnits="userSpaceOnUse"><stop stop-color="#D8DCE7" stop-opacity=".48"/><stop offset=".49" stop-color="#D8DCE7" stop-opacity=".41"/><stop offset=".635" stop-color="#D8DCE7"/><stop offset="1" stop-color="#D8DCE7" stop-opacity="0"/></linearGradient><linearGradient id="h" x1="107.303" x2="225.933" y1="791.645" y2="-270.72" gradientUnits="userSpaceOnUse"><stop stop-color="#D8DCE7" stop-opacity=".48"/><stop offset=".49" stop-color="#D8DCE7" stop-opacity=".41"/><stop offset=".635" stop-color="#D8DCE7"/><stop offset="1" stop-color="#D8DCE7" stop-opacity="0"/></linearGradient><linearGradient id="i" x1="167.79" x2="286.419" y1="786.034" y2="-276.331" gradientUnits="userSpaceOnUse"><stop stop-color="#D8DCE7" stop-opacity=".48"/><stop offset=".49" stop-color="#D8DCE7" stop-opacity=".41"/><stop offset=".635" stop-color="#D8DCE7"/><stop offset="1" stop-color="#D8DCE7" stop-opacity="0"/></linearGradient><linearGradient id="j" x1="228.51" x2="347.14" y1="784.279" y2="-278.086" gradientUnits="userSpaceOnUse"><stop stop-color="#D8DCE7" stop-opacity=".48"/><stop offset=".49" stop-color="#D8DCE7" stop-opacity=".41"/><stop offset=".635" stop-color="#D8DCE7"/><stop offset="1" stop-color="#D8DCE7" stop-opacity="0"/></linearGradient><linearGradient id="k" x1="289.19" x2="407.819" y1="787.117" y2="-275.249" gradientUnits="userSpaceOnUse"><stop stop-color="#D8DCE7" stop-opacity=".48"/><stop offset=".49" stop-color="#D8DCE7" stop-opacity=".41"/><stop offset=".635" stop-color="#D8DCE7"/><stop offset="1" stop-color="#D8DCE7" stop-opacity="0"/></linearGradient><linearGradient id="l" x1="349.364" x2="467.993" y1="795.438" y2="-266.928" gradientUnits="userSpaceOnUse"><stop stop-color="#D8DCE7" stop-opacity=".48"/><stop offset=".49" stop-color="#D8DCE7" stop-opacity=".41"/><stop offset=".635" stop-color="#D8DCE7"/><stop offset="1" stop-color="#D8DCE7" stop-opacity="0"/></linearGradient><linearGradient id="m" x1="408.277" x2="526.906" y1="810.249" y2="-252.116" gradientUnits="userSpaceOnUse"><stop stop-color="#D8DCE7" stop-opacity=".48"/><stop offset=".49" stop-color="#D8DCE7" stop-opacity=".41"/><stop offset=".635" stop-color="#D8DCE7"/><stop offset="1" stop-color="#D8DCE7" stop-opacity="0"/></linearGradient><linearGradient id="n" x1="464.79" x2="583.419" y1="832.531" y2="-229.835" gradientUnits="userSpaceOnUse"><stop stop-color="#D8DCE7" stop-opacity=".48"/><stop offset=".49" stop-color="#D8DCE7" stop-opacity=".41"/><stop offset=".635" stop-color="#D8DCE7"/><stop offset="1" stop-color="#D8DCE7" stop-opacity="0"/></linearGradient><linearGradient id="o" x1="526.918" x2="645.547" y1="868.328" y2="-194.037" gradientUnits="userSpaceOnUse"><stop stop-color="#D8DCE7" stop-opacity=".48"/><stop offset=".49" stop-color="#D8DCE7" stop-opacity=".41"/><stop offset=".635" stop-color="#D8DCE7"/><stop offset="1" stop-color="#D8DCE7" stop-opacity="0"/></linearGradient><clipPath id="a"><rect width="449" height="320" fill="#fff" rx="8"/></clipPath><clipPath id="b"><path fill="#fff" d="M-627-2853c0-6.63 5.373-12 12-12H873c6.627 0 12 5.37 12 12V622H-627v-3475Z"/></clipPath><radialGradient id="p" cx="0" cy="0" r="1" gradientTransform="matrix(0 283.613 -305.328 0 260.424 200.427)" gradientUnits="userSpaceOnUse"><stop stop-color="#6658DB"/><stop offset="1" stop-color="#6658DB" stop-opacity="0"/></radialGradient></defs></svg>