<svg width="449" height="320" viewBox="0 0 449 320" fill="none" xmlns="http://www.w3.org/2000/svg">
<g clip-path="url(#clip0_1048_9455)">
<rect width="449" height="320" rx="8" fill="white"/>
<g clip-path="url(#clip1_1048_9455)">
<path d="M-627 -2851C-627 -2857.63 -621.627 -2863 -615 -2863H873C879.627 -2863 885 -2857.63 885 -2851V624H-627V-2851Z" fill="#FEFEFE"/>
<g opacity="0.4">
<path d="M-217.345 859.243C-178.026 850.581 -97.0483 802.773 -87.6863 680.836C-75.9838 528.415 -179.966 420.603 -192.619 274.164C-201.958 166.081 -169.389 -98.3772 -28.0502 -195.232" stroke="url(#paint0_linear_1048_9455)" stroke-opacity="0.5" stroke-width="2"/>
<path d="M-159.348 841.172C-120.03 832.51 -39.0517 784.702 -29.6897 662.765C-17.9872 510.344 -121.969 402.532 -134.623 256.093C-143.961 148.01 -111.393 -116.448 29.9464 -213.302" stroke="url(#paint1_linear_1048_9455)" stroke-opacity="0.5" stroke-width="2"/>
<path d="M-100.799 824.981C-61.4807 816.319 19.4971 768.511 28.8591 646.574C40.5616 494.153 -63.4206 386.341 -76.0737 239.902C-85.4126 131.819 -52.8438 -132.639 88.4952 -229.493" stroke="url(#paint2_linear_1048_9455)" stroke-opacity="0.5" stroke-width="2"/>
<path d="M-41.7066 810.907C-2.38791 802.245 78.5899 754.437 87.9519 632.5C99.6544 480.079 -4.32783 372.267 -16.9809 225.828C-26.3198 117.745 6.24897 -146.713 147.588 -243.568" stroke="url(#paint3_linear_1048_9455)" stroke-opacity="0.5" stroke-width="2"/>
<path d="M17.9101 799.246C57.2288 790.584 138.207 742.776 147.569 620.839C159.271 468.418 55.2889 360.606 42.6358 214.167C33.2969 106.084 65.8657 -158.374 207.205 -255.229" stroke="url(#paint4_linear_1048_9455)" stroke-opacity="0.5" stroke-width="2"/>
<path d="M78.0044 790.373C117.323 781.711 198.301 733.903 207.663 611.967C219.365 459.545 115.383 351.733 102.73 205.294C93.3911 97.211 125.96 -167.247 267.299 -264.101" stroke="url(#paint5_linear_1048_9455)" stroke-opacity="0.5" stroke-width="2"/>
<path d="M138.492 784.762C177.81 776.101 258.788 728.293 268.15 606.356C279.853 453.935 175.87 346.123 163.217 199.683C153.878 91.6001 186.447 -172.858 327.786 -269.712" stroke="url(#paint6_linear_1048_9455)" stroke-opacity="0.5" stroke-width="2"/>
<path d="M199.212 783.008C238.531 774.346 319.509 726.538 328.871 604.601C340.573 452.18 236.591 344.368 223.938 197.928C214.599 89.8452 247.168 -174.613 388.507 -271.467" stroke="url(#paint7_linear_1048_9455)" stroke-opacity="0.5" stroke-width="2"/>
<path d="M259.892 785.845C299.211 777.183 380.189 729.375 389.551 607.438C401.253 455.017 297.271 347.205 284.618 200.766C275.279 92.6826 307.848 -171.775 449.187 -268.63" stroke="url(#paint8_linear_1048_9455)" stroke-opacity="0.5" stroke-width="2"/>
<path d="M320.065 794.166C359.384 785.504 440.362 737.696 449.724 615.76C461.426 463.338 357.444 355.526 344.791 209.087C335.452 101.004 368.021 -163.454 509.36 -260.308" stroke="url(#paint9_linear_1048_9455)" stroke-opacity="0.5" stroke-width="2"/>
<path d="M378.979 808.977C418.297 800.315 499.275 752.508 508.637 630.571C520.339 478.149 416.357 370.337 403.704 223.898C394.365 115.815 426.934 -148.643 568.273 -245.497" stroke="url(#paint10_linear_1048_9455)" stroke-opacity="0.5" stroke-width="2"/>
<path d="M435.491 831.259C474.81 822.597 555.788 774.789 565.15 652.852C576.852 500.431 472.87 392.619 460.217 246.18C450.878 138.097 483.447 -126.361 624.786 -223.216" stroke="url(#paint11_linear_1048_9455)" stroke-opacity="0.5" stroke-width="2"/>
<path d="M497.619 867.056C536.938 858.395 617.916 810.587 627.278 688.65C638.98 536.228 534.998 428.416 522.345 281.977C513.006 173.894 545.575 -90.5637 686.914 -187.418" stroke="url(#paint12_linear_1048_9455)" stroke-opacity="0.5" stroke-width="2"/>
</g>
<circle cx="260.424" cy="202.427" r="299.083" transform="rotate(-173.628 260.424 202.427)" fill="url(#paint13_radial_1048_9455)" fill-opacity="0.22"/>
</g>
<path d="M410 192L335.087 90.5L262.212 183.5L187.808 164L113.404 220.5L39 148.5" stroke="#4A3AD4"/>
<path d="M410 285H39V148.5L113.404 220.5L187.808 164L262.212 183.5L335.087 90.5L410 192V285Z" fill="url(#paint14_linear_1048_9455)"/>
<path fill-rule="evenodd" clip-rule="evenodd" d="M311.939 68C311.939 66.8954 311.044 66 309.939 66H218C216.895 66 216 66.8954 216 68V114C216 115.105 216.895 116 218 116H309.939C311.044 116 311.939 115.105 311.939 114V99.6039C311.939 98.9022 312.307 98.2518 312.908 97.8901L322.144 92.335C323.436 91.5577 323.436 89.6845 322.144 88.9073L312.908 83.3522C312.307 82.9905 311.939 82.34 311.939 81.6383V68Z" fill="#160A29"/>
<path d="M232.136 87.9844V86.8428C230.406 86.7061 229.039 85.7217 228.984 84.0947V84.0879L230.406 84.0811V84.0947C230.522 84.8877 231.035 85.4824 232.136 85.5986V82.6113L231.869 82.543C230.14 82.1396 229.203 81.3604 229.203 79.9795V79.9658C229.203 78.4414 230.42 77.4297 232.136 77.293V76.1445H232.942V77.293C234.638 77.4365 235.861 78.4893 235.923 80.0273V80.0342L234.508 80.041V80.0273C234.412 79.1797 233.811 78.6602 232.942 78.5371V81.4014L233.25 81.4766C235.048 81.8936 236.032 82.6318 236.032 84.0811V84.0947C236.032 85.7627 234.672 86.7129 232.942 86.8428V87.9844H232.136ZM230.646 79.8701C230.646 80.4785 231.056 80.9365 232.136 81.21V78.5371C231.158 78.667 230.646 79.2344 230.646 79.8564V79.8701ZM234.583 84.2178C234.583 83.5137 234.2 83.0967 232.942 82.7959V85.6055C234.098 85.5098 234.583 84.9561 234.583 84.2314V84.2178ZM240.517 87V78.7148H240.4L237.919 80.4854V78.9814L240.517 77.1357H242.048V87H240.517ZM245.261 87L249.608 78.5371V78.4277H244.44V77.1357H251.16V78.4619L246.867 87H245.261ZM251.201 89.5635L251.803 85.5508H253.382L252.247 89.5635H251.201ZM258.939 87.1846C256.834 87.1846 255.46 86.0293 255.33 84.3955L255.323 84.3135H256.786L256.793 84.3818C256.889 85.2773 257.716 85.9062 258.939 85.9062C260.143 85.9062 260.956 85.2295 260.956 84.2588V84.2451C260.956 83.1309 260.149 82.5088 258.837 82.5088H257.634V81.3193H258.789C259.917 81.3193 260.683 80.6562 260.683 79.7402V79.7266C260.683 78.7695 260.04 78.209 258.926 78.209C257.832 78.209 257.066 78.79 256.971 79.7197L256.964 79.7881H255.528L255.535 79.7129C255.686 78.0518 256.998 76.9512 258.926 76.9512C260.888 76.9512 262.173 78.0039 262.173 79.5283V79.542C262.173 80.7656 261.298 81.5859 260.095 81.8389V81.873C261.544 82.0029 262.515 82.8779 262.515 84.2588V84.2725C262.515 85.9678 261.031 87.1846 258.939 87.1846ZM267.936 87.1846C265.83 87.1846 264.456 86.0293 264.326 84.3955L264.319 84.3135H265.782L265.789 84.3818C265.885 85.2773 266.712 85.9062 267.936 85.9062C269.139 85.9062 269.952 85.2295 269.952 84.2588V84.2451C269.952 83.1309 269.146 82.5088 267.833 82.5088H266.63V81.3193H267.785C268.913 81.3193 269.679 80.6562 269.679 79.7402V79.7266C269.679 78.7695 269.036 78.209 267.922 78.209C266.828 78.209 266.062 78.79 265.967 79.7197L265.96 79.7881H264.524L264.531 79.7129C264.682 78.0518 265.994 76.9512 267.922 76.9512C269.884 76.9512 271.169 78.0039 271.169 79.5283V79.542C271.169 80.7656 270.294 81.5859 269.091 81.8389V81.873C270.54 82.0029 271.511 82.8779 271.511 84.2588V84.2725C271.511 85.9678 270.027 87.1846 267.936 87.1846ZM276.911 87.2393C274.635 87.2393 273.268 85.25 273.268 82.0713V82.0576C273.268 78.8789 274.635 76.8965 276.911 76.8965C279.181 76.8965 280.555 78.8789 280.555 82.0576V82.0713C280.555 85.25 279.181 87.2393 276.911 87.2393ZM276.911 85.9678C278.23 85.9678 279.01 84.4844 279.01 82.0713V82.0576C279.01 79.6445 278.23 78.1748 276.911 78.1748C275.585 78.1748 274.812 79.6445 274.812 82.0576V82.0713C274.812 84.4844 275.585 85.9678 276.911 85.9678Z" fill="#FEFEFE"/>
<path d="M231.012 106V98.7168H230.918L228.768 100.275V99.1621L231.018 97.5449H232.066V106H231.012ZM235.055 106.059C234.639 106.059 234.293 105.713 234.293 105.297C234.293 104.875 234.639 104.535 235.055 104.535C235.477 104.535 235.816 104.875 235.816 105.297C235.816 105.713 235.477 106.059 235.055 106.059ZM240.258 106.141C238.465 106.141 237.188 105.133 237.188 103.715V103.703C237.188 102.66 237.92 101.793 239.004 101.541V101.518C238.078 101.23 237.492 100.527 237.492 99.6367V99.625C237.492 98.3477 238.658 97.4043 240.258 97.4043C241.857 97.4043 243.023 98.3477 243.023 99.625V99.6367C243.023 100.527 242.438 101.23 241.512 101.518V101.541C242.596 101.793 243.328 102.66 243.328 103.703V103.715C243.328 105.133 242.051 106.141 240.258 106.141ZM240.258 101.125C241.277 101.125 241.975 100.545 241.975 99.7246V99.7129C241.975 98.8926 241.277 98.3125 240.258 98.3125C239.238 98.3125 238.541 98.8926 238.541 99.7129V99.7246C238.541 100.545 239.238 101.125 240.258 101.125ZM240.258 105.221C241.424 105.221 242.256 104.564 242.256 103.65V103.639C242.256 102.713 241.43 102.051 240.258 102.051C239.086 102.051 238.26 102.713 238.26 103.639V103.65C238.26 104.564 239.092 105.221 240.258 105.221ZM246.609 101.992C245.531 101.992 244.881 101.113 244.881 99.7129V99.707C244.881 98.3066 245.531 97.4336 246.609 97.4336C247.688 97.4336 248.344 98.3066 248.344 99.707V99.7129C248.344 101.113 247.688 101.992 246.609 101.992ZM247.242 106H246.293L252.047 97.5449H252.996L247.242 106ZM246.609 101.295C247.189 101.295 247.529 100.703 247.529 99.7129V99.707C247.529 98.7168 247.189 98.1309 246.609 98.1309C246.029 98.1309 245.695 98.7168 245.695 99.707V99.7129C245.695 100.703 246.029 101.295 246.609 101.295ZM252.668 106.111C251.59 106.111 250.939 105.232 250.939 103.832V103.826C250.939 102.426 251.59 101.553 252.668 101.553C253.746 101.553 254.402 102.426 254.402 103.826V103.832C254.402 105.232 253.746 106.111 252.668 106.111ZM252.668 105.414C253.248 105.414 253.588 104.822 253.588 103.832V103.826C253.588 102.836 253.248 102.25 252.668 102.25C252.088 102.25 251.754 102.836 251.754 103.826V103.832C251.754 104.822 252.088 105.414 252.668 105.414Z" fill="#D8DCE7"/>
<circle cx="335" cy="91" r="5.75" fill="#6658DB" stroke="#F4F5F6" stroke-width="1.5"/>
</g>
<rect x="0.5" y="0.5" width="448" height="319" rx="7.5" stroke="#F4F5F6"/>
<defs>
<linearGradient id="paint0_linear_1048_9455" x1="-188.046" y1="862.515" x2="-69.4165" y2="-199.851" gradientUnits="userSpaceOnUse">
<stop stop-color="#D8DCE7" stop-opacity="0.48"/>
<stop offset="0.489583" stop-color="#D8DCE7" stop-opacity="0.41"/>
<stop offset="0.635417" stop-color="#D8DCE7"/>
<stop offset="1" stop-color="#D8DCE7" stop-opacity="0"/>
</linearGradient>
<linearGradient id="paint1_linear_1048_9455" x1="-130.049" y1="844.444" x2="-11.4199" y2="-217.922" gradientUnits="userSpaceOnUse">
<stop stop-color="#D8DCE7" stop-opacity="0.48"/>
<stop offset="0.489583" stop-color="#D8DCE7" stop-opacity="0.41"/>
<stop offset="0.635417" stop-color="#D8DCE7"/>
<stop offset="1" stop-color="#D8DCE7" stop-opacity="0"/>
</linearGradient>
<linearGradient id="paint2_linear_1048_9455" x1="-71.5005" y1="828.253" x2="47.1289" y2="-234.113" gradientUnits="userSpaceOnUse">
<stop stop-color="#D8DCE7" stop-opacity="0.48"/>
<stop offset="0.489583" stop-color="#D8DCE7" stop-opacity="0.41"/>
<stop offset="0.635417" stop-color="#D8DCE7"/>
<stop offset="1" stop-color="#D8DCE7" stop-opacity="0"/>
</linearGradient>
<linearGradient id="paint3_linear_1048_9455" x1="-12.4077" y1="814.179" x2="106.222" y2="-248.187" gradientUnits="userSpaceOnUse">
<stop stop-color="#D8DCE7" stop-opacity="0.48"/>
<stop offset="0.489583" stop-color="#D8DCE7" stop-opacity="0.41"/>
<stop offset="0.635417" stop-color="#D8DCE7"/>
<stop offset="1" stop-color="#D8DCE7" stop-opacity="0"/>
</linearGradient>
<linearGradient id="paint4_linear_1048_9455" x1="47.209" y1="802.517" x2="165.838" y2="-259.848" gradientUnits="userSpaceOnUse">
<stop stop-color="#D8DCE7" stop-opacity="0.48"/>
<stop offset="0.489583" stop-color="#D8DCE7" stop-opacity="0.41"/>
<stop offset="0.635417" stop-color="#D8DCE7"/>
<stop offset="1" stop-color="#D8DCE7" stop-opacity="0"/>
</linearGradient>
<linearGradient id="paint5_linear_1048_9455" x1="107.303" y1="793.645" x2="225.933" y2="-268.72" gradientUnits="userSpaceOnUse">
<stop stop-color="#D8DCE7" stop-opacity="0.48"/>
<stop offset="0.489583" stop-color="#D8DCE7" stop-opacity="0.41"/>
<stop offset="0.635417" stop-color="#D8DCE7"/>
<stop offset="1" stop-color="#D8DCE7" stop-opacity="0"/>
</linearGradient>
<linearGradient id="paint6_linear_1048_9455" x1="167.791" y1="788.034" x2="286.42" y2="-274.331" gradientUnits="userSpaceOnUse">
<stop stop-color="#D8DCE7" stop-opacity="0.48"/>
<stop offset="0.489583" stop-color="#D8DCE7" stop-opacity="0.41"/>
<stop offset="0.635417" stop-color="#D8DCE7"/>
<stop offset="1" stop-color="#D8DCE7" stop-opacity="0"/>
</linearGradient>
<linearGradient id="paint7_linear_1048_9455" x1="228.511" y1="786.279" x2="347.141" y2="-276.086" gradientUnits="userSpaceOnUse">
<stop stop-color="#D8DCE7" stop-opacity="0.48"/>
<stop offset="0.489583" stop-color="#D8DCE7" stop-opacity="0.41"/>
<stop offset="0.635417" stop-color="#D8DCE7"/>
<stop offset="1" stop-color="#D8DCE7" stop-opacity="0"/>
</linearGradient>
<linearGradient id="paint8_linear_1048_9455" x1="289.191" y1="789.117" x2="407.82" y2="-273.249" gradientUnits="userSpaceOnUse">
<stop stop-color="#D8DCE7" stop-opacity="0.48"/>
<stop offset="0.489583" stop-color="#D8DCE7" stop-opacity="0.41"/>
<stop offset="0.635417" stop-color="#D8DCE7"/>
<stop offset="1" stop-color="#D8DCE7" stop-opacity="0"/>
</linearGradient>
<linearGradient id="paint9_linear_1048_9455" x1="349.364" y1="797.438" x2="467.994" y2="-264.928" gradientUnits="userSpaceOnUse">
<stop stop-color="#D8DCE7" stop-opacity="0.48"/>
<stop offset="0.489583" stop-color="#D8DCE7" stop-opacity="0.41"/>
<stop offset="0.635417" stop-color="#D8DCE7"/>
<stop offset="1" stop-color="#D8DCE7" stop-opacity="0"/>
</linearGradient>
<linearGradient id="paint10_linear_1048_9455" x1="408.277" y1="812.249" x2="526.907" y2="-250.116" gradientUnits="userSpaceOnUse">
<stop stop-color="#D8DCE7" stop-opacity="0.48"/>
<stop offset="0.489583" stop-color="#D8DCE7" stop-opacity="0.41"/>
<stop offset="0.635417" stop-color="#D8DCE7"/>
<stop offset="1" stop-color="#D8DCE7" stop-opacity="0"/>
</linearGradient>
<linearGradient id="paint11_linear_1048_9455" x1="464.79" y1="834.531" x2="583.419" y2="-227.835" gradientUnits="userSpaceOnUse">
<stop stop-color="#D8DCE7" stop-opacity="0.48"/>
<stop offset="0.489583" stop-color="#D8DCE7" stop-opacity="0.41"/>
<stop offset="0.635417" stop-color="#D8DCE7"/>
<stop offset="1" stop-color="#D8DCE7" stop-opacity="0"/>
</linearGradient>
<linearGradient id="paint12_linear_1048_9455" x1="526.918" y1="870.328" x2="645.547" y2="-192.037" gradientUnits="userSpaceOnUse">
<stop stop-color="#D8DCE7" stop-opacity="0.48"/>
<stop offset="0.489583" stop-color="#D8DCE7" stop-opacity="0.41"/>
<stop offset="0.635417" stop-color="#D8DCE7"/>
<stop offset="1" stop-color="#D8DCE7" stop-opacity="0"/>
</linearGradient>
<radialGradient id="paint13_radial_1048_9455" cx="0" cy="0" r="1" gradientUnits="userSpaceOnUse" gradientTransform="translate(260.424 202.427) rotate(90) scale(283.613 305.328)">
<stop stop-color="#6658DB"/>
<stop offset="1" stop-color="#6658DB" stop-opacity="0"/>
</radialGradient>
<linearGradient id="paint14_linear_1048_9455" x1="224.5" y1="129" x2="224.5" y2="285" gradientUnits="userSpaceOnUse">
<stop stop-color="#4A3AD4" stop-opacity="0.21"/>
<stop offset="1" stop-color="#4A3AD4" stop-opacity="0"/>
</linearGradient>
<clipPath id="clip0_1048_9455">
<rect width="449" height="320" rx="8" fill="white"/>
</clipPath>
<clipPath id="clip1_1048_9455">
<path d="M-627 -2851C-627 -2857.63 -621.627 -2863 -615 -2863H873C879.627 -2863 885 -2857.63 885 -2851V624H-627V-2851Z" fill="white"/>
</clipPath>
</defs>
</svg>
