<svg width="101" height="101" viewBox="0 0 101 101" fill="none" xmlns="http://www.w3.org/2000/svg">
<g id="icon/telegram">
<path id="vector" fill-rule="evenodd" clip-rule="evenodd" d="M92.1668 50.6079C92.1668 73.6198 73.512 92.2746 50.5002 92.2746C27.4883 92.2746 8.8335 73.6198 8.8335 50.6079C8.8335 27.5961 27.4883 8.94128 50.5002 8.94128C73.512 8.94128 92.1668 27.5961 92.1668 50.6079ZM51.9932 39.7015C47.9405 41.3872 39.8408 44.876 27.6942 50.1682C25.7217 50.9525 24.6885 51.7199 24.5944 52.4702C24.4355 53.7382 26.0234 54.2375 28.1858 54.9175C28.4799 55.01 28.7847 55.1058 29.0971 55.2073C31.2245 55.8989 34.0863 56.7079 35.574 56.7401C36.9235 56.7692 38.4297 56.2129 40.0926 55.071C51.4416 47.4101 57.3 43.5379 57.6678 43.4544C57.9273 43.3955 58.2869 43.3215 58.5305 43.538C58.7741 43.7546 58.7502 44.1647 58.7244 44.2747C58.5671 44.9453 52.3339 50.7403 49.1082 53.7392C48.1025 54.6741 47.3892 55.3372 47.2434 55.4887C46.9168 55.828 46.5839 56.1489 46.2639 56.4573C44.2875 58.3626 42.8053 59.7914 46.346 62.1247C48.0474 63.2459 49.4089 64.1731 50.7672 65.0981C52.2506 66.1083 53.7302 67.1159 55.6446 68.3708C56.1323 68.6905 56.5981 69.0225 57.0518 69.346C58.7781 70.5767 60.3291 71.6824 62.2452 71.5061C63.3586 71.4036 64.5086 70.3567 65.0927 67.2343C66.473 59.855 69.1863 43.8665 69.8133 37.278C69.8683 36.7008 69.7992 35.9621 69.7437 35.6378C69.6882 35.3135 69.5722 34.8514 69.1507 34.5094C68.6514 34.1043 67.8808 34.0189 67.5361 34.0249C65.9689 34.0526 63.5645 34.8886 51.9932 39.7015Z" fill="#6658DB"/>
</g>
</svg>
