<svg width="101" height="101" viewBox="0 0 101 101" fill="none" xmlns="http://www.w3.org/2000/svg">
<path d="M93.16 29.68C92.6625 27.8079 91.682 26.0992 90.3166 24.7251C88.9513 23.3509 87.2489 22.3595 85.38 21.85C78.5 20 51 20 51 20C51 20 23.5 20 16.62 21.85C14.7511 22.3595 13.0488 23.3509 11.6834 24.7251C10.318 26.0992 9.33752 27.8079 8.84 29.68C7 36.59 7 51 7 51C7 51 7 65.41 8.84 72.32C9.33752 74.1921 10.318 75.9008 11.6834 77.2749C13.0488 78.6491 14.7511 79.6405 16.62 80.15C23.5 82 51 82 51 82C51 82 78.5 82 85.38 80.15C87.2489 79.6405 88.9513 78.6491 90.3166 77.2749C91.682 75.9008 92.6625 74.1921 93.16 72.32C95 65.41 95 51 95 51C95 51 95 36.59 93.16 29.68Z" fill="#6658DB"/>
<path d="M40.3711 65.3475V35.6089L66.5074 50.4782L40.3711 65.3475Z" fill="#FEFEFE"/>
</svg>
