<svg width="152" height="30" viewBox="0 0 152 30" fill="none" xmlns="http://www.w3.org/2000/svg">
<path d="M16.4421 19.3183L20.044 22.9202C20.8391 23.7153 20.8391 25.004 20.044 25.7991L16.4394 29.4037C15.6443 30.1988 14.3557 30.1988 13.5606 29.4037L8.51788 24.361L5.63901 21.4821L0.596318 16.4394C-0.198773 15.6443 -0.198773 14.3557 0.596318 13.5606L13.5606 0.596318C14.3557 -0.198773 15.6443 -0.198773 16.4394 0.596318L20.044 4.20091C20.8391 4.996 20.8391 6.28469 20.044 7.07978L16.4394 10.6844C15.6443 11.4795 14.3557 11.4795 13.5606 10.6844L11.7276 8.85139C10.9325 8.0563 9.64381 8.0563 8.84872 8.85139C8.05363 9.64648 8.05363 10.9352 8.84872 11.7303L10.6817 13.5632C11.4768 14.3583 11.4768 15.647 10.6817 16.4421L8.85139 18.2751C8.0563 19.0702 8.05897 20.3589 8.85139 21.154C9.64648 21.949 10.9352 21.949 11.7303 21.154L13.5579 19.3263C14.353 18.5312 15.6417 18.5312 16.4368 19.3263L16.4421 19.3183Z" fill="url(#paint0_linear_333_198)"/>
<path d="M22.9238 9.9551L19.3204 13.5586C18.5253 14.3536 18.5253 15.6425 19.3204 16.4375L22.9238 20.041C23.7188 20.836 25.0078 20.836 25.8028 20.041L29.4062 16.4375C30.2013 15.6425 30.2013 14.3536 29.4062 13.5586L25.8028 9.9551C25.0078 9.16009 23.7188 9.16009 22.9238 9.9551Z" fill="url(#paint1_linear_333_198)"/>
<path d="M58.5106 10.4096H50.3943V13.9101H57.8409V17.2852H50.3943V21.0339H58.5106V24.409H46.8457V7.03711H58.5106V10.4122V10.4096Z" fill="#250656"/>
<path d="M66.4028 24.7027C64.367 24.7027 62.6755 24.025 61.3281 22.6669C59.978 21.3115 59.3057 19.6146 59.3057 17.5789C59.3057 15.5431 59.9807 13.8489 61.3281 12.4908C62.6755 11.1354 64.375 10.4551 66.4268 10.4551C68.1477 10.4551 69.6498 10.9487 70.9305 11.9305C72.2112 12.9151 72.977 14.2518 73.2251 15.938H69.5778C69.3804 15.2256 68.9935 14.6813 68.4225 14.2998C67.8516 13.9183 67.1845 13.7288 66.4241 13.7288C65.3489 13.7288 64.4871 14.0837 63.8441 14.7961C63.1984 15.5084 62.8836 16.4343 62.9022 17.5762C62.8862 18.7182 63.2037 19.644 63.8574 20.3564C64.5111 21.0687 65.3596 21.4236 66.4001 21.4236C67.1605 21.4236 67.8302 21.2342 68.4092 20.8526C68.9882 20.4711 69.3777 19.9188 69.5751 19.1904H73.2224C72.9583 20.9273 72.1845 22.28 70.9012 23.2486C69.6178 24.2171 68.1184 24.7 66.3975 24.7L66.4028 24.7027Z" fill="#250656"/>
<path d="M82.1605 10.4577C83.6813 10.4577 84.8819 10.9379 85.7597 11.8958C86.6375 12.8563 87.0751 14.1717 87.0751 15.8419V24.4038H83.5265V16.6103C83.5265 15.6845 83.3291 14.9881 82.9315 14.5265C82.534 14.0623 81.8803 13.8328 80.9705 13.8328C78.9347 13.8328 77.9182 14.9667 77.9182 17.232V24.4038H74.3696V5.29492H77.9182V12.6162C78.9427 11.1781 80.3595 10.4577 82.1631 10.4577H82.1605Z" fill="#250656"/>
<path d="M90.2768 12.4933C91.6509 11.1379 93.3291 10.4575 95.3142 10.4575C97.2992 10.4575 98.9828 11.1352 100.365 12.4933C101.747 13.8513 102.438 15.5456 102.438 17.5813C102.438 19.6171 101.755 21.3326 100.392 22.6827C99.0255 24.0301 97.3339 24.7051 95.3169 24.7051C93.2998 24.7051 91.6322 24.0274 90.2662 22.6694C88.9001 21.314 88.2197 19.6171 88.2197 17.5813C88.2197 15.5456 88.9054 13.8513 90.2795 12.4933H90.2768ZM97.8329 14.8759C97.1632 14.1822 96.3227 13.8327 95.3142 13.8327C94.3056 13.8327 93.4652 14.1795 92.7955 14.8759C92.1258 15.5696 91.7896 16.4741 91.7896 17.5813C91.7896 18.6886 92.1258 19.5931 92.7955 20.2868C93.4652 20.9805 94.3056 21.33 95.3142 21.33C96.3227 21.33 97.1632 20.9831 97.8329 20.2868C98.5026 19.5904 98.8387 18.6912 98.8387 17.5813C98.8387 16.4714 98.5026 15.5722 97.8329 14.8759Z" fill="#250656"/>
<path d="M106.296 9.32914C108.025 7.61622 110.154 6.75977 112.686 6.75977C115.218 6.75977 117.339 7.61622 119.052 9.32914C120.765 11.0421 121.622 13.1712 121.622 15.7192C121.622 18.2672 120.76 20.3964 119.041 22.1093C117.321 23.8222 115.194 24.6787 112.662 24.6787C110.13 24.6787 108.004 23.8222 106.283 22.1093C104.562 20.3964 103.703 18.2672 103.703 15.7192C103.703 13.1712 104.567 11.0421 106.296 9.32914ZM112.662 8.72081C110.725 8.72081 109.098 9.3905 107.771 10.7299C106.448 12.0693 105.786 13.7342 105.786 15.7192C105.786 17.7043 106.448 19.3665 107.771 20.7085C109.095 22.0479 110.725 22.7176 112.662 22.7176C114.599 22.7176 116.248 22.0506 117.563 20.7192C118.879 19.3878 119.538 17.7203 119.538 15.7192C119.538 13.7181 118.881 12.0506 117.563 10.7192C116.248 9.38783 114.615 8.72081 112.662 8.72081Z" fill="#250656"/>
<path d="M130.605 10.4814C132.144 10.4814 133.35 10.9457 134.228 11.8715C135.106 12.7973 135.544 14.0887 135.544 15.7429V24.4035H133.484V16.1405C133.484 13.6751 132.334 12.4425 130.034 12.4425C128.66 12.4425 127.598 12.8881 126.846 13.7819C126.093 14.6757 125.717 15.8843 125.717 17.4051V24.4035H123.657V10.7536H125.717V13.459C126.71 11.474 128.34 10.4814 130.605 10.4814Z" fill="#250656"/>
<path d="M144.255 10.4814C146.374 10.4814 148.06 11.2018 149.319 12.6399C150.576 14.078 151.163 15.9324 151.08 18.2002H139.391C139.49 19.6063 139.994 20.7162 140.904 21.5247C141.814 22.3358 142.964 22.7413 144.354 22.7413C146.39 22.7413 147.812 21.9462 148.623 20.3587H150.757C150.194 21.7648 149.343 22.8374 148.201 23.5738C147.059 24.3102 145.752 24.6784 144.279 24.6784C142.243 24.6784 140.568 24.022 139.252 22.704C137.937 21.3859 137.281 19.697 137.281 17.6293C137.281 15.5615 137.934 13.8539 139.242 12.5039C140.549 11.1565 142.219 10.4814 144.255 10.4814ZM144.255 12.4158C143.03 12.4158 141.993 12.7707 141.141 13.483C140.29 14.1954 139.741 15.1212 139.49 16.2632H148.847C148.615 15.1052 148.095 14.1741 147.283 13.4724C146.472 12.768 145.464 12.4185 144.255 12.4185V12.4158Z" fill="#250656"/>
<defs>
<linearGradient id="paint0_linear_333_198" x1="1.39674" y1="28.6033" x2="24.3743" y2="5.62566" gradientUnits="userSpaceOnUse">
<stop stop-color="#4E5FD8"/>
<stop offset="1" stop-color="#EE2DE8"/>
</linearGradient>
<linearGradient id="paint1_linear_333_198" x1="6.0791" y1="33.2819" x2="29.054" y2="10.3069" gradientUnits="userSpaceOnUse">
<stop stop-color="#4E5FD8"/>
<stop offset="1" stop-color="#EE2DE8"/>
</linearGradient>
</defs>
</svg>
