<svg xmlns="http://www.w3.org/2000/svg" width="152" height="30" fill="none"><path fill="url(#a)" d="m16.442 19.318 3.602 3.602a2.035 2.035 0 0 1 0 2.88l-3.605 3.604a2.035 2.035 0 0 1-2.878 0L8.518 24.36l-2.879-2.879L.596 16.44a2.035 2.035 0 0 1 0-2.878L13.561.596a2.035 2.035 0 0 1 2.878 0l3.605 3.605a2.035 2.035 0 0 1 0 2.879l-3.605 3.604a2.035 2.035 0 0 1-2.878 0l-1.833-1.833a2.035 2.035 0 1 0-2.88 2.88l1.834 1.832a2.035 2.035 0 0 1 0 2.88l-1.83 1.832a2.036 2.036 0 1 0 2.879 2.879l1.827-1.828a2.035 2.035 0 0 1 2.879 0l.005-.008Z"/><path fill="url(#b)" d="M22.924 9.955 19.32 13.56a2.035 2.035 0 0 0 0 2.879l3.604 3.603a2.036 2.036 0 0 0 2.879 0l3.603-3.604a2.035 2.035 0 0 0 0-2.878l-3.603-3.604a2.036 2.036 0 0 0-2.88 0Z"/><path fill="#FEFEFE" d="M58.51 10.41h-8.116v3.5h7.447v3.375h-7.447v3.749h8.117v3.375H46.846V7.037H58.51v3.375-.002ZM66.403 24.703c-2.036 0-3.728-.678-5.075-2.036-1.35-1.356-2.022-3.052-2.022-5.088s.675-3.73 2.022-5.088c1.347-1.356 3.047-2.036 5.099-2.036 1.72 0 3.223.494 4.503 1.476 1.281.984 2.047 2.32 2.295 4.007h-3.647c-.198-.712-.585-1.257-1.156-1.638-.57-.382-1.237-.571-1.998-.571-1.075 0-1.937.355-2.58 1.067-.646.712-.96 1.638-.942 2.78-.016 1.142.302 2.068.955 2.78.654.713 1.503 1.068 2.543 1.068.76 0 1.43-.19 2.01-.571.578-.382.968-.934 1.165-1.663h3.647c-.264 1.737-1.037 3.09-2.32 4.059-1.284.968-2.784 1.451-4.505 1.451l.006.003ZM82.16 10.458c1.521 0 2.722.48 3.6 1.438.877.96 1.315 2.276 1.315 3.946v8.562h-3.549V16.61c0-.925-.197-1.622-.594-2.083-.398-.465-1.052-.694-1.962-.694-2.035 0-3.052 1.134-3.052 3.399v7.172H74.37V5.294h3.548v7.322c1.025-1.438 2.441-2.158 4.245-2.158h-.002ZM90.277 12.493c1.374-1.355 3.052-2.036 5.037-2.036 1.985 0 3.669.678 5.051 2.036 1.382 1.358 2.073 3.053 2.073 5.088 0 2.036-.683 3.752-2.046 5.102-1.367 1.347-3.058 2.022-5.075 2.022-2.017 0-3.685-.678-5.05-2.036-1.367-1.355-2.047-3.052-2.047-5.088 0-2.035.685-3.73 2.06-5.088h-.003Zm7.556 2.383c-.67-.694-1.51-1.043-2.519-1.043-1.008 0-1.849.347-2.518 1.043-.67.694-1.006 1.598-1.006 2.705 0 1.108.336 2.012 1.005 2.706.67.694 1.51 1.043 2.52 1.043 1.008 0 1.848-.347 2.518-1.043.67-.697 1.006-1.596 1.006-2.706 0-1.11-.336-2.009-1.006-2.705ZM106.296 9.33c1.729-1.714 3.858-2.57 6.39-2.57 2.532 0 4.653.856 6.366 2.57 1.713 1.712 2.57 3.841 2.57 6.39 0 2.547-.862 4.676-2.581 6.39-1.72 1.712-3.847 2.569-6.379 2.569-2.532 0-4.658-.857-6.379-2.57-1.721-1.713-2.58-3.842-2.58-6.39 0-2.548.864-4.677 2.593-6.39Zm6.366-.61c-1.937 0-3.564.67-4.891 2.01-1.323 1.34-1.985 3.004-1.985 4.99 0 1.984.662 3.646 1.985 4.989 1.324 1.339 2.954 2.009 4.891 2.009 1.937 0 3.586-.667 4.901-1.999 1.316-1.331 1.975-2.999 1.975-5 0-2-.657-3.668-1.975-5-1.315-1.331-2.948-1.998-4.901-1.998ZM130.605 10.481c1.539 0 2.745.465 3.623 1.39.878.926 1.316 2.218 1.316 3.872v8.66h-2.06v-8.262c0-2.466-1.15-3.698-3.45-3.698-1.374 0-2.436.445-3.188 1.339-.753.894-1.129 2.102-1.129 3.623v6.998h-2.06v-13.65h2.06v2.706c.993-1.985 2.623-2.978 4.888-2.978ZM144.255 10.481c2.119 0 3.805.72 5.064 2.159 1.257 1.438 1.844 3.292 1.761 5.56h-11.689c.099 1.406.603 2.516 1.513 3.325.91.81 2.06 1.216 3.45 1.216 2.036 0 3.458-.795 4.269-2.382h2.134c-.563 1.406-1.414 2.478-2.556 3.215-1.142.736-2.449 1.104-3.922 1.104-2.036 0-3.711-.656-5.027-1.974-1.315-1.318-1.971-3.007-1.971-5.075s.653-3.775 1.961-5.125c1.307-1.348 2.977-2.023 5.013-2.023Zm0 1.935c-1.225 0-2.262.355-3.114 1.067-.851.712-1.4 1.638-1.651 2.78h9.357c-.232-1.158-.752-2.089-1.564-2.79-.811-.705-1.819-1.055-3.028-1.055v-.002Z"/><defs><linearGradient id="a" x1="1.397" x2="24.374" y1="28.603" y2="5.626" gradientUnits="userSpaceOnUse"><stop stop-color="#4E5FD8"/><stop offset="1" stop-color="#EE2DE8"/></linearGradient><linearGradient id="b" x1="6.079" x2="29.054" y1="33.282" y2="10.307" gradientUnits="userSpaceOnUse"><stop stop-color="#4E5FD8"/><stop offset="1" stop-color="#EE2DE8"/></linearGradient></defs></svg>