<svg xmlns="http://www.w3.org/2000/svg" width="449" height="320" fill="none"><g clip-path="url(#a)"><rect width="449" height="320" fill="#fff" rx="8"/><g clip-path="url(#b)"><path fill="#FEFEFE" d="M-627-2851c0-6.63 5.373-12 12-12H873c6.627 0 12 5.37 12 12V624H-627v-3475Z"/><g stroke-opacity=".5" stroke-width="2" opacity=".4"><path stroke="url(#c)" d="M737.071 746.451c-.85-40.252-31.997-128.981-149.785-161.878-147.235-41.121-273.211 39.909-419.315 23.842-107.836-11.859-360.911-95.236-428.429-252.712"/><path stroke="url(#d)" d="M747.159 686.549c-.85-40.253-31.998-128.982-149.786-161.879-147.235-41.121-273.21 39.909-419.315 23.842-107.835-11.859-360.91-95.236-428.429-252.712"/><path stroke="url(#e)" d="M761.743 627.579c-.85-40.253-31.998-128.982-149.786-161.879-147.235-41.121-273.211 39.91-419.315 23.842-107.835-11.858-360.91-95.235-428.429-252.712"/><path stroke="url(#f)" d="M781.607 570.173c-.85-40.253-31.997-128.982-149.785-161.879-147.235-41.121-273.211 39.909-419.315 23.842-107.836-11.859-360.91-95.236-428.429-252.712"/><path stroke="url(#g)" d="M807.592 515.265c-.85-40.253-31.997-128.982-149.785-161.879-147.235-41.121-273.211 39.91-419.315 23.843-107.836-11.859-360.911-95.236-428.429-252.713"/><path stroke="url(#h)" d="M840.439 464.164c-.85-40.253-31.997-128.982-149.785-161.879-147.236-41.121-273.211 39.91-419.315 23.842-107.836-11.858-360.91-95.236-428.429-252.712"/><path stroke="url(#i)" d="M887.635 410.184c-.85-40.252-31.997-128.981-149.785-161.878-147.235-41.121-273.211 39.909-419.315 23.842-107.836-11.859-360.91-95.236-428.429-252.712"/><path stroke="url(#j)" d="M926.382 363.4c-.85-40.253-31.997-128.982-149.785-161.879-147.235-41.121-273.211 39.909-419.315 23.842-107.836-11.858-360.91-95.236-428.43-252.712"/><path stroke="url(#k)" d="M961.131 313.575c-.85-40.253-31.997-128.982-149.785-161.879-147.235-41.121-273.211 39.91-419.315 23.843C284.195 163.68 31.121 80.303-36.398-77.174"/><path stroke="url(#l)" d="M991.656 261.054c-.85-40.252-31.997-128.981-149.785-161.878-147.235-41.121-273.211 39.909-419.315 23.842C314.72 111.159 61.646 27.782-5.874-129.694"/><path stroke="url(#m)" d="M1017.83 206.237c-.85-40.252-31.995-128.982-149.783-161.878C720.812 3.237 594.836 84.268 448.732 68.2 340.896 56.34 87.822-27.035 20.303-184.512"/><path stroke="url(#n)" d="M1039.64 149.54c-.85-40.253-32-128.982-149.788-161.879-147.235-41.12-273.21 39.91-419.315 23.842C362.702-.355 109.627-83.733 42.108-241.209"/><path stroke="url(#o)" d="M1057.14 91.37c-.85-40.253-32-128.982-149.785-161.88C760.119-111.63 634.144-30.6 488.04-46.666 380.204-58.526 127.129-141.903 59.61-299.379"/><path stroke="url(#p)" d="M1070.47 32.104c-.85-40.252-32-128.981-149.784-161.878-147.235-41.121-273.211 39.909-419.315 23.842-107.835-11.859-360.91-95.236-428.429-252.712"/><path stroke="url(#q)" d="M1079.81-27.92c-.85-40.253-32-128.982-149.79-161.879-147.235-41.121-273.211 39.909-419.315 23.842-107.836-11.859-360.911-95.236-428.43-252.712"/></g><circle cx="226.428" cy="262.425" r="299.083" fill="url(#r)" fill-opacity=".24" transform="rotate(-173.628 226.428 262.425)"/></g><path stroke="#4A3AD4" d="M236 164.021 145.337 68 57.14 155.979l-90.047-18.447-90.046 53.45L-213 122.869"/><path fill="url(#s)" d="M236 252h-449V122.869l90.047 68.113 90.046-53.45 90.047 18.447L145.337 68 236 164.021V252Z"/><path stroke="#4A3AD4" d="M696 164.021 605.337 68l-88.197 87.979-90.047-18.447-90.046 53.45L247 122.869"/><path fill="url(#t)" d="M696 252H247V122.869l90.047 68.113 90.046-53.45 90.047 18.447L605.337 68 696 164.021V252Z"/><g filter="url(#u)"><rect width="162.739" height="160" x="142.998" y="80" fill="url(#v)" rx="24"/><path fill="#FEFEFE" d="m227.613 173.819 11.526 11.526a6.514 6.514 0 0 1 0 9.212l-11.535 11.535a6.514 6.514 0 0 1-9.212 0l-16.137-16.137-9.212-9.212-16.137-16.137a6.514 6.514 0 0 1 0-9.212l41.486-41.486a6.514 6.514 0 0 1 9.212 0l11.535 11.535a6.514 6.514 0 0 1 0 9.212l-11.535 11.535a6.514 6.514 0 0 1-9.212 0l-5.866-5.866a6.515 6.515 0 0 0-9.212 9.213l5.865 5.865a6.513 6.513 0 0 1 0 9.213l-5.857 5.865c-2.544 2.545-2.535 6.668 0 9.213a6.515 6.515 0 0 0 9.213 0l5.848-5.849a6.515 6.515 0 0 1 9.213 0l.017-.025Z"/><path fill="#FEFEFE" d="m248.387 143.859-11.531 11.531a6.514 6.514 0 0 0 0 9.212l11.531 11.532a6.514 6.514 0 0 0 9.212 0l11.531-11.532a6.512 6.512 0 0 0 0-9.212l-11.531-11.531a6.514 6.514 0 0 0-9.212 0Z"/></g></g><rect width="448" height="319" x=".5" y=".5" stroke="#F4F5F6" rx="7.5"/><defs><linearGradient id="c" x1="745.978" x2="-273.034" y1="718.348" y2="395.381" gradientUnits="userSpaceOnUse"><stop stop-color="#D8DCE7" stop-opacity=".48"/><stop offset=".49" stop-color="#D8DCE7" stop-opacity=".41"/><stop offset=".635" stop-color="#D8DCE7"/><stop offset="1" stop-color="#D8DCE7" stop-opacity="0"/></linearGradient><linearGradient id="d" x1="756.066" x2="-262.946" y1="658.445" y2="335.478" gradientUnits="userSpaceOnUse"><stop stop-color="#D8DCE7" stop-opacity=".48"/><stop offset=".49" stop-color="#D8DCE7" stop-opacity=".41"/><stop offset=".635" stop-color="#D8DCE7"/><stop offset="1" stop-color="#D8DCE7" stop-opacity="0"/></linearGradient><linearGradient id="e" x1="770.65" x2="-248.362" y1="599.476" y2="276.508" gradientUnits="userSpaceOnUse"><stop stop-color="#D8DCE7" stop-opacity=".48"/><stop offset=".49" stop-color="#D8DCE7" stop-opacity=".41"/><stop offset=".635" stop-color="#D8DCE7"/><stop offset="1" stop-color="#D8DCE7" stop-opacity="0"/></linearGradient><linearGradient id="f" x1="790.514" x2="-228.498" y1="542.069" y2="219.102" gradientUnits="userSpaceOnUse"><stop stop-color="#D8DCE7" stop-opacity=".48"/><stop offset=".49" stop-color="#D8DCE7" stop-opacity=".41"/><stop offset=".635" stop-color="#D8DCE7"/><stop offset="1" stop-color="#D8DCE7" stop-opacity="0"/></linearGradient><linearGradient id="g" x1="816.499" x2="-202.513" y1="487.162" y2="164.195" gradientUnits="userSpaceOnUse"><stop stop-color="#D8DCE7" stop-opacity=".48"/><stop offset=".49" stop-color="#D8DCE7" stop-opacity=".41"/><stop offset=".635" stop-color="#D8DCE7"/><stop offset="1" stop-color="#D8DCE7" stop-opacity="0"/></linearGradient><linearGradient id="h" x1="849.346" x2="-169.666" y1="436.061" y2="113.093" gradientUnits="userSpaceOnUse"><stop stop-color="#D8DCE7" stop-opacity=".48"/><stop offset=".49" stop-color="#D8DCE7" stop-opacity=".41"/><stop offset=".635" stop-color="#D8DCE7"/><stop offset="1" stop-color="#D8DCE7" stop-opacity="0"/></linearGradient><linearGradient id="i" x1="896.542" x2="-122.47" y1="382.081" y2="59.114" gradientUnits="userSpaceOnUse"><stop stop-color="#D8DCE7" stop-opacity=".48"/><stop offset=".49" stop-color="#D8DCE7" stop-opacity=".41"/><stop offset=".635" stop-color="#D8DCE7"/><stop offset="1" stop-color="#D8DCE7" stop-opacity="0"/></linearGradient><linearGradient id="j" x1="935.289" x2="-83.723" y1="335.296" y2="12.329" gradientUnits="userSpaceOnUse"><stop stop-color="#D8DCE7" stop-opacity=".48"/><stop offset=".49" stop-color="#D8DCE7" stop-opacity=".41"/><stop offset=".635" stop-color="#D8DCE7"/><stop offset="1" stop-color="#D8DCE7" stop-opacity="0"/></linearGradient><linearGradient id="k" x1="970.038" x2="-48.974" y1="285.472" y2="-37.495" gradientUnits="userSpaceOnUse"><stop stop-color="#D8DCE7" stop-opacity=".48"/><stop offset=".49" stop-color="#D8DCE7" stop-opacity=".41"/><stop offset=".635" stop-color="#D8DCE7"/><stop offset="1" stop-color="#D8DCE7" stop-opacity="0"/></linearGradient><linearGradient id="l" x1="1000.56" x2="-18.449" y1="232.951" y2="-90.016" gradientUnits="userSpaceOnUse"><stop stop-color="#D8DCE7" stop-opacity=".48"/><stop offset=".49" stop-color="#D8DCE7" stop-opacity=".41"/><stop offset=".635" stop-color="#D8DCE7"/><stop offset="1" stop-color="#D8DCE7" stop-opacity="0"/></linearGradient><linearGradient id="m" x1="1026.74" x2="7.727" y1="178.134" y2="-144.833" gradientUnits="userSpaceOnUse"><stop stop-color="#D8DCE7" stop-opacity=".48"/><stop offset=".49" stop-color="#D8DCE7" stop-opacity=".41"/><stop offset=".635" stop-color="#D8DCE7"/><stop offset="1" stop-color="#D8DCE7" stop-opacity="0"/></linearGradient><linearGradient id="n" x1="1048.54" x2="29.533" y1="121.437" y2="-201.531" gradientUnits="userSpaceOnUse"><stop stop-color="#D8DCE7" stop-opacity=".48"/><stop offset=".49" stop-color="#D8DCE7" stop-opacity=".41"/><stop offset=".635" stop-color="#D8DCE7"/><stop offset="1" stop-color="#D8DCE7" stop-opacity="0"/></linearGradient><linearGradient id="o" x1="1066.05" x2="47.035" y1="63.266" y2="-259.701" gradientUnits="userSpaceOnUse"><stop stop-color="#D8DCE7" stop-opacity=".48"/><stop offset=".49" stop-color="#D8DCE7" stop-opacity=".41"/><stop offset=".635" stop-color="#D8DCE7"/><stop offset="1" stop-color="#D8DCE7" stop-opacity="0"/></linearGradient><linearGradient id="p" x1="1079.38" x2="60.367" y1="4.001" y2="-318.966" gradientUnits="userSpaceOnUse"><stop stop-color="#D8DCE7" stop-opacity=".48"/><stop offset=".49" stop-color="#D8DCE7" stop-opacity=".41"/><stop offset=".635" stop-color="#D8DCE7"/><stop offset="1" stop-color="#D8DCE7" stop-opacity="0"/></linearGradient><linearGradient id="q" x1="1088.71" x2="69.7" y1="-56.024" y2="-378.991" gradientUnits="userSpaceOnUse"><stop stop-color="#D8DCE7" stop-opacity=".48"/><stop offset=".49" stop-color="#D8DCE7" stop-opacity=".41"/><stop offset=".635" stop-color="#D8DCE7"/><stop offset="1" stop-color="#D8DCE7" stop-opacity="0"/></linearGradient><linearGradient id="s" x1="11.5" x2="11.5" y1="104.422" y2="252" gradientUnits="userSpaceOnUse"><stop stop-color="#4A3AD4" stop-opacity=".21"/><stop offset="1" stop-color="#4A3AD4" stop-opacity="0"/></linearGradient><linearGradient id="t" x1="471.5" x2="471.5" y1="104.422" y2="252" gradientUnits="userSpaceOnUse"><stop stop-color="#4A3AD4" stop-opacity=".21"/><stop offset="1" stop-color="#4A3AD4" stop-opacity="0"/></linearGradient><linearGradient id="v" x1="154.011" x2="267.755" y1="232.551" y2="64.397" gradientUnits="userSpaceOnUse"><stop stop-color="#4E5FD8"/><stop offset="1" stop-color="#EE2DE8"/></linearGradient><clipPath id="a"><rect width="449" height="320" fill="#fff" rx="8"/></clipPath><clipPath id="b"><path fill="#fff" d="M-627-2851c0-6.63 5.373-12 12-12H873c6.627 0 12 5.37 12 12V624H-627v-3475Z"/></clipPath><radialGradient id="r" cx="0" cy="0" r="1" gradientTransform="matrix(0 283.613 -305.328 0 226.428 262.425)" gradientUnits="userSpaceOnUse"><stop stop-color="#6658DB"/><stop offset="1" stop-color="#6658DB" stop-opacity="0"/></radialGradient><filter id="u" width="166.739" height="164" x="142.998" y="80" color-interpolation-filters="sRGB" filterUnits="userSpaceOnUse"><feFlood flood-opacity="0" result="BackgroundImageFix"/><feBlend in="SourceGraphic" in2="BackgroundImageFix" result="shape"/><feColorMatrix in="SourceAlpha" result="hardAlpha" values="0 0 0 0 0 0 0 0 0 0 0 0 0 0 0 0 0 0 127 0"/><feOffset dx="4" dy="4"/><feGaussianBlur stdDeviation="4.5"/><feComposite in2="hardAlpha" k2="-1" k3="1" operator="arithmetic"/><feColorMatrix values="0 0 0 0 1 0 0 0 0 1 0 0 0 0 1 0 0 0 0.25 0"/><feBlend in2="shape" result="effect1_innerShadow_1056_9997"/></filter></defs></svg>