<svg width="449" height="320" viewBox="0 0 449 320" fill="none" xmlns="http://www.w3.org/2000/svg">
<g clip-path="url(#clip0_1226_12889)">
<rect width="449" height="320" rx="8" fill="white"/>
<rect width="449" height="320" rx="8" fill="black" fill-opacity="0.03"/>
<g clip-path="url(#clip1_1226_12889)">
<path d="M-627 -2853C-627 -2859.63 -621.627 -2865 -615 -2865H873C879.627 -2865 885 -2859.63 885 -2853V622H-627V-2853Z" fill="#FEFEFE"/>
<g opacity="0.4">
<path d="M-217.345 857.243C-178.027 848.581 -97.0488 800.773 -87.6868 678.836C-75.9843 526.415 -179.967 418.603 -192.62 272.164C-201.959 164.081 -169.39 -100.377 -28.0507 -197.232" stroke="url(#paint0_linear_1226_12889)" stroke-opacity="0.5" stroke-width="2"/>
<path d="M-159.349 839.172C-120.03 830.51 -39.0527 782.702 -29.6907 660.765C-17.9882 508.344 -121.97 400.532 -134.623 254.093C-143.962 146.01 -111.394 -118.448 29.9454 -215.302" stroke="url(#paint1_linear_1226_12889)" stroke-opacity="0.5" stroke-width="2"/>
<path d="M-100.8 822.981C-61.4817 814.319 19.4961 766.511 28.8581 644.574C40.5607 492.153 -63.4216 384.341 -76.0747 237.902C-85.4136 129.819 -52.8448 -134.639 88.4942 -231.493" stroke="url(#paint2_linear_1226_12889)" stroke-opacity="0.5" stroke-width="2"/>
<path d="M-41.7066 808.907C-2.38791 800.245 78.5899 752.437 87.9519 630.5C99.6544 478.079 -4.32783 370.267 -16.9809 223.828C-26.3198 115.745 6.24897 -148.713 147.588 -245.568" stroke="url(#paint3_linear_1226_12889)" stroke-opacity="0.5" stroke-width="2"/>
<path d="M17.9097 797.246C57.2283 788.584 138.206 740.776 147.568 618.839C159.271 466.418 55.2884 358.606 42.6353 212.167C33.2964 104.084 65.8652 -160.374 207.204 -257.229" stroke="url(#paint4_linear_1226_12889)" stroke-opacity="0.5" stroke-width="2"/>
<path d="M78.0044 788.373C117.323 779.711 198.301 731.903 207.663 609.967C219.365 457.545 115.383 349.733 102.73 203.294C93.3911 95.211 125.96 -169.247 267.299 -266.101" stroke="url(#paint5_linear_1226_12889)" stroke-opacity="0.5" stroke-width="2"/>
<path d="M138.491 782.762C177.809 774.101 258.787 726.293 268.149 604.356C279.852 451.935 175.869 344.123 163.216 197.683C153.877 89.6001 186.446 -174.858 327.785 -271.712" stroke="url(#paint6_linear_1226_12889)" stroke-opacity="0.5" stroke-width="2"/>
<path d="M199.211 781.008C238.53 772.346 319.508 724.538 328.87 602.601C340.572 450.18 236.59 342.368 223.937 195.928C214.598 87.8452 247.167 -176.613 388.506 -273.467" stroke="url(#paint7_linear_1226_12889)" stroke-opacity="0.5" stroke-width="2"/>
<path d="M259.891 783.845C299.21 775.183 380.188 727.375 389.55 605.438C401.252 453.017 297.27 345.205 284.617 198.766C275.278 90.6826 307.847 -173.775 449.186 -270.63" stroke="url(#paint8_linear_1226_12889)" stroke-opacity="0.5" stroke-width="2"/>
<path d="M320.065 792.166C359.384 783.504 440.361 735.696 449.723 613.76C461.426 461.338 357.444 353.526 344.791 207.087C335.452 99.0039 368.02 -165.454 509.359 -262.308" stroke="url(#paint9_linear_1226_12889)" stroke-opacity="0.5" stroke-width="2"/>
<path d="M378.978 806.977C418.297 798.315 499.274 750.508 508.636 628.571C520.339 476.149 416.357 368.337 403.704 221.898C394.365 113.815 426.934 -150.643 568.273 -247.497" stroke="url(#paint10_linear_1226_12889)" stroke-opacity="0.5" stroke-width="2"/>
<path d="M435.491 829.259C474.809 820.597 555.787 772.789 565.149 650.852C576.852 498.431 472.869 390.619 460.216 244.18C450.877 136.097 483.446 -128.361 624.785 -225.216" stroke="url(#paint11_linear_1226_12889)" stroke-opacity="0.5" stroke-width="2"/>
<path d="M497.619 865.056C536.937 856.395 617.915 808.587 627.277 686.65C638.98 534.228 534.997 426.416 522.344 279.977C513.005 171.894 545.574 -92.5637 686.913 -189.418" stroke="url(#paint12_linear_1226_12889)" stroke-opacity="0.5" stroke-width="2"/>
</g>
<circle cx="260.424" cy="200.427" r="299.083" transform="rotate(-173.628 260.424 200.427)" fill="url(#paint13_radial_1226_12889)" fill-opacity="0.22"/>
</g>
<mask id="mask0_1226_12889" style="mask-type:luminance" maskUnits="userSpaceOnUse" x="114" y="148" width="44" height="40">
<path d="M155.72 187.93C152.553 187.335 132.13 180.265 130.433 179.67C130.345 179.635 130.293 179.6 130.258 179.53C120.195 164.077 115.348 151.53 114.385 148.905C114.298 148.66 114.473 148.397 114.735 148.397H157.593C157.803 148.397 157.978 148.572 157.96 148.782L156.158 187.562C156.158 187.79 155.948 187.965 155.72 187.912V187.93Z" fill="white"/>
</mask>
<g mask="url(#mask0_1226_12889)">
<path d="M123.52 148.415H114.28V187.965H123.52V148.415Z" fill="#8BC0FA"/>
<path d="M123.871 148.415H123.521V187.965H123.871V148.415Z" fill="#8BC0FA"/>
<path d="M124.22 148.415H123.87V187.965H124.22V148.415Z" fill="#8BC0FA"/>
<path d="M124.587 148.415H124.237V187.965H124.587V148.415Z" fill="#8BC0FA"/>
<path d="M124.938 148.415H124.588V187.965H124.938V148.415Z" fill="#8BC0FA"/>
<path d="M125.288 148.415H124.938V187.965H125.288V148.415Z" fill="#8BC0FA"/>
<path d="M125.656 148.415H125.306V187.965H125.656V148.415Z" fill="#8BC0FA"/>
<path d="M126.005 148.415H125.655V187.965H126.005V148.415Z" fill="#8BC0FA"/>
<path d="M126.372 148.415H126.022V187.965H126.372V148.415Z" fill="#8BC0FA"/>
<path d="M126.723 148.415H126.373V187.965H126.723V148.415Z" fill="#8BC0FA"/>
<path d="M127.073 148.415H126.723V187.965H127.073V148.415Z" fill="#8BC0FA"/>
<path d="M127.44 148.415H127.09V187.965H127.44V148.415Z" fill="#8BC0FA"/>
<path d="M127.79 148.415H127.44V187.965H127.79V148.415Z" fill="#8BC0FA"/>
<path d="M128.14 148.415H127.79V187.965H128.14V148.415Z" fill="#8BC0FA"/>
<path d="M128.508 148.415H128.158V187.965H128.508V148.415Z" fill="#8BC0FA"/>
<path d="M128.858 148.415H128.508V187.965H128.858V148.415Z" fill="#8BC0FA"/>
<path d="M129.207 148.415H128.857V187.965H129.207V148.415Z" fill="#8BC0FA"/>
<path d="M129.576 148.415H129.226V187.965H129.576V148.415Z" fill="#8BC0FA"/>
<path d="M129.925 148.415H129.575V187.965H129.925V148.415Z" fill="#8BC0FA"/>
<path d="M130.275 148.415H129.925V187.965H130.275V148.415Z" fill="#8BC0FA"/>
<path d="M130.643 148.415H130.293V187.965H130.643V148.415Z" fill="#8BC0FA"/>
<path d="M130.993 148.415H130.643V187.965H130.993V148.415Z" fill="#8BC0FA"/>
<path d="M131.343 148.415H130.993V187.965H131.343V148.415Z" fill="#8BC0FA"/>
<path d="M131.71 148.415H131.36V187.965H131.71V148.415Z" fill="#8BC0FA"/>
<path d="M132.06 148.415H131.71V187.965H132.06V148.415Z" fill="#8BC0FA"/>
<path d="M132.428 148.415H132.078V187.965H132.428V148.415Z" fill="#8BC0FA"/>
<path d="M132.778 148.415H132.428V187.965H132.778V148.415Z" fill="#8BC0FA"/>
<path d="M133.127 148.415H132.777V187.965H133.127V148.415Z" fill="#8BC0FA"/>
<path d="M133.496 148.415H133.146V187.965H133.496V148.415Z" fill="#8BC0FA"/>
<path d="M133.845 148.415H133.495V187.965H133.845V148.415Z" fill="#8BC0FA"/>
<path d="M134.196 148.415H133.846V187.965H134.196V148.415Z" fill="#8BC0FA"/>
<path d="M134.563 148.415H134.213V187.965H134.563V148.415Z" fill="#8BC0FA"/>
<path d="M134.913 148.415H134.562V187.965H134.913V148.415Z" fill="#8BC0FA"/>
<path d="M135.263 148.415H134.913V187.965H135.263V148.415Z" fill="#8BC0FA"/>
<path d="M135.63 148.415H135.28V187.965H135.63V148.415Z" fill="#8BC0FA"/>
<path d="M136.05 148.415H135.63V187.965H136.05V148.415Z" fill="#8BC0FA"/>
<path d="M136.47 148.415H136.05V187.965H136.47V148.415Z" fill="#8BC0FA"/>
<path d="M136.873 148.415H136.453V187.965H136.873V148.415Z" fill="#8BC0FA"/>
<path d="M137.293 148.415H136.873V187.965H137.293V148.415Z" fill="#8BC0FA"/>
<path d="M137.713 148.415H137.293V187.965H137.713V148.415Z" fill="#8CC1FA"/>
<path d="M138.115 148.415H137.695V187.965H138.115V148.415Z" fill="#8FC1FA"/>
<path d="M138.535 148.415H138.115V187.965H138.535V148.415Z" fill="#90C2FA"/>
<path d="M138.938 148.415H138.518V187.965H138.938V148.415Z" fill="#90C2FA"/>
<path d="M139.358 148.415H138.938V187.965H139.358V148.415Z" fill="#92C2FB"/>
<path d="M139.777 148.415H139.357V187.965H139.777V148.415Z" fill="#95C2FB"/>
<path d="M140.181 148.415H139.761V187.965H140.181V148.415Z" fill="#96C3FB"/>
<path d="M140.601 148.415H140.181V187.965H140.601V148.415Z" fill="#95C3FB"/>
<path d="M141.021 148.415H140.601V187.965H141.021V148.415Z" fill="#96C4FB"/>
<path d="M141.423 148.415H141.003V187.965H141.423V148.415Z" fill="#99C4FB"/>
<path d="M141.843 148.415H141.423V187.965H141.843V148.415Z" fill="#9AC4FB"/>
<path d="M142.245 148.415H141.825V187.965H142.245V148.415Z" fill="#9AC5FB"/>
<path d="M142.665 148.415H142.245V187.965H142.665V148.415Z" fill="#9CC5FB"/>
<path d="M143.085 148.415H142.665V187.965H143.085V148.415Z" fill="#9EC5FB"/>
<path d="M143.487 148.415H143.067V187.965H143.487V148.415Z" fill="#9EC5FB"/>
<path d="M143.907 148.415H143.487V187.965H143.907V148.415Z" fill="#A0C6FB"/>
<path d="M144.311 148.415H143.891V187.965H144.311V148.415Z" fill="#A0C6FB"/>
<path d="M144.731 148.415H144.311V187.965H144.731V148.415Z" fill="#A0C6FB"/>
<path d="M145.15 148.415H144.73V187.965H145.15V148.415Z" fill="#A0C6FB"/>
<path d="M145.553 148.415H145.133V187.965H145.553V148.415Z" fill="#A0C6FB"/>
<path d="M145.973 148.415H145.553V187.965H145.973V148.415Z" fill="#92C5FA"/>
<path d="M146.393 148.415H145.973V187.965H146.393V148.415Z" fill="#95C5FA"/>
<path d="M146.795 148.415H146.375V187.965H146.795V148.415Z" fill="#97C5FA"/>
<path d="M147.215 148.415H146.795V187.965H147.215V148.415Z" fill="#97C6FA"/>
<path d="M147.618 148.415H147.198V187.965H147.618V148.415Z" fill="#99C7FB"/>
<path d="M148.038 148.415H147.618V187.965H148.038V148.415Z" fill="#9CC7FB"/>
<path d="M148.458 148.415H148.038V187.965H148.458V148.415Z" fill="#9EC7FB"/>
<path d="M148.86 148.415H148.44V187.965H148.86V148.415Z" fill="#9CC8FB"/>
<path d="M149.28 148.415H148.86V187.965H149.28V148.415Z" fill="#9EC8FB"/>
<path d="M149.7 148.415H149.28V187.965H149.7V148.415Z" fill="#A1C9FB"/>
<path d="M150.103 148.415H149.683V187.965H150.103V148.415Z" fill="#A3C9FB"/>
<path d="M150.523 148.415H150.103V187.965H150.523V148.415Z" fill="#A3C9FB"/>
<path d="M150.925 148.415H150.505V187.965H150.925V148.415Z" fill="#A5CAFB"/>
<path d="M151.345 148.415H150.925V187.965H151.345V148.415Z" fill="#A8CAFB"/>
<path d="M151.766 148.415H151.346V187.965H151.766V148.415Z" fill="#AACAFB"/>
<path d="M152.168 148.415H151.748V187.965H152.168V148.415Z" fill="#AACBFB"/>
<path d="M152.588 148.415H152.168V187.965H152.588V148.415Z" fill="#ABCBFB"/>
<path d="M152.99 148.415H152.57V187.965H152.99V148.415Z" fill="#AFCCFB"/>
<path d="M153.41 148.415H152.99V187.965H153.41V148.415Z" fill="#ADCFFB"/>
<path d="M153.83 148.415H153.41V187.965H153.83V148.415Z" fill="#AFCCFC"/>
<path d="M154.233 148.415H153.812V187.965H154.233V148.415Z" fill="#ADCFFB"/>
<path d="M154.652 148.415H154.232V187.965H154.652V148.415Z" fill="#B0D0FB"/>
<path d="M155.072 148.415H154.652V187.965H155.072V148.415Z" fill="#B2D0FC"/>
<path d="M155.476 148.415H155.056V187.965H155.476V148.415Z" fill="#B3D0FC"/>
<path d="M155.896 148.415H155.476V187.965H155.896V148.415Z" fill="#B5D1FC"/>
<path d="M156.298 148.415H155.878V187.965H156.298V148.415Z" fill="#B5D2FC"/>
<path d="M156.718 148.415H156.298V187.965H156.718V148.415Z" fill="#BAD1FC"/>
<path d="M157.138 148.415H156.718V187.965H157.138V148.415Z" fill="#BAD2FC"/>
<path d="M157.54 148.415H157.12V187.965H157.54V148.415Z" fill="#BCD2FC"/>
<path d="M157.96 148.415H157.54V187.965H157.96V148.415Z" fill="#BDD3FC"/>
</g>
<path style="mix-blend-mode:multiply" opacity="0.5" d="M155.773 188.297C155.773 188.297 155.685 188.297 155.65 188.297C152.395 187.685 131.22 180.335 130.31 180.037C130.17 179.985 130.03 179.897 129.943 179.74C119.81 164.182 114.91 151.442 114.035 149.045C113.948 148.817 113.983 148.572 114.123 148.38C114.263 148.187 114.49 148.065 114.718 148.065H157.575C157.768 148.065 157.96 148.152 158.1 148.292C158.24 148.432 158.31 148.625 158.293 148.835L156.49 187.615C156.49 187.825 156.385 188.035 156.21 188.157C156.088 188.262 155.93 188.315 155.773 188.315V188.297ZM114.718 148.765C115.575 151.162 120.458 163.832 130.538 179.337C131.43 179.652 152.553 186.985 155.773 187.58L157.593 148.782H114.735L114.718 148.765Z" fill="url(#paint14_linear_1226_12889)"/>
<g style="mix-blend-mode:soft-light" opacity="0.5">
<path d="M125.672 149.85C127.37 154.89 134.09 166.352 135.507 166.352C136.925 166.352 153.147 166.072 154.635 163.727C156.122 161.382 157.417 150.077 156.122 149.85C154.827 149.622 124.92 147.592 125.672 149.85Z" fill="white"/>
</g>
<g style="mix-blend-mode:soft-light" opacity="0.5">
<path d="M115.627 149.29C117.71 154.242 123.502 166.825 124.587 166.965C125.672 167.105 129.277 167.577 129.347 166.055C129.435 163.657 122.645 149.605 121.14 149.29C119.635 148.957 115.12 148.082 115.627 149.29Z" fill="white"/>
</g>
<path style="mix-blend-mode:multiply" opacity="0.5" d="M125.655 168.628C125.463 170.185 131.29 178.235 132.253 178.883C133.233 179.53 152.885 185.883 154.18 184.973C155.475 184.063 156.158 167.473 155.073 166.983C153.988 166.493 125.865 166.895 125.655 168.628Z" fill="url(#paint15_linear_1226_12889)"/>
<path style="mix-blend-mode:multiply" opacity="0.5" d="M143.26 148.415C143.26 148.415 146.777 167.333 146.025 184.973L156.122 187.948L157.96 148.415H143.242H143.26Z" fill="url(#paint16_linear_1226_12889)"/>
<path d="M291.94 187.948C292.115 188.56 317.753 179.653 317.753 179.653C329.128 162.205 333.888 148.433 333.888 148.433H290.12L291.958 187.965L291.94 187.948Z" fill="url(#paint17_linear_1226_12889)"/>
<path d="M325.523 148.415C325.523 148.415 315.303 169.52 313.43 171.813L291.293 172.408V170.903C291.293 170.903 311.558 171.078 312.713 170.22C313.868 169.363 324.228 148.433 324.228 148.433H325.523V148.415Z" fill="#55777F"/>
<path d="M325.522 148.415L313.43 171.812C313.43 171.812 317.857 165.53 320.552 160.105C323.247 154.68 325.522 148.397 325.522 148.397V148.415Z" fill="white"/>
<g style="mix-blend-mode:soft-light" opacity="0.5">
<path d="M322.39 149.85C320.692 154.89 313.972 166.352 312.555 166.352C311.137 166.352 294.915 166.072 293.427 163.727C291.94 161.382 290.645 150.077 291.94 149.85C293.235 149.622 323.142 147.592 322.39 149.85Z" fill="white"/>
</g>
<g style="mix-blend-mode:soft-light" opacity="0.5">
<path d="M332.435 149.29C330.352 154.242 324.542 166.825 323.475 166.965C322.39 167.105 318.785 167.577 318.715 166.055C318.627 163.657 325.417 149.605 326.922 149.29C328.427 148.957 332.942 148.082 332.435 149.29Z" fill="white"/>
</g>
<path style="mix-blend-mode:multiply" opacity="0.5" d="M322.39 168.628C322.583 170.185 316.755 178.235 315.793 178.883C314.813 179.53 295.16 185.883 293.865 184.973C292.57 184.063 291.888 167.473 292.973 166.983C294.058 166.493 322.18 166.895 322.39 168.628Z" fill="url(#paint18_linear_1226_12889)"/>
<path style="mix-blend-mode:multiply" opacity="0.5" d="M304.803 148.415C304.803 148.415 301.285 167.333 302.038 184.973L291.94 187.948L290.103 148.415H304.82H304.803Z" fill="url(#paint19_linear_1226_12889)"/>
<mask id="mask1_1226_12889" style="mask-type:luminance" maskUnits="userSpaceOnUse" x="290" y="148" width="44" height="40">
<path d="M292.412 187.93C295.58 187.335 316.002 180.265 317.7 179.67C317.787 179.635 317.84 179.6 317.875 179.53C327.937 164.077 332.785 151.53 333.747 148.905C333.835 148.66 333.66 148.397 333.397 148.397H290.54C290.33 148.397 290.155 148.572 290.172 148.782L291.975 187.562C291.975 187.79 292.185 187.965 292.412 187.912V187.93Z" fill="white"/>
</mask>
<g mask="url(#mask1_1226_12889)">
<path d="M333.852 148.415H324.612V187.965H333.852V148.415Z" fill="#8FC1FA"/>
<path d="M324.612 148.415H324.262V187.965H324.612V148.415Z" fill="#8FC1FA"/>
<path d="M324.245 148.415H323.895V187.965H324.245V148.415Z" fill="#8FC1FA"/>
<path d="M323.894 148.415H323.544V187.965H323.894V148.415Z" fill="#8FC1FA"/>
<path d="M323.527 148.415H323.177V187.965H323.527V148.415Z" fill="#8FC1FA"/>
<path d="M323.177 148.415H322.827V187.965H323.177V148.415Z" fill="#8FC1FA"/>
<path d="M322.827 148.415H322.477V187.965H322.827V148.415Z" fill="#8FC1FA"/>
<path d="M322.459 148.415H322.109V187.965H322.459V148.415Z" fill="#8FC1FA"/>
<path d="M322.11 148.415H321.76V187.965H322.11V148.415Z" fill="#8FC1FA"/>
<path d="M321.759 148.415H321.409V187.965H321.759V148.415Z" fill="#8FC1FA"/>
<path d="M321.392 148.415H321.042V187.965H321.392V148.415Z" fill="#8FC1FA"/>
<path d="M321.041 148.415H320.691V187.965H321.041V148.415Z" fill="#8FC1FA"/>
<path d="M320.692 148.415H320.342V187.965H320.692V148.415Z" fill="#8FC1FA"/>
<path d="M320.325 148.415H319.975V187.965H320.325V148.415Z" fill="#8FC1FA"/>
<path d="M319.974 148.415H319.624V187.965H319.974V148.415Z" fill="#8FC1FA"/>
<path d="M319.624 148.415H319.274V187.965H319.624V148.415Z" fill="#8FC1FA"/>
<path d="M319.257 148.415H318.907V187.965H319.257V148.415Z" fill="#8FC1FA"/>
<path d="M318.907 148.415H318.557V187.965H318.907V148.415Z" fill="#8FC1FA"/>
<path d="M318.539 148.415H318.189V187.965H318.539V148.415Z" fill="#8FC1FA"/>
<path d="M318.19 148.415H317.84V187.965H318.19V148.415Z" fill="#8FC1FA"/>
<path d="M317.839 148.415H317.489V187.965H317.839V148.415Z" fill="#8FC1FA"/>
<path d="M317.472 148.415H317.122V187.965H317.472V148.415Z" fill="#8FC1FA"/>
<path d="M317.121 148.415H316.771V187.965H317.121V148.415Z" fill="#8FC1FA"/>
<path d="M316.772 148.415H316.422V187.965H316.772V148.415Z" fill="#8FC1FA"/>
<path d="M316.405 148.415H316.055V187.965H316.405V148.415Z" fill="#8FC1FA"/>
<path d="M316.054 148.415H315.704V187.965H316.054V148.415Z" fill="#8FC1FA"/>
<path d="M315.704 148.415H315.354V187.965H315.704V148.415Z" fill="#8FC1FA"/>
<path d="M315.337 148.415H314.987V187.965H315.337V148.415Z" fill="#8FC1FA"/>
<path d="M314.987 148.415H314.637V187.965H314.987V148.415Z" fill="#8FC1FA"/>
<path d="M314.637 148.415H314.287V187.965H314.637V148.415Z" fill="#8FC1FA"/>
<path d="M314.269 148.415H313.919V187.965H314.269V148.415Z" fill="#8FC1FA"/>
<path d="M313.919 148.415H313.569V187.965H313.919V148.415Z" fill="#8FC1FA"/>
<path d="M313.57 148.415H313.22V187.965H313.57V148.415Z" fill="#8FC1FA"/>
<path d="M313.202 148.415H312.852V187.965H313.202V148.415Z" fill="#8FC1FA"/>
<path d="M312.852 148.415H312.502V187.965H312.852V148.415Z" fill="#8FC1FA"/>
<path d="M312.502 148.415H312.082V187.965H312.502V148.415Z" fill="#8FC1FA"/>
<path d="M312.1 148.415H311.68V187.965H312.1V148.415Z" fill="#89C0FA"/>
<path d="M311.68 148.415H311.26V187.965H311.68V148.415Z" fill="#8BC0FA"/>
<path d="M311.26 148.415H310.84V187.965H311.26V148.415Z" fill="#8BC0FA"/>
<path d="M310.857 148.415H310.437V187.965H310.857V148.415Z" fill="#8CC1FA"/>
<path d="M310.437 148.415H310.017V187.965H310.437V148.415Z" fill="#8FC1FA"/>
<path d="M310.017 148.415H309.597V187.965H310.017V148.415Z" fill="#90C2FA"/>
<path d="M309.614 148.415H309.194V187.965H309.614V148.415Z" fill="#90C2FA"/>
<path d="M309.194 148.415H308.774V187.965H309.194V148.415Z" fill="#92C2FB"/>
<path d="M308.792 148.415H308.372V187.965H308.792V148.415Z" fill="#95C2FB"/>
<path d="M308.372 148.415H307.952V187.965H308.372V148.415Z" fill="#96C3FB"/>
<path d="M307.952 148.415H307.532V187.965H307.952V148.415Z" fill="#95C3FB"/>
<path d="M307.549 148.415H307.129V187.965H307.549V148.415Z" fill="#96C4FB"/>
<path d="M307.129 148.415H306.709V187.965H307.129V148.415Z" fill="#99C4FB"/>
<path d="M306.727 148.415H306.307V187.965H306.727V148.415Z" fill="#9AC4FB"/>
<path d="M306.307 148.415H305.887V187.965H306.307V148.415Z" fill="#9AC5FB"/>
<path d="M305.887 148.415H305.467V187.965H305.887V148.415Z" fill="#9CC5FB"/>
<path d="M305.484 148.415H305.064V187.965H305.484V148.415Z" fill="#9EC5FB"/>
<path d="M305.065 148.415H304.645V187.965H305.065V148.415Z" fill="#9EC5FB"/>
<path d="M304.645 148.415H304.225V187.965H304.645V148.415Z" fill="#9EC5FB"/>
<path d="M304.242 148.415H303.822V187.965H304.242V148.415Z" fill="#9EC5FB"/>
<path d="M303.822 148.415H303.402V187.965H303.822V148.415Z" fill="#9EC5FB"/>
<path d="M303.419 148.415H302.999V187.965H303.419V148.415Z" fill="#9EC5FB"/>
<path d="M302.999 148.415H302.579V187.965H302.999V148.415Z" fill="#9EC5FB"/>
<path d="M302.579 148.415H302.159V187.965H302.579V148.415Z" fill="#92C5FA"/>
<path d="M302.177 148.415H301.757V187.965H302.177V148.415Z" fill="#95C5FA"/>
<path d="M301.757 148.415H301.337V187.965H301.757V148.415Z" fill="#97C5FA"/>
<path d="M301.337 148.415H300.917V187.965H301.337V148.415Z" fill="#97C6FA"/>
<path d="M300.935 148.415H300.515V187.965H300.935V148.415Z" fill="#99C7FB"/>
<path d="M300.515 148.415H300.095V187.965H300.515V148.415Z" fill="#9CC7FB"/>
<path d="M300.111 148.415H299.691V187.965H300.111V148.415Z" fill="#9EC7FB"/>
<path d="M299.691 148.415H299.271V187.965H299.691V148.415Z" fill="#9CC8FB"/>
<path d="M299.272 148.415H298.852V187.965H299.272V148.415Z" fill="#9EC8FB"/>
<path d="M298.869 148.415H298.449V187.965H298.869V148.415Z" fill="#A1C9FB"/>
<path d="M298.449 148.415H298.029V187.965H298.449V148.415Z" fill="#A3C9FB"/>
<path d="M298.047 148.415H297.627V187.965H298.047V148.415Z" fill="#A3C9FB"/>
<path d="M297.627 148.415H297.207V187.965H297.627V148.415Z" fill="#A5CAFB"/>
<path d="M297.207 148.415H296.787V187.965H297.207V148.415Z" fill="#A8CAFB"/>
<path d="M296.805 148.415H296.385V187.965H296.805V148.415Z" fill="#AACAFB"/>
<path d="M296.385 148.415H295.965V187.965H296.385V148.415Z" fill="#AACBFB"/>
<path d="M295.964 148.415H295.544V187.965H295.964V148.415Z" fill="#ABCBFB"/>
<path d="M295.562 148.415H295.142V187.965H295.562V148.415Z" fill="#AFCCFB"/>
<path d="M295.142 148.415H294.722V187.965H295.142V148.415Z" fill="#ADCFFB"/>
<path d="M294.739 148.415H294.319V187.965H294.739V148.415Z" fill="#AFCCFC"/>
<path d="M294.319 148.415H293.899V187.965H294.319V148.415Z" fill="#ADCFFB"/>
<path d="M293.9 148.415H293.479V187.965H293.9V148.415Z" fill="#B0D0FB"/>
<path d="M293.497 148.415H293.077V187.965H293.497V148.415Z" fill="#B2D0FC"/>
<path d="M293.077 148.415H292.657V187.965H293.077V148.415Z" fill="#B3D0FC"/>
<path d="M292.657 148.415H292.237V187.965H292.657V148.415Z" fill="#B5D1FC"/>
<path d="M292.254 148.415H291.834V187.965H292.254V148.415Z" fill="#B5D2FC"/>
<path d="M291.834 148.415H291.414V187.965H291.834V148.415Z" fill="#BAD1FC"/>
<path d="M291.432 148.415H291.012V187.965H291.432V148.415Z" fill="#BAD2FC"/>
<path d="M291.012 148.415H290.592V187.965H291.012V148.415Z" fill="#BCD2FC"/>
<path d="M290.592 148.415H290.172V187.965H290.592V148.415Z" fill="#BDD3FC"/>
</g>
<path style="mix-blend-mode:multiply" opacity="0.5" d="M291.905 188.14C291.73 188 291.642 187.807 291.625 187.597L289.822 148.817C289.822 148.625 289.892 148.415 290.015 148.275C290.155 148.135 290.347 148.047 290.54 148.047H333.397C333.642 148.047 333.87 148.17 333.992 148.362C334.132 148.555 334.167 148.8 334.08 149.027C333.205 151.425 328.305 164.147 318.172 179.722C318.085 179.862 317.962 179.967 317.805 180.02C316.912 180.335 295.737 187.685 292.465 188.28C292.43 188.28 292.377 188.28 292.342 188.28C292.185 188.28 292.027 188.227 291.905 188.122V188.14ZM290.522 148.782L292.342 187.58C295.545 186.985 316.667 179.652 317.577 179.337C327.675 163.832 332.54 151.18 333.397 148.765H290.522V148.782Z" fill="url(#paint20_linear_1226_12889)"/>
<g style="mix-blend-mode:soft-light" opacity="0.5">
<path d="M322.46 149.85C320.763 154.89 314.043 166.352 312.625 166.352C311.208 166.352 294.985 166.072 293.498 163.727C292.01 161.382 290.715 150.077 292.01 149.85C293.305 149.622 323.213 147.592 322.46 149.85Z" fill="white"/>
</g>
<g style="mix-blend-mode:soft-light" opacity="0.5">
<path d="M332.505 149.29C330.423 154.242 324.63 166.825 323.545 166.965C322.46 167.105 318.855 167.577 318.785 166.055C318.698 163.657 325.488 149.605 326.993 149.29C328.498 148.957 333.013 148.082 332.505 149.29Z" fill="white"/>
</g>
<path style="mix-blend-mode:multiply" opacity="0.5" d="M322.46 168.628C322.652 170.185 316.825 178.235 315.862 178.883C314.882 179.53 295.23 185.883 293.935 184.973C292.64 184.063 291.957 167.473 293.042 166.983C294.127 166.493 322.25 166.895 322.46 168.628Z" fill="url(#paint21_linear_1226_12889)"/>
<path style="mix-blend-mode:multiply" opacity="0.5" d="M304.872 148.415C304.872 148.415 301.354 167.333 302.107 184.973L292.009 187.948L290.172 148.415H304.889H304.872Z" fill="url(#paint22_linear_1226_12889)"/>
<mask id="mask2_1226_12889" style="mask-type:luminance" maskUnits="userSpaceOnUse" x="90" y="165" width="55" height="50">
<path d="M141.632 214.163C137.729 213.428 112.582 204.73 110.499 203.995C110.394 203.96 110.324 203.89 110.272 203.82C97.882 184.798 91.897 169.328 90.7245 166.125C90.6195 165.828 90.8295 165.513 91.162 165.513H143.924C144.187 165.513 144.397 165.74 144.379 166.003L142.157 213.743C142.157 214.023 141.894 214.233 141.632 214.18V214.163Z" fill="white"/>
</mask>
<g mask="url(#mask2_1226_12889)">
<path d="M101.977 165.513H90.6016V214.233H101.977V165.513Z" fill="#8BC0FA"/>
<path d="M102.414 165.513H101.977V214.233H102.414V165.513Z" fill="#8BC0FA"/>
<path d="M102.852 165.513H102.414V214.233H102.852V165.513Z" fill="#8BC0FA"/>
<path d="M103.289 165.513H102.852V214.233H103.289V165.513Z" fill="#8BC0FA"/>
<path d="M103.727 165.513H103.289V214.233H103.727V165.513Z" fill="#8BC0FA"/>
<path d="M104.164 165.513H103.727V214.233H104.164V165.513Z" fill="#8BC0FA"/>
<path d="M104.619 165.513H104.182V214.233H104.619V165.513Z" fill="#8BC0FA"/>
<path d="M105.057 165.513H104.619V214.233H105.057V165.513Z" fill="#8BC0FA"/>
<path d="M105.494 165.513H105.057V214.233H105.494V165.513Z" fill="#8BC0FA"/>
<path d="M105.932 165.513H105.494V214.233H105.932V165.513Z" fill="#8BC0FA"/>
<path d="M106.369 165.513H105.932V214.233H106.369V165.513Z" fill="#8BC0FA"/>
<path d="M106.807 165.513H106.369V214.233H106.807V165.513Z" fill="#8BC0FA"/>
<path d="M107.244 165.513H106.807V214.233H107.244V165.513Z" fill="#8BC0FA"/>
<path d="M107.682 165.513H107.244V214.233H107.682V165.513Z" fill="#8BC0FA"/>
<path d="M108.119 165.513H107.682V214.233H108.119V165.513Z" fill="#8BC0FA"/>
<path d="M108.557 165.513H108.119V214.233H108.557V165.513Z" fill="#8BC0FA"/>
<path d="M108.994 165.513H108.557V214.233H108.994V165.513Z" fill="#8BC0FA"/>
<path d="M109.432 165.513H108.994V214.233H109.432V165.513Z" fill="#8BC0FA"/>
<path d="M109.869 165.513H109.432V214.233H109.869V165.513Z" fill="#8BC0FA"/>
<path d="M110.307 165.513H109.869V214.233H110.307V165.513Z" fill="#8BC0FA"/>
<path d="M110.744 165.513H110.307V214.233H110.744V165.513Z" fill="#8BC0FA"/>
<path d="M111.199 165.513H110.762V214.233H111.199V165.513Z" fill="#8BC0FA"/>
<path d="M111.637 165.513H111.199V214.233H111.637V165.513Z" fill="#8BC0FA"/>
<path d="M112.074 165.513H111.637V214.233H112.074V165.513Z" fill="#8BC0FA"/>
<path d="M112.512 165.513H112.074V214.233H112.512V165.513Z" fill="#8BC0FA"/>
<path d="M112.949 165.513H112.512V214.233H112.949V165.513Z" fill="#8BC0FA"/>
<path d="M113.387 165.513H112.949V214.233H113.387V165.513Z" fill="#8BC0FA"/>
<path d="M113.824 165.513H113.387V214.233H113.824V165.513Z" fill="#8BC0FA"/>
<path d="M114.262 165.513H113.824V214.233H114.262V165.513Z" fill="#8BC0FA"/>
<path d="M114.699 165.513H114.262V214.233H114.699V165.513Z" fill="#8BC0FA"/>
<path d="M115.137 165.513H114.699V214.233H115.137V165.513Z" fill="#8BC0FA"/>
<path d="M115.574 165.513H115.137V214.233H115.574V165.513Z" fill="#8BC0FA"/>
<path d="M116.012 165.513H115.574V214.233H116.012V165.513Z" fill="#8BC0FA"/>
<path d="M116.449 165.513H116.012V214.233H116.449V165.513Z" fill="#8BC0FA"/>
<path d="M116.887 165.513H116.449V214.233H116.887V165.513Z" fill="#8BC0FA"/>
<path d="M117.394 165.513H116.887V214.233H117.394V165.513Z" fill="#8BC0FA"/>
<path d="M117.919 165.513H117.411V214.233H117.919V165.513Z" fill="#8BC0FA"/>
<path d="M118.426 165.513H117.919V214.233H118.426V165.513Z" fill="#8BC0FA"/>
<path d="M118.934 165.513H118.427V214.233H118.934V165.513Z" fill="#8BC0FA"/>
<path d="M119.441 165.513H118.934V214.233H119.441V165.513Z" fill="#8CC1FA"/>
<path d="M119.949 165.513H119.441V214.233H119.949V165.513Z" fill="#8FC1FA"/>
<path d="M120.457 165.513H119.949V214.233H120.457V165.513Z" fill="#90C2FA"/>
<path d="M120.965 165.513H120.457V214.233H120.965V165.513Z" fill="#90C2FA"/>
<path d="M121.471 165.513H120.964V214.233H121.471V165.513Z" fill="#92C2FB"/>
<path d="M121.979 165.513H121.472V214.233H121.979V165.513Z" fill="#95C2FB"/>
<path d="M122.487 165.513H121.979V214.233H122.487V165.513Z" fill="#96C3FB"/>
<path d="M122.994 165.513H122.486V214.233H122.994V165.513Z" fill="#95C3FB"/>
<path d="M123.502 165.513H122.994V214.233H123.502V165.513Z" fill="#96C4FB"/>
<path d="M124.027 165.513H123.52V214.233H124.027V165.513Z" fill="#99C4FB"/>
<path d="M124.534 165.513H124.026V214.233H124.534V165.513Z" fill="#9AC4FB"/>
<path d="M125.042 165.513H124.534V214.233H125.042V165.513Z" fill="#9AC5FB"/>
<path d="M125.549 165.513H125.042V214.233H125.549V165.513Z" fill="#9CC5FB"/>
<path d="M126.056 165.513H125.549V214.233H126.056V165.513Z" fill="#9EC5FB"/>
<path d="M126.564 165.513H126.057V214.233H126.564V165.513Z" fill="#9EC5FB"/>
<path d="M127.072 165.513H126.564V214.233H127.072V165.513Z" fill="#A0C6FB"/>
<path d="M127.579 165.513H127.071V214.233H127.579V165.513Z" fill="#A0C6FB"/>
<path d="M128.087 165.513H127.579V214.233H128.087V165.513Z" fill="#A0C6FB"/>
<path d="M128.594 165.513H128.087V214.233H128.594V165.513Z" fill="#A0C6FB"/>
<path d="M129.101 165.513H128.594V214.233H129.101V165.513Z" fill="#A0C6FB"/>
<path d="M129.609 165.513H129.102V214.233H129.609V165.513Z" fill="#92C5FA"/>
<path d="M130.134 165.513H129.627V214.233H130.134V165.513Z" fill="#95C5FA"/>
<path d="M130.641 165.513H130.134V214.233H130.641V165.513Z" fill="#97C5FA"/>
<path d="M131.149 165.513H130.642V214.233H131.149V165.513Z" fill="#97C6FA"/>
<path d="M131.657 165.513H131.149V214.233H131.657V165.513Z" fill="#99C7FB"/>
<path d="M132.164 165.513H131.656V214.233H132.164V165.513Z" fill="#9CC7FB"/>
<path d="M132.672 165.513H132.164V214.233H132.672V165.513Z" fill="#9EC7FB"/>
<path d="M133.179 165.513H132.672V214.233H133.179V165.513Z" fill="#9CC8FB"/>
<path d="M133.686 165.513H133.179V214.233H133.686V165.513Z" fill="#9EC8FB"/>
<path d="M134.194 165.513H133.687V214.233H134.194V165.513Z" fill="#A1C9FB"/>
<path d="M134.702 165.513H134.194V214.233H134.702V165.513Z" fill="#A3C9FB"/>
<path d="M135.209 165.513H134.701V214.233H135.209V165.513Z" fill="#A3C9FB"/>
<path d="M135.716 165.513H135.209V214.233H135.716V165.513Z" fill="#A5CAFB"/>
<path d="M136.242 165.513H135.734V214.233H136.242V165.513Z" fill="#A8CAFB"/>
<path d="M136.749 165.513H136.241V214.233H136.749V165.513Z" fill="#AACAFB"/>
<path d="M137.257 165.513H136.749V214.233H137.257V165.513Z" fill="#AACBFB"/>
<path d="M137.764 165.513H137.257V214.233H137.764V165.513Z" fill="#ABCBFB"/>
<path d="M138.271 165.513H137.764V214.233H138.271V165.513Z" fill="#AFCCFB"/>
<path d="M138.779 165.513H138.271V214.233H138.779V165.513Z" fill="#ADCFFB"/>
<path d="M139.287 165.513H138.779V214.233H139.287V165.513Z" fill="#AFCCFC"/>
<path d="M139.794 165.513H139.286V214.233H139.794V165.513Z" fill="#ADCFFB"/>
<path d="M140.301 165.513H139.794V214.233H140.301V165.513Z" fill="#B0D0FB"/>
<path d="M140.809 165.513H140.302V214.233H140.809V165.513Z" fill="#B2D0FC"/>
<path d="M141.316 165.513H140.809V214.233H141.316V165.513Z" fill="#B3D0FC"/>
<path d="M141.841 165.513H141.334V214.233H141.841V165.513Z" fill="#B5D1FC"/>
<path d="M142.349 165.513H141.842V214.233H142.349V165.513Z" fill="#B5D2FC"/>
<path d="M142.856 165.513H142.349V214.233H142.856V165.513Z" fill="#BAD1FC"/>
<path d="M143.364 165.513H142.856V214.233H143.364V165.513Z" fill="#BAD2FC"/>
<path d="M143.872 165.513H143.364V214.233H143.872V165.513Z" fill="#BCD2FC"/>
<path d="M144.379 165.513H143.871V214.233H144.379V165.513Z" fill="#BDD3FC"/>
</g>
<path style="mix-blend-mode:multiply" opacity="0.5" d="M141.702 214.618C141.702 214.618 141.597 214.618 141.545 214.618C137.537 213.865 111.462 204.818 110.342 204.433C110.167 204.363 110.01 204.258 109.887 204.065C97.4271 184.903 91.3896 169.223 90.3046 166.265C90.1996 165.985 90.2521 165.688 90.4096 165.443C90.5846 165.198 90.8471 165.058 91.1446 165.058H143.907C144.152 165.058 144.38 165.163 144.555 165.338C144.73 165.513 144.817 165.758 144.8 166.003L142.577 213.743C142.577 214.005 142.437 214.25 142.227 214.408C142.07 214.53 141.877 214.6 141.685 214.6L141.702 214.618ZM91.1446 165.95C92.1946 168.908 98.1971 184.5 110.622 203.593C111.725 203.978 137.747 213.008 141.685 213.743L143.925 165.968H91.1446V165.95Z" fill="url(#paint23_linear_1226_12889)"/>
<g style="mix-blend-mode:soft-light" opacity="0.5">
<path d="M104.637 167.263C106.72 173.475 115.015 187.598 116.747 187.598C118.48 187.598 138.465 187.248 140.302 184.36C142.14 181.473 143.732 167.56 142.14 167.263C140.547 166.983 103.71 164.48 104.637 167.263Z" fill="white"/>
</g>
<g style="mix-blend-mode:soft-light" opacity="0.5">
<path d="M92.2642 166.58C94.8367 172.67 101.977 188.175 103.307 188.35C104.637 188.525 109.099 189.103 109.152 187.23C109.257 184.273 100.909 166.983 99.0367 166.58C97.1817 166.178 91.6167 165.075 92.2467 166.58H92.2642Z" fill="white"/>
</g>
<path style="mix-blend-mode:multiply" opacity="0.5" d="M104.619 190.398C104.374 192.323 111.549 202.228 112.757 203.033C113.947 203.838 138.149 211.643 139.759 210.523C141.352 209.403 142.192 188.963 140.862 188.368C139.532 187.773 104.899 188.263 104.637 190.398H104.619Z" fill="url(#paint24_linear_1226_12889)"/>
<path style="mix-blend-mode:multiply" opacity="0.5" d="M126.284 165.513C126.284 165.513 130.624 188.805 129.697 210.523L142.139 214.18L144.414 165.513H126.302H126.284Z" fill="url(#paint25_linear_1226_12889)"/>
<path d="M309.37 214.18C309.58 214.933 341.15 203.96 341.15 203.96C355.15 182.47 361.012 165.513 361.012 165.513H307.112L309.387 214.18H309.37Z" fill="url(#paint26_linear_1226_12889)"/>
<path d="M350.722 165.513C350.722 165.513 338.14 191.518 335.83 194.318L308.582 195.053V193.198C308.582 193.198 333.537 193.408 334.955 192.358C336.372 191.308 349.147 165.53 349.147 165.53H350.74L350.722 165.513Z" fill="#55777F"/>
<path d="M350.723 165.513L335.83 194.318C335.83 194.318 341.29 186.583 344.615 179.915C347.94 173.248 350.74 165.513 350.74 165.513H350.723Z" fill="white"/>
<g style="mix-blend-mode:soft-light" opacity="0.5">
<path d="M346.872 167.263C344.789 173.475 336.494 187.598 334.762 187.598C333.029 187.598 313.044 187.248 311.207 184.36C309.369 181.473 307.777 167.56 309.369 167.263C310.962 166.983 347.799 164.48 346.872 167.263Z" fill="white"/>
</g>
<g style="mix-blend-mode:soft-light" opacity="0.5">
<path d="M359.227 166.58C356.655 172.67 349.515 188.175 348.185 188.35C346.855 188.525 342.392 189.103 342.34 187.23C342.235 184.273 350.582 166.983 352.455 166.58C354.31 166.178 359.875 165.075 359.245 166.58H359.227Z" fill="white"/>
</g>
<path style="mix-blend-mode:multiply" opacity="0.5" d="M346.89 190.398C347.135 192.323 339.96 202.228 338.752 203.033C337.562 203.838 313.36 211.643 311.75 210.523C310.157 209.403 309.317 188.963 310.647 188.368C311.977 187.773 346.61 188.263 346.872 190.398H346.89Z" fill="url(#paint27_linear_1226_12889)"/>
<path style="mix-blend-mode:multiply" opacity="0.5" d="M325.207 165.513C325.207 165.513 320.867 188.805 321.795 210.523L309.352 214.18L307.077 165.513H325.19H325.207Z" fill="url(#paint28_linear_1226_12889)"/>
<mask id="mask3_1226_12889" style="mask-type:luminance" maskUnits="userSpaceOnUse" x="307" y="165" width="54" height="50">
<path d="M309.964 214.163C313.867 213.428 339.014 204.73 341.097 203.995C341.202 203.96 341.272 203.89 341.324 203.82C353.714 184.798 359.699 169.328 360.872 166.125C360.977 165.828 360.767 165.513 360.434 165.513H307.672C307.409 165.513 307.199 165.74 307.217 166.003L309.439 213.743C309.439 214.023 309.702 214.233 309.964 214.18V214.163Z" fill="white"/>
</mask>
<g mask="url(#mask3_1226_12889)">
<path d="M360.977 165.513H349.602V214.233H360.977V165.513Z" fill="#8FC1FA"/>
<path d="M349.602 165.513H349.164V214.233H349.602V165.513Z" fill="#8FC1FA"/>
<path d="M349.164 165.513H348.727V214.233H349.164V165.513Z" fill="#8FC1FA"/>
<path d="M348.727 165.513H348.289V214.233H348.727V165.513Z" fill="#8FC1FA"/>
<path d="M348.289 165.513H347.852V214.233H348.289V165.513Z" fill="#8FC1FA"/>
<path d="M347.852 165.513H347.414V214.233H347.852V165.513Z" fill="#8FC1FA"/>
<path d="M347.414 165.513H346.977V214.233H347.414V165.513Z" fill="#8FC1FA"/>
<path d="M346.977 165.513H346.539V214.233H346.977V165.513Z" fill="#8FC1FA"/>
<path d="M346.539 165.513H346.102V214.233H346.539V165.513Z" fill="#8FC1FA"/>
<path d="M346.102 165.513H345.664V214.233H346.102V165.513Z" fill="#8FC1FA"/>
<path d="M345.664 165.513H345.227V214.233H345.664V165.513Z" fill="#8FC1FA"/>
<path d="M345.209 165.513H344.771V214.233H345.209V165.513Z" fill="#8FC1FA"/>
<path d="M344.771 165.513H344.334V214.233H344.771V165.513Z" fill="#8FC1FA"/>
<path d="M344.334 165.513H343.896V214.233H344.334V165.513Z" fill="#8FC1FA"/>
<path d="M343.896 165.513H343.459V214.233H343.896V165.513Z" fill="#8FC1FA"/>
<path d="M343.459 165.513H343.021V214.233H343.459V165.513Z" fill="#8FC1FA"/>
<path d="M343.021 165.513H342.584V214.233H343.021V165.513Z" fill="#8FC1FA"/>
<path d="M342.584 165.513H342.146V214.233H342.584V165.513Z" fill="#8FC1FA"/>
<path d="M342.146 165.513H341.709V214.233H342.146V165.513Z" fill="#8FC1FA"/>
<path d="M341.709 165.513H341.271V214.233H341.709V165.513Z" fill="#8FC1FA"/>
<path d="M341.271 165.513H340.834V214.233H341.271V165.513Z" fill="#8FC1FA"/>
<path d="M340.834 165.513H340.396V214.233H340.834V165.513Z" fill="#8FC1FA"/>
<path d="M340.396 165.513H339.959V214.233H340.396V165.513Z" fill="#8FC1FA"/>
<path d="M339.959 165.513H339.521V214.233H339.959V165.513Z" fill="#8FC1FA"/>
<path d="M339.521 165.513H339.084V214.233H339.521V165.513Z" fill="#8FC1FA"/>
<path d="M339.084 165.513H338.646V214.233H339.084V165.513Z" fill="#8FC1FA"/>
<path d="M338.646 165.513H338.209V214.233H338.646V165.513Z" fill="#8FC1FA"/>
<path d="M338.191 165.513H337.754V214.233H338.191V165.513Z" fill="#8FC1FA"/>
<path d="M337.754 165.513H337.316V214.233H337.754V165.513Z" fill="#8FC1FA"/>
<path d="M337.316 165.513H336.879V214.233H337.316V165.513Z" fill="#8FC1FA"/>
<path d="M336.879 165.513H336.441V214.233H336.879V165.513Z" fill="#8FC1FA"/>
<path d="M336.441 165.513H336.004V214.233H336.441V165.513Z" fill="#8FC1FA"/>
<path d="M336.004 165.513H335.566V214.233H336.004V165.513Z" fill="#8FC1FA"/>
<path d="M335.566 165.513H335.129V214.233H335.566V165.513Z" fill="#8FC1FA"/>
<path d="M335.129 165.513H334.691V214.233H335.129V165.513Z" fill="#8FC1FA"/>
<path d="M334.692 165.513H334.185V214.233H334.692V165.513Z" fill="#8FC1FA"/>
<path d="M334.184 165.513H333.677V214.233H334.184V165.513Z" fill="#89C0FA"/>
<path d="M333.676 165.513H333.169V214.233H333.676V165.513Z" fill="#8BC0FA"/>
<path d="M333.17 165.513H332.662V214.233H333.17V165.513Z" fill="#8BC0FA"/>
<path d="M332.662 165.513H332.154V214.233H332.662V165.513Z" fill="#8CC1FA"/>
<path d="M332.136 165.513H331.629V214.233H332.136V165.513Z" fill="#8FC1FA"/>
<path d="M331.63 165.513H331.122V214.233H331.63V165.513Z" fill="#90C2FA"/>
<path d="M331.122 165.513H330.614V214.233H331.122V165.513Z" fill="#90C2FA"/>
<path d="M330.614 165.513H330.106V214.233H330.614V165.513Z" fill="#92C2FB"/>
<path d="M330.107 165.513H329.6V214.233H330.107V165.513Z" fill="#95C2FB"/>
<path d="M329.599 165.513H329.092V214.233H329.599V165.513Z" fill="#96C3FB"/>
<path d="M329.091 165.513H328.584V214.233H329.091V165.513Z" fill="#95C3FB"/>
<path d="M328.585 165.513H328.077V214.233H328.585V165.513Z" fill="#96C4FB"/>
<path d="M328.077 165.513H327.569V214.233H328.077V165.513Z" fill="#99C4FB"/>
<path d="M327.569 165.513H327.062V214.233H327.569V165.513Z" fill="#9AC4FB"/>
<path d="M327.062 165.513H326.555V214.233H327.062V165.513Z" fill="#9AC5FB"/>
<path d="M326.554 165.513H326.047V214.233H326.554V165.513Z" fill="#9CC5FB"/>
<path d="M326.029 165.513H325.521V214.233H326.029V165.513Z" fill="#9EC5FB"/>
<path d="M325.522 165.513H325.015V214.233H325.522V165.513Z" fill="#9EC5FB"/>
<path d="M325.014 165.513H324.507V214.233H325.014V165.513Z" fill="#9EC5FB"/>
<path d="M324.507 165.513H323.999V214.233H324.507V165.513Z" fill="#9EC5FB"/>
<path d="M324 165.513H323.492V214.233H324V165.513Z" fill="#9EC5FB"/>
<path d="M323.492 165.513H322.984V214.233H323.492V165.513Z" fill="#9EC5FB"/>
<path d="M322.984 165.513H322.477V214.233H322.984V165.513Z" fill="#9EC5FB"/>
<path d="M322.476 165.513H321.969V214.233H322.476V165.513Z" fill="#92C5FA"/>
<path d="M321.969 165.513H321.462V214.233H321.969V165.513Z" fill="#95C5FA"/>
<path d="M321.462 165.513H320.954V214.233H321.462V165.513Z" fill="#97C5FA"/>
<path d="M320.954 165.513H320.446V214.233H320.954V165.513Z" fill="#97C6FA"/>
<path d="M320.447 165.513H319.939V214.233H320.447V165.513Z" fill="#99C7FB"/>
<path d="M319.922 165.513H319.414V214.233H319.922V165.513Z" fill="#9CC7FB"/>
<path d="M319.414 165.513H318.906V214.233H319.414V165.513Z" fill="#9EC7FB"/>
<path d="M318.907 165.513H318.399V214.233H318.907V165.513Z" fill="#9CC8FB"/>
<path d="M318.399 165.513H317.892V214.233H318.399V165.513Z" fill="#9EC8FB"/>
<path d="M317.891 165.513H317.384V214.233H317.891V165.513Z" fill="#A1C9FB"/>
<path d="M317.384 165.513H316.877V214.233H317.384V165.513Z" fill="#A3C9FB"/>
<path d="M316.877 165.513H316.369V214.233H316.877V165.513Z" fill="#A3C9FB"/>
<path d="M316.369 165.513H315.861V214.233H316.369V165.513Z" fill="#A5CAFB"/>
<path d="M315.862 165.513H315.354V214.233H315.862V165.513Z" fill="#A8CAFB"/>
<path d="M315.354 165.513H314.847V214.233H315.354V165.513Z" fill="#AACAFB"/>
<path d="M314.846 165.513H314.339V214.233H314.846V165.513Z" fill="#AACBFB"/>
<path d="M314.34 165.513H313.832V214.233H314.34V165.513Z" fill="#ABCBFB"/>
<path d="M313.814 165.513H313.307V214.233H313.814V165.513Z" fill="#AFCCFB"/>
<path d="M313.306 165.513H312.799V214.233H313.306V165.513Z" fill="#ADCFFB"/>
<path d="M312.799 165.513H312.292V214.233H312.799V165.513Z" fill="#AFCCFC"/>
<path d="M312.292 165.513H311.784V214.233H312.292V165.513Z" fill="#ADCFFB"/>
<path d="M311.784 165.513H311.276V214.233H311.784V165.513Z" fill="#B0D0FB"/>
<path d="M311.277 165.513H310.77V214.233H311.277V165.513Z" fill="#B2D0FC"/>
<path d="M310.769 165.513H310.262V214.233H310.769V165.513Z" fill="#B3D0FC"/>
<path d="M310.261 165.513H309.754V214.233H310.261V165.513Z" fill="#B5D1FC"/>
<path d="M309.755 165.513H309.247V214.233H309.755V165.513Z" fill="#B5D2FC"/>
<path d="M309.247 165.513H308.739V214.233H309.247V165.513Z" fill="#BAD1FC"/>
<path d="M308.739 165.513H308.231V214.233H308.739V165.513Z" fill="#BAD2FC"/>
<path d="M308.232 165.513H307.725V214.233H308.232V165.513Z" fill="#BCD2FC"/>
<path d="M307.707 165.513H307.199V214.233H307.707V165.513Z" fill="#BDD3FC"/>
</g>
<path style="mix-blend-mode:multiply" opacity="0.5" d="M309.334 214.425C309.124 214.268 309.002 214.023 308.984 213.76L306.762 166.02C306.762 165.775 306.849 165.53 307.007 165.355C307.182 165.18 307.409 165.075 307.654 165.075H360.417C360.714 165.075 360.994 165.215 361.152 165.46C361.327 165.705 361.362 166.003 361.257 166.283C360.172 169.223 354.134 184.903 341.657 204.065C341.534 204.24 341.394 204.363 341.202 204.433C340.099 204.818 314.024 213.865 309.999 214.618C309.947 214.618 309.894 214.618 309.842 214.618C309.649 214.618 309.457 214.548 309.299 214.425H309.334ZM307.637 165.968L309.877 213.743C313.832 213.008 339.837 203.978 340.939 203.593C353.364 184.5 359.367 168.908 360.417 165.95H307.619L307.637 165.968Z" fill="url(#paint29_linear_1226_12889)"/>
<g style="mix-blend-mode:soft-light" opacity="0.5">
<path d="M346.941 167.263C344.859 173.475 336.564 187.598 334.831 187.598C333.099 187.598 313.114 187.248 311.276 184.36C309.439 181.473 307.846 167.543 309.439 167.263C311.031 166.983 347.869 164.48 346.941 167.263Z" fill="white"/>
</g>
<g style="mix-blend-mode:soft-light" opacity="0.5">
<path d="M359.314 166.58C356.742 172.67 349.602 188.175 348.272 188.35C346.942 188.525 342.479 189.103 342.427 187.23C342.322 184.273 350.669 166.983 352.542 166.58C354.397 166.178 359.962 165.093 359.332 166.58H359.314Z" fill="white"/>
</g>
<path style="mix-blend-mode:multiply" opacity="0.5" d="M346.959 190.398C347.204 192.323 340.029 202.228 338.822 203.033C337.632 203.838 313.429 211.643 311.819 210.523C310.227 209.403 309.387 188.963 310.717 188.368C312.047 187.773 346.679 188.263 346.942 190.398H346.959Z" fill="url(#paint30_linear_1226_12889)"/>
<path style="mix-blend-mode:multiply" opacity="0.5" d="M325.294 165.513C325.294 165.513 320.954 188.805 321.882 210.523L309.439 214.18L307.164 165.513H325.277H325.294Z" fill="url(#paint31_linear_1226_12889)"/>
<path style="mix-blend-mode:color-dodge" opacity="0.5" d="M135.927 177.588C145.525 177.588 153.305 169.807 153.305 160.21C153.305 150.613 145.525 142.833 135.927 142.833C126.33 142.833 118.55 150.613 118.55 160.21C118.55 169.807 126.33 177.588 135.927 177.588Z" fill="url(#paint32_radial_1226_12889)"/>
<path style="mix-blend-mode:color-dodge" opacity="0.5" d="M313.658 177.045C323.255 177.045 331.035 169.265 331.035 159.668C331.035 150.07 323.255 142.29 313.658 142.29C304.06 142.29 296.28 150.07 296.28 159.668C296.28 169.265 304.06 177.045 313.658 177.045Z" fill="url(#paint33_radial_1226_12889)"/>
<mask id="mask4_1226_12889" style="mask-type:luminance" maskUnits="userSpaceOnUse" x="136" y="48" width="178" height="224">
<path d="M224.897 48.5073L136.645 99.4498V221.022L224.897 271.965L313.132 221.022V99.4498L224.897 48.5073Z" fill="white"/>
</mask>
<g mask="url(#mask4_1226_12889)">
<path d="M313.132 235.495H136.645V271.965H313.132V235.495Z" fill="#81A7FA"/>
<path d="M313.132 234.585H136.645V235.495H313.132V234.585Z" fill="#81A7FA"/>
<path d="M313.132 233.675H136.645V234.585H313.132V233.675Z" fill="#81A7FA"/>
<path d="M313.132 232.747H136.645V233.657H313.132V232.747Z" fill="#80A8F6"/>
<path d="M313.132 231.837H136.645V232.747H313.132V231.837Z" fill="#80A4F6"/>
<path d="M313.132 230.91H136.645V231.82H313.132V230.91Z" fill="#809FF6"/>
<path d="M313.132 230H136.645V230.91H313.132V230Z" fill="#7F9DF6"/>
<path d="M313.132 229.072H136.645V229.982H313.132V229.072Z" fill="#7D9EF5"/>
<path d="M313.132 228.162H136.645V229.072H313.132V228.162Z" fill="#7D9CF4"/>
<path d="M313.132 227.235H136.645V228.145H313.132V227.235Z" fill="#7D9CF4"/>
<path d="M313.132 226.325H136.645V227.235H313.132V226.325Z" fill="#7D9CF4"/>
<path d="M313.132 225.415H136.645V226.325H313.132V225.415Z" fill="#7D9CF4"/>
<path d="M313.132 224.487H136.645V225.397H313.132V224.487Z" fill="#83A8F7"/>
<path d="M313.132 223.577H136.645V224.487H313.132V223.577Z" fill="#83A8F7"/>
<path d="M313.132 222.65H136.645V223.56H313.132V222.65Z" fill="#83A8F7"/>
<path d="M313.132 221.74H136.645V222.65H313.132V221.74Z" fill="#83A8F7"/>
<path d="M313.132 220.812H136.645V221.722H313.132V220.812Z" fill="#83A8F7"/>
<path d="M313.132 219.902H136.645V220.812H313.132V219.902Z" fill="#83A8F7"/>
<path d="M313.132 218.992H136.645V219.902H313.132V218.992Z" fill="#84B9FA"/>
<path d="M313.132 218.065H136.645V218.975H313.132V218.065Z" fill="#84B9FA"/>
<path d="M313.132 217.155H136.645V218.065H313.132V217.155Z" fill="#84B9FA"/>
<path d="M313.132 216.228H136.645V217.138H313.132V216.228Z" fill="#84B9FA"/>
<path d="M313.132 215.317H136.645V216.227H313.132V215.317Z" fill="#84B9FA"/>
<path d="M313.132 214.39H136.645V215.3H313.132V214.39Z" fill="#82BCFA"/>
<path d="M313.132 213.48H136.645V214.39H313.132V213.48Z" fill="#82BCFA"/>
<path d="M313.132 212.552H136.645V213.462H313.132V212.552Z" fill="#82BCFA"/>
<path d="M313.132 211.643H136.645V212.553H313.132V211.643Z" fill="#82BCFA"/>
<path d="M313.132 210.732H136.645V211.642H313.132V210.732Z" fill="#82BCFA"/>
<path d="M313.132 209.805H136.645V210.715H313.132V209.805Z" fill="#82BCFA"/>
<path d="M313.132 208.895H136.645V209.805H313.132V208.895Z" fill="#82BCFA"/>
<path d="M313.132 207.967H136.645V208.877H313.132V207.967Z" fill="#82BCFA"/>
<path d="M313.132 207.057H136.645V207.967H313.132V207.057Z" fill="#82BCFA"/>
<path d="M313.132 206.13H136.645V207.04H313.132V206.13Z" fill="#82BCFA"/>
<path d="M313.132 205.22H136.645V206.13H313.132V205.22Z" fill="#82BCFA"/>
<path d="M313.132 204.292H136.645V205.202H313.132V204.292Z" fill="#82BCFA"/>
<path d="M313.132 203.382H136.645V204.292H313.132V203.382Z" fill="#89B9FA"/>
<path d="M313.132 202.472H136.645V203.382H313.132V202.472Z" fill="#89B9FA"/>
<path d="M313.132 201.545H136.645V202.455H313.132V201.545Z" fill="#89B9FA"/>
<path d="M313.132 200.635H136.645V201.545H313.132V200.635Z" fill="#89B9FA"/>
<path d="M313.132 199.708H136.645V200.618H313.132V199.708Z" fill="#89B9FA"/>
<path d="M313.132 198.797H136.645V199.707H313.132V198.797Z" fill="#89B9FA"/>
<path d="M313.132 197.87H136.645V198.78H313.132V197.87Z" fill="#89B9FA"/>
<path d="M313.132 196.96H136.645V197.87H313.132V196.96Z" fill="#89B9FA"/>
<path d="M313.132 196.05H136.645V196.96H313.132V196.05Z" fill="#84B2F8"/>
<path d="M313.132 195.122H136.645V196.032H313.132V195.122Z" fill="#84B2F8"/>
<path d="M313.132 194.212H136.645V195.122H313.132V194.212Z" fill="#84B2F8"/>
<path d="M313.132 193.285H136.645V194.195H313.132V193.285Z" fill="#84B2F8"/>
<path d="M313.132 192.375H136.645V193.285H313.132V192.375Z" fill="#84B2F8"/>
<path d="M313.132 191.447H136.645V192.357H313.132V191.447Z" fill="#84B2F8"/>
<path d="M313.132 190.537H136.645V191.447H313.132V190.537Z" fill="#84B2F8"/>
<path d="M313.132 189.61H136.645V190.52H313.132V189.61Z" fill="#84B2F8"/>
<path d="M313.132 188.7H136.645V189.61H313.132V188.7Z" fill="#84B2F8"/>
<path d="M313.132 187.79H136.645V188.7H313.132V187.79Z" fill="#84B2F8"/>
<path d="M313.132 186.862H136.645V187.772H313.132V186.862Z" fill="#84B2F8"/>
<path d="M313.132 185.952H136.645V186.862H313.132V185.952Z" fill="#84B2F8"/>
<path d="M313.132 185.025H136.645V185.935H313.132V185.025Z" fill="#84B2F8"/>
<path d="M313.132 184.115H136.645V185.025H313.132V184.115Z" fill="#84B2F8"/>
<path d="M313.132 183.188H136.645V184.097H313.132V183.188Z" fill="#84B2F8"/>
<path d="M313.132 182.277H136.645V183.187H313.132V182.277Z" fill="#84B2F8"/>
<path d="M313.132 181.402H136.645V182.277H313.132V181.402Z" fill="#84B2F8"/>
<path d="M313.132 180.527H136.645V181.402H313.132V180.527Z" fill="#84B2F8"/>
<path d="M313.132 179.652H136.645V180.527H313.132V179.652Z" fill="#84B2F8"/>
<path d="M313.132 178.777H136.645V179.652H313.132V178.777Z" fill="#84B2F8"/>
<path d="M313.132 177.902H136.645V178.777H313.132V177.902Z" fill="#84B2F8"/>
<path d="M313.132 177.027H136.645V177.902H313.132V177.027Z" fill="#84B2F8"/>
<path d="M313.132 176.152H136.645V177.027H313.132V176.152Z" fill="#84B2F8"/>
<path d="M313.132 175.277H136.645V176.152H313.132V175.277Z" fill="#84B2F8"/>
<path d="M313.132 174.385H136.645V175.26H313.132V174.385Z" fill="#84B2F8"/>
<path d="M313.132 173.51H136.645V174.385H313.132V173.51Z" fill="#84B2F8"/>
<path d="M313.132 172.635H136.645V173.51H313.132V172.635Z" fill="#84B2F8"/>
<path d="M313.132 171.76H136.645V172.635H313.132V171.76Z" fill="#84B2F8"/>
<path d="M313.132 170.885H136.645V171.76H313.132V170.885Z" fill="#84B2F8"/>
<path d="M313.132 170.01H136.645V170.885H313.132V170.01Z" fill="#84B2F8"/>
<path d="M313.132 169.135H136.645V170.01H313.132V169.135Z" fill="#84B2F8"/>
<path d="M313.132 168.26H136.645V169.135H313.132V168.26Z" fill="#84B2F8"/>
<path d="M313.132 167.385H136.645V168.26H313.132V167.385Z" fill="#84B2F8"/>
<path d="M313.132 166.51H136.645V167.385H313.132V166.51Z" fill="#84B2F8"/>
<path d="M313.132 165.635H136.645V166.51H313.132V165.635Z" fill="#84B2F8"/>
<path d="M313.132 164.76H136.645V165.635H313.132V164.76Z" fill="#84B2F8"/>
<path d="M313.132 163.885H136.645V164.76H313.132V163.885Z" fill="#84B2F8"/>
<path d="M313.132 163.01H136.645V163.885H313.132V163.01Z" fill="#84B2F8"/>
<path d="M313.132 162.135H136.645V163.01H313.132V162.135Z" fill="#84B2F8"/>
<path d="M313.132 161.26H136.645V162.135H313.132V161.26Z" fill="#84B2F8"/>
<path d="M313.132 160.385H136.645V161.26H313.132V160.385Z" fill="#84B2F8"/>
<path d="M313.132 159.51H136.645V160.385H313.132V159.51Z" fill="#84A9F9"/>
<path d="M313.132 158.635H136.645V159.51H313.132V158.635Z" fill="#84A9F9"/>
<path d="M313.132 157.76H136.645V158.635H313.132V157.76Z" fill="#84A9F9"/>
<path d="M313.132 156.885H136.645V157.76H313.132V156.885Z" fill="#84A9F9"/>
<path d="M313.132 156.01H136.645V156.885H313.132V156.01Z" fill="#84A9F9"/>
<path d="M313.132 155.117H136.645V155.992H313.132V155.117Z" fill="#84A9F9"/>
<path d="M313.132 154.242H136.645V155.117H313.132V154.242Z" fill="#84A9F9"/>
<path d="M313.132 153.367H136.645V154.242H313.132V153.367Z" fill="#84A9F9"/>
<path d="M313.132 152.492H136.645V153.367H313.132V152.492Z" fill="#84A9F9"/>
<path d="M313.132 151.617H136.645V152.492H313.132V151.617Z" fill="#84A9F9"/>
<path d="M313.132 150.742H136.645V151.617H313.132V150.742Z" fill="#84A9F9"/>
<path d="M313.132 149.867H136.645V150.742H313.132V149.867Z" fill="#84A9F9"/>
<path d="M313.132 148.992H136.645V149.867H313.132V148.992Z" fill="#84A9F9"/>
<path d="M313.132 148.117H136.645V148.992H313.132V148.117Z" fill="#84A9F9"/>
<path d="M313.132 147.242H136.645V148.117H313.132V147.242Z" fill="#84A9F9"/>
<path d="M313.132 146.367H136.645V147.242H313.132V146.367Z" fill="#84A9F9"/>
<path d="M313.132 145.492H136.645V146.367H313.132V145.492Z" fill="#84A9F9"/>
<path d="M313.132 144.617H136.645V145.492H313.132V144.617Z" fill="#84A9F9"/>
<path d="M313.132 143.742H136.645V144.617H313.132V143.742Z" fill="#84A9F9"/>
<path d="M313.132 142.867H136.645V143.742H313.132V142.867Z" fill="#84A9F9"/>
<path d="M313.132 141.992H136.645V142.867H313.132V141.992Z" fill="#85A9FA"/>
<path d="M313.132 141.117H136.645V141.992H313.132V141.117Z" fill="#86A9FA"/>
<path d="M313.132 140.242H136.645V141.117H313.132V140.242Z" fill="#86ABFA"/>
<path d="M313.132 139.367H136.645V140.242H313.132V139.367Z" fill="#86ABFA"/>
<path d="M313.132 138.492H136.645V139.367H313.132V138.492Z" fill="#86ABFA"/>
<path d="M313.132 137.617H136.645V138.492H313.132V137.617Z" fill="#86ABFA"/>
<path d="M313.132 136.742H136.645V137.617H313.132V136.742Z" fill="#86ABFA"/>
<path d="M313.132 135.85H136.645V136.725H313.132V135.85Z" fill="#86ABFA"/>
<path d="M313.132 134.975H136.645V135.85H313.132V134.975Z" fill="#86ABFA"/>
<path d="M313.132 134.1H136.645V134.975H313.132V134.1Z" fill="#86ABFA"/>
<path d="M313.132 133.225H136.645V134.1H313.132V133.225Z" fill="#86ABFA"/>
<path d="M313.132 132.35H136.645V133.225H313.132V132.35Z" fill="#86ABFA"/>
<path d="M313.132 131.475H136.645V132.35H313.132V131.475Z" fill="#86ABFA"/>
<path d="M313.132 130.6H136.645V131.475H313.132V130.6Z" fill="#86ABFA"/>
<path d="M313.132 129.725H136.645V130.6H313.132V129.725Z" fill="#86ABFA"/>
<path d="M313.132 128.85H136.645V129.725H313.132V128.85Z" fill="#86ABFA"/>
<path d="M313.132 127.975H136.645V128.85H313.132V127.975Z" fill="#86ABFA"/>
<path d="M313.132 127.1H136.645V127.975H313.132V127.1Z" fill="#86ABFA"/>
<path d="M313.132 126.225H136.645V127.1H313.132V126.225Z" fill="#86ABFA"/>
<path d="M313.132 125.35H136.645V126.225H313.132V125.35Z" fill="#86ABFA"/>
<path d="M313.132 124.475H136.645V125.35H313.132V124.475Z" fill="#86ABFA"/>
<path d="M313.132 123.6H136.645V124.475H313.132V123.6Z" fill="#86ABFA"/>
<path d="M313.132 122.725H136.645V123.6H313.132V122.725Z" fill="#86ABFA"/>
<path d="M313.132 121.85H136.645V122.725H313.132V121.85Z" fill="#86ABFA"/>
<path d="M313.132 120.975H136.645V121.85H313.132V120.975Z" fill="#86ABFA"/>
<path d="M313.132 120.1H136.645V120.975H313.132V120.1Z" fill="#83ACF7"/>
<path d="M313.132 119.225H136.645V120.1H313.132V119.225Z" fill="#84ACF7"/>
<path d="M313.132 118.35H136.645V119.225H313.132V118.35Z" fill="#83B4F7"/>
<path d="M313.132 117.475H136.645V118.35H313.132V117.475Z" fill="#84B7F7"/>
<path d="M313.132 116.583H136.645V117.458H313.132V116.583Z" fill="#84BBF8"/>
<path d="M313.132 115.708H136.645V116.583H313.132V115.708Z" fill="#85BBF8"/>
<path d="M313.132 114.833H136.645V115.708H313.132V114.833Z" fill="#89B9FA"/>
<path d="M313.132 113.958H136.645V114.833H313.132V113.958Z" fill="#89B9FA"/>
<path d="M313.132 113.083H136.645V113.958H313.132V113.083Z" fill="#85BCFA"/>
<path d="M313.132 112.208H136.645V113.083H313.132V112.208Z" fill="#8EBCFA"/>
<path d="M313.132 111.333H136.645V112.208H313.132V111.333Z" fill="#8BBFFA"/>
<path d="M313.132 110.458H136.645V111.333H313.132V110.458Z" fill="#8BC0FA"/>
<path d="M313.132 109.583H136.645V110.458H313.132V109.583Z" fill="#88C1FA"/>
<path d="M313.132 108.708H136.645V109.583H313.132V108.708Z" fill="#8DC1FA"/>
<path d="M313.132 107.833H136.645V108.708H313.132V107.833Z" fill="#8EC2FA"/>
<path d="M313.132 106.958H136.645V107.833H313.132V106.958Z" fill="#89C4FB"/>
<path d="M313.132 106.083H136.645V106.958H313.132V106.083Z" fill="#8BC5FB"/>
<path d="M313.132 105.208H136.645V106.083H313.132V105.208Z" fill="#90C5FB"/>
<path d="M313.132 104.333H136.645V105.208H313.132V104.333Z" fill="#90C6FB"/>
<path d="M313.132 103.458H136.645V104.333H313.132V103.458Z" fill="#8BC5FB"/>
<path d="M313.132 102.583H136.645V103.458H313.132V102.583Z" fill="#94C7FB"/>
<path d="M313.132 101.708H136.645V102.583H313.132V101.708Z" fill="#8BC5FB"/>
<path d="M313.132 100.833H136.645V101.708H313.132V100.833Z" fill="#8BC5FB"/>
<path d="M313.132 99.9575H136.645V100.833H313.132V99.9575Z" fill="#8BC5FB"/>
<path d="M313.132 99.0825H136.645V99.9575H313.132V99.0825Z" fill="#9FCFF7"/>
<path d="M313.132 98.2075H136.645V99.0825H313.132V98.2075Z" fill="#9FCFF7"/>
<path d="M313.132 97.3149H136.645V98.1899H313.132V97.3149Z" fill="#9FCFF7"/>
<path d="M313.132 96.4399H136.645V97.3149H313.132V96.4399Z" fill="#9FCFF7"/>
<path d="M313.132 95.5649H136.645V96.4399H313.132V95.5649Z" fill="#ABD2FC"/>
<path d="M313.132 94.6899H136.645V95.5649H313.132V94.6899Z" fill="#ADD3FC"/>
<path d="M313.132 93.8149H136.645V94.6899H313.132V93.8149Z" fill="#AAD4FC"/>
<path d="M313.132 92.9399H136.645V93.8149H313.132V92.9399Z" fill="#ABD5FC"/>
<path d="M313.132 92.0649H136.645V92.9399H313.132V92.0649Z" fill="#ADD5FC"/>
<path d="M313.132 91.1899H136.645V92.0649H313.132V91.1899Z" fill="#ADD6FC"/>
<path d="M313.132 90.3149H136.645V91.1899H313.132V90.3149Z" fill="#BCDBFD"/>
<path d="M313.132 89.4399H136.645V90.3149H313.132V89.4399Z" fill="#BAD7FD"/>
<path d="M313.132 88.5649H136.645V89.4399H313.132V88.5649Z" fill="#C1DCFD"/>
<path d="M313.132 87.6899H136.645V88.5649H313.132V87.6899Z" fill="#BDD8FD"/>
<path d="M313.132 86.8149H136.645V87.6899H313.132V86.8149Z" fill="#BED9FD"/>
<path d="M313.132 85.9399H136.645V86.8149H313.132V85.9399Z" fill="#BDDAFD"/>
<path d="M313.132 85.0649H136.645V85.9399H313.132V85.0649Z" fill="#BFDAFD"/>
<path d="M313.132 84.1899H136.645V85.0649H313.132V84.1899Z" fill="#C0DCFD"/>
<path d="M313.132 48.5073H136.645V84.1898H313.132V48.5073Z" fill="#C0DCFD"/>
</g>
<path style="mix-blend-mode:multiply" opacity="0.5" d="M224.897 272.473L224.687 272.35L136.225 221.268V99.205L136.435 99.0825L224.897 48L225.107 48.1225L313.57 99.205V221.268L313.36 221.39L224.897 272.473ZM137.082 220.76L224.897 271.458L312.712 220.76V99.7125L224.897 49.015L137.082 99.7125V220.76Z" fill="url(#paint34_linear_1226_12889)"/>
<path d="M152.604 211.8V108.673L224.897 66.9351L297.172 108.673V211.8L224.897 253.538L152.604 211.8Z" fill="url(#paint35_linear_1226_12889)"/>
<path d="M157.925 208.738V111.735L224.897 73.0776L291.852 111.735V208.738L224.897 247.395L157.925 208.738Z" fill="#86BEFA"/>
<g style="mix-blend-mode:soft-light" opacity="0.5">
<path d="M138.85 99.7825C137.765 103.055 147.145 107.062 153.742 105.627C160.357 104.192 222.465 67.7575 223.952 64.485C224.372 63.575 224.442 50.835 223.952 50.835C221.765 50.835 139.375 98.1725 138.832 99.7825H138.85Z" fill="white"/>
</g>
<g style="mix-blend-mode:soft-light" opacity="0.5">
<path d="M310.507 99.7825C311.592 103.055 302.212 107.062 295.615 105.627C289 104.192 227.487 67.4075 225.405 64.485C224.32 62.98 223.97 50.835 225.405 50.835C227.592 50.835 309.982 98.1725 310.525 99.7825H310.507Z" fill="white"/>
</g>
<path style="mix-blend-mode:multiply" opacity="0.5" d="M160.987 206.148C156.245 179.268 158.887 177.57 192.225 166.23C225.562 154.873 281.947 125.613 286.9 138.318C291.852 151.023 290.155 205.098 289.035 208.055C287.915 211.013 229.692 244.473 224.897 244.543" fill="url(#paint36_linear_1226_12889)"/>
<g style="mix-blend-mode:soft-light" opacity="0.3">
<path d="M290.417 112.417C289.245 112.137 228.73 77.155 225.3 77.4175C222.062 77.6625 179.887 97.385 162.597 112.277C157.995 116.25 159.675 175.592 163.927 174.49C168.18 173.405 171.347 149.412 218.195 135.937C264.307 122.672 284.38 134.152 289.367 136.2C290.785 136.777 293.077 113.047 290.4 112.4L290.417 112.417Z" fill="white"/>
</g>
<path style="mix-blend-mode:multiply" opacity="0.5" d="M152.604 211.8V108.673L224.897 66.9351L297.189 108.673V211.8L291.869 208.72C291.869 208.72 292.184 119.068 290.259 116.25C283.382 106.223 229.902 81.8276 221.134 84.5401C212.157 87.3226 164.609 107.57 159.289 116.075C157.504 118.945 157.942 208.72 157.942 208.72L152.622 211.8H152.604Z" fill="url(#paint37_linear_1226_12889)"/>
<path style="mix-blend-mode:color-dodge" opacity="0.5" d="M225.755 228.985C262.153 228.985 291.66 199.478 291.66 163.08C291.66 126.681 262.153 97.1748 225.755 97.1748C189.356 97.1748 159.85 126.681 159.85 163.08C159.85 199.478 189.356 228.985 225.755 228.985Z" fill="url(#paint38_radial_1226_12889)"/>
<path d="M278.272 160.332C273.197 155.625 268.105 150.935 263.03 146.227C262.82 138.772 262.61 131.317 262.4 123.862C255.242 123.6 248.085 123.355 240.927 123.092C235.922 118.14 230.935 113.187 225.93 108.217C221.012 113.135 216.095 118.052 211.195 122.952C203.827 123.285 196.46 123.635 189.075 123.967L188.445 144.547C183.65 149.675 178.872 154.802 174.077 159.93L189.197 175.435C188.935 182.645 188.69 189.837 188.427 197.047C195.795 197.082 203.162 197.135 210.547 197.17C215.762 202.245 220.96 207.337 226.175 212.412C231.18 207.25 236.167 202.07 241.172 196.907C248.33 196.942 255.487 196.995 262.645 197.03C262.767 189.995 262.907 182.96 263.03 175.925C268.105 170.71 273.197 165.512 278.272 160.297V160.332Z" fill="url(#paint39_linear_1226_12889)"/>
<path style="mix-blend-mode:multiply" opacity="0.5" d="M174.077 159.947C191.472 159.86 208.867 159.772 226.262 159.667C213.907 164.935 201.552 170.185 189.197 175.452L174.077 159.947Z" fill="url(#paint40_linear_1226_12889)"/>
<path style="mix-blend-mode:multiply" opacity="0.5" d="M278.272 160.333C260.929 160.123 243.587 159.895 226.244 159.685C238.512 165.11 250.762 170.535 263.029 175.978C268.104 170.763 273.197 165.565 278.272 160.35V160.333Z" fill="url(#paint41_linear_1226_12889)"/>
<path style="mix-blend-mode:multiply" opacity="0.5" d="M262.644 197.065L226.244 159.685C231.214 172.11 236.184 184.518 241.172 196.943C248.329 196.978 255.487 197.03 262.644 197.065Z" fill="url(#paint42_linear_1226_12889)"/>
<path style="mix-blend-mode:multiply" opacity="0.5" d="M210.547 197.188C215.779 184.693 221.012 172.18 226.262 159.685C213.662 172.145 201.044 184.605 188.444 197.065C195.812 197.1 203.179 197.153 210.564 197.188H210.547Z" fill="url(#paint43_linear_1226_12889)"/>
<path style="mix-blend-mode:multiply" opacity="0.5" d="M226.174 212.43C226.192 194.842 226.227 177.255 226.244 159.667C221.012 172.162 215.779 184.675 210.529 197.17C215.744 202.245 220.942 207.337 226.157 212.412L226.174 212.43Z" fill="url(#paint44_linear_1226_12889)"/>
<path style="mix-blend-mode:color-dodge" opacity="0.5" d="M262.399 123.862C250.359 135.797 238.302 147.75 226.262 159.685C231.144 147.487 236.044 135.29 240.927 123.11C248.084 123.372 255.242 123.617 262.399 123.88V123.862Z" fill="url(#paint45_linear_1226_12889)"/>
<path style="mix-blend-mode:color-dodge" opacity="0.5" d="M263.029 146.227L226.244 159.685C238.284 147.75 250.342 135.797 262.382 123.862C262.592 131.317 262.802 138.772 263.012 146.227H263.029Z" fill="url(#paint46_linear_1226_12889)"/>
<path style="mix-blend-mode:color-dodge" opacity="0.5" d="M278.272 160.333C260.929 160.123 243.587 159.895 226.244 159.685L263.029 146.228C268.104 150.935 273.197 155.625 278.272 160.333Z" fill="url(#paint47_linear_1226_12889)"/>
<path style="mix-blend-mode:color-dodge" opacity="0.5" d="M188.427 144.565C201.027 149.605 213.645 154.627 226.245 159.667C208.85 159.755 191.455 159.842 174.06 159.947C178.855 154.82 183.632 149.692 188.427 144.565Z" fill="url(#paint48_linear_1226_12889)"/>
<path style="mix-blend-mode:multiply" opacity="0.5" d="M278.272 160.332C273.022 160.262 267.772 160.192 262.504 160.14C259.109 163.832 255.714 167.525 252.319 171.235L262.627 197.065" fill="url(#paint49_linear_1226_12889)"/>
<path style="mix-blend-mode:multiply" opacity="0.5" d="M200.064 185.567C205.052 185.882 210.057 186.197 215.044 186.512C218.719 189.855 222.412 193.18 226.087 196.522C229.692 193.127 233.297 189.732 236.919 186.337C241.697 186.005 246.474 185.672 251.234 185.322C255.049 189.225 258.847 193.145 262.662 197.047C250.394 202.262 238.144 207.495 225.877 212.71C213.399 207.495 200.922 202.262 188.427 197.047C192.294 193.215 196.179 189.382 200.047 185.55L200.064 185.567Z" fill="url(#paint50_linear_1226_12889)"/>
<path style="mix-blend-mode:color-dodge" opacity="0.5" d="M188.427 144.565C201.027 149.605 213.644 154.627 226.244 159.667C213.854 147.767 201.447 135.867 189.057 123.967L188.427 144.547V144.565Z" fill="url(#paint51_linear_1226_12889)"/>
<path style="mix-blend-mode:color-dodge" opacity="0.5" d="M240.91 123.092C236.027 135.29 231.127 147.487 226.245 159.667C226.14 142.517 226.017 125.367 225.912 108.217C230.917 113.17 235.905 118.122 240.91 123.092Z" fill="url(#paint52_linear_1226_12889)"/>
<path style="mix-blend-mode:color-dodge" opacity="0.5" d="M211.177 122.97C216.199 135.202 221.222 147.435 226.244 159.685C226.139 142.535 226.017 125.385 225.912 108.235C220.994 113.152 216.077 118.07 211.177 122.97Z" fill="url(#paint53_linear_1226_12889)"/>
<path d="M226.086 122.83C229.691 126.225 233.296 129.62 236.919 133.015L226.261 159.685C222.429 150.847 218.596 141.992 214.764 133.155C218.544 129.725 222.324 126.277 226.104 122.847L226.086 122.83Z" fill="url(#paint54_linear_1226_12889)"/>
<path style="mix-blend-mode:multiply" opacity="0.5" d="M226.086 196.522C229.691 193.127 233.296 189.732 236.919 186.337L226.261 159.667L215.044 186.495C218.719 189.837 222.411 193.162 226.086 196.505V196.522Z" fill="url(#paint55_linear_1226_12889)"/>
<path d="M189.494 159.877C192.854 163.36 196.232 166.842 199.592 170.342C208.482 166.79 217.372 163.237 226.262 159.685C217.284 156.097 208.307 152.492 199.329 148.905C196.057 152.562 192.784 156.22 189.512 159.877H189.494Z" fill="url(#paint56_linear_1226_12889)"/>
<path d="M262.522 160.14C259.127 163.832 255.732 167.525 252.337 171.235C243.639 167.385 234.942 163.535 226.244 159.685C235.327 156.377 244.409 153.052 253.492 149.745C256.502 153.21 259.494 156.675 262.504 160.157L262.522 160.14Z" fill="url(#paint57_linear_1226_12889)"/>
<path style="mix-blend-mode:color-dodge" opacity="0.5" d="M211.177 122.97C216.199 135.202 221.222 147.435 226.244 159.685C213.854 147.785 201.447 135.885 189.057 123.985C196.424 123.652 203.792 123.302 211.177 122.97Z" fill="url(#paint58_linear_1226_12889)"/>
<path d="M252.179 133.505L253.492 149.728C244.409 153.053 235.327 156.36 226.244 159.668C229.779 150.708 233.332 141.748 236.867 132.77C241.977 133.015 247.069 133.243 252.179 133.488V133.505Z" fill="url(#paint59_linear_1226_12889)"/>
<path d="M200.327 133.505C199.994 138.632 199.662 143.76 199.329 148.905L226.262 159.685C222.727 150.725 219.174 141.765 215.639 132.787C210.529 133.032 205.437 133.26 200.327 133.505Z" fill="url(#paint60_linear_1226_12889)"/>
<path style="mix-blend-mode:multiply" opacity="0.5" d="M200.117 185.567C199.942 180.492 199.767 175.435 199.592 170.36C208.482 166.807 217.354 163.237 226.244 159.685L215.027 186.512C210.057 186.197 205.087 185.882 200.117 185.567Z" fill="url(#paint61_linear_1226_12889)"/>
<path style="mix-blend-mode:multiply" opacity="0.5" d="M251.217 185.322C251.584 180.615 251.952 175.925 252.337 171.217L226.244 159.667L236.902 186.337C241.679 186.005 246.457 185.672 251.217 185.322Z" fill="url(#paint62_linear_1226_12889)"/>
<path style="mix-blend-mode:color-dodge" opacity="0.5" d="M336.512 205.605C349.135 205.605 359.367 195.372 359.367 182.75C359.367 170.128 349.135 159.895 336.512 159.895C323.89 159.895 313.657 170.128 313.657 182.75C313.657 195.372 323.89 205.605 336.512 205.605Z" fill="url(#paint63_radial_1226_12889)"/>
<path style="mix-blend-mode:color-dodge" opacity="0.5" d="M115.522 205.605C128.144 205.605 138.377 195.372 138.377 182.75C138.377 170.128 128.144 159.895 115.522 159.895C102.9 159.895 92.667 170.128 92.667 182.75C92.667 195.372 102.9 205.605 115.522 205.605Z" fill="url(#paint64_radial_1226_12889)"/>
<path d="M345.507 176.258C346.645 175.173 346.715 169.608 346.715 169.608C346.715 169.608 346.872 175.453 347.607 176.083C348.307 176.695 352.525 177.5 352.525 177.5C352.525 177.5 348.5 177.658 347.747 178.323C347.222 178.795 346.715 184.5 346.715 184.5C346.715 184.5 346.295 179.425 345.525 178.69C344.755 177.955 341.22 177.5 341.22 177.5C341.22 177.5 344.632 177.098 345.507 176.258Z" fill="white"/>
<path style="mix-blend-mode:color-dodge" opacity="0.6" d="M346.889 189.12C353.558 189.12 358.964 183.714 358.964 177.045C358.964 170.376 353.558 164.97 346.889 164.97C340.221 164.97 334.814 170.376 334.814 177.045C334.814 183.714 340.221 189.12 346.889 189.12Z" fill="url(#paint65_radial_1226_12889)"/>
<path d="M205.069 245.942C206.417 244.665 206.504 238.137 206.504 238.137C206.504 238.137 206.697 245.015 207.554 245.75C208.377 246.467 213.329 247.412 213.329 247.412C213.329 247.412 208.604 247.587 207.729 248.392C207.117 248.935 206.504 255.655 206.504 255.655C206.504 255.655 206.014 249.687 205.104 248.83C204.194 247.972 200.047 247.43 200.047 247.43C200.047 247.43 204.054 246.957 205.087 245.977L205.069 245.942Z" fill="white"/>
<path style="mix-blend-mode:color-dodge" opacity="0.6" d="M206.68 261.08C214.518 261.08 220.872 254.726 220.872 246.887C220.872 239.049 214.518 232.695 206.68 232.695C198.842 232.695 192.487 239.049 192.487 246.887C192.487 254.726 198.842 261.08 206.68 261.08Z" fill="url(#paint66_radial_1226_12889)"/>
<path d="M274.737 97.1575C276.574 95.4075 276.679 86.5 276.679 86.5C276.679 86.5 276.942 95.88 278.097 96.8775C279.234 97.84 285.989 99.1525 285.989 99.1525C285.989 99.1525 279.532 99.3975 278.342 100.482C277.502 101.235 276.679 110.37 276.679 110.37C276.679 110.37 276.014 102.232 274.772 101.06C273.529 99.8875 267.877 99.1525 267.877 99.1525C267.877 99.1525 273.337 98.505 274.737 97.175V97.1575Z" fill="white"/>
<path style="mix-blend-mode:color-dodge" opacity="0.6" d="M276.924 117.773C287.604 117.773 296.262 109.115 296.262 98.4352C296.262 87.7553 287.604 79.0977 276.924 79.0977C266.245 79.0977 257.587 87.7553 257.587 98.4352C257.587 109.115 266.245 117.773 276.924 117.773Z" fill="url(#paint67_radial_1226_12889)"/>
<path d="M128.682 163.238C129.925 162.048 130.012 155.958 130.012 155.958C130.012 155.958 130.187 162.363 130.992 163.045C131.762 163.71 136.382 164.603 136.382 164.603C136.382 164.603 131.972 164.778 131.15 165.513C130.59 166.02 130.012 172.268 130.012 172.268C130.012 172.268 129.557 166.703 128.7 165.898C127.842 165.11 123.975 164.585 123.975 164.585C123.975 164.585 127.702 164.148 128.665 163.22L128.682 163.238Z" fill="white"/>
<path style="mix-blend-mode:color-dodge" opacity="0.6" d="M130.187 177.342C137.494 177.342 143.417 171.419 143.417 164.112C143.417 156.806 137.494 150.882 130.187 150.882C122.88 150.882 116.957 156.806 116.957 164.112C116.957 171.419 122.88 177.342 130.187 177.342Z" fill="url(#paint68_radial_1226_12889)"/>
</g>
<rect x="0.5" y="0.5" width="448" height="319" rx="7.5" stroke="#F4F5F6"/>
<defs>
<linearGradient id="paint0_linear_1226_12889" x1="-188.046" y1="860.515" x2="-69.417" y2="-201.851" gradientUnits="userSpaceOnUse">
<stop stop-color="#D8DCE7" stop-opacity="0.48"/>
<stop offset="0.489583" stop-color="#D8DCE7" stop-opacity="0.41"/>
<stop offset="0.635417" stop-color="#D8DCE7"/>
<stop offset="1" stop-color="#D8DCE7" stop-opacity="0"/>
</linearGradient>
<linearGradient id="paint1_linear_1226_12889" x1="-130.05" y1="842.444" x2="-11.4209" y2="-219.922" gradientUnits="userSpaceOnUse">
<stop stop-color="#D8DCE7" stop-opacity="0.48"/>
<stop offset="0.489583" stop-color="#D8DCE7" stop-opacity="0.41"/>
<stop offset="0.635417" stop-color="#D8DCE7"/>
<stop offset="1" stop-color="#D8DCE7" stop-opacity="0"/>
</linearGradient>
<linearGradient id="paint2_linear_1226_12889" x1="-71.5014" y1="826.253" x2="47.1279" y2="-236.113" gradientUnits="userSpaceOnUse">
<stop stop-color="#D8DCE7" stop-opacity="0.48"/>
<stop offset="0.489583" stop-color="#D8DCE7" stop-opacity="0.41"/>
<stop offset="0.635417" stop-color="#D8DCE7"/>
<stop offset="1" stop-color="#D8DCE7" stop-opacity="0"/>
</linearGradient>
<linearGradient id="paint3_linear_1226_12889" x1="-12.4077" y1="812.179" x2="106.222" y2="-250.187" gradientUnits="userSpaceOnUse">
<stop stop-color="#D8DCE7" stop-opacity="0.48"/>
<stop offset="0.489583" stop-color="#D8DCE7" stop-opacity="0.41"/>
<stop offset="0.635417" stop-color="#D8DCE7"/>
<stop offset="1" stop-color="#D8DCE7" stop-opacity="0"/>
</linearGradient>
<linearGradient id="paint4_linear_1226_12889" x1="47.2085" y1="800.517" x2="165.838" y2="-261.848" gradientUnits="userSpaceOnUse">
<stop stop-color="#D8DCE7" stop-opacity="0.48"/>
<stop offset="0.489583" stop-color="#D8DCE7" stop-opacity="0.41"/>
<stop offset="0.635417" stop-color="#D8DCE7"/>
<stop offset="1" stop-color="#D8DCE7" stop-opacity="0"/>
</linearGradient>
<linearGradient id="paint5_linear_1226_12889" x1="107.303" y1="791.645" x2="225.933" y2="-270.72" gradientUnits="userSpaceOnUse">
<stop stop-color="#D8DCE7" stop-opacity="0.48"/>
<stop offset="0.489583" stop-color="#D8DCE7" stop-opacity="0.41"/>
<stop offset="0.635417" stop-color="#D8DCE7"/>
<stop offset="1" stop-color="#D8DCE7" stop-opacity="0"/>
</linearGradient>
<linearGradient id="paint6_linear_1226_12889" x1="167.79" y1="786.034" x2="286.419" y2="-276.331" gradientUnits="userSpaceOnUse">
<stop stop-color="#D8DCE7" stop-opacity="0.48"/>
<stop offset="0.489583" stop-color="#D8DCE7" stop-opacity="0.41"/>
<stop offset="0.635417" stop-color="#D8DCE7"/>
<stop offset="1" stop-color="#D8DCE7" stop-opacity="0"/>
</linearGradient>
<linearGradient id="paint7_linear_1226_12889" x1="228.51" y1="784.279" x2="347.14" y2="-278.086" gradientUnits="userSpaceOnUse">
<stop stop-color="#D8DCE7" stop-opacity="0.48"/>
<stop offset="0.489583" stop-color="#D8DCE7" stop-opacity="0.41"/>
<stop offset="0.635417" stop-color="#D8DCE7"/>
<stop offset="1" stop-color="#D8DCE7" stop-opacity="0"/>
</linearGradient>
<linearGradient id="paint8_linear_1226_12889" x1="289.19" y1="787.117" x2="407.819" y2="-275.249" gradientUnits="userSpaceOnUse">
<stop stop-color="#D8DCE7" stop-opacity="0.48"/>
<stop offset="0.489583" stop-color="#D8DCE7" stop-opacity="0.41"/>
<stop offset="0.635417" stop-color="#D8DCE7"/>
<stop offset="1" stop-color="#D8DCE7" stop-opacity="0"/>
</linearGradient>
<linearGradient id="paint9_linear_1226_12889" x1="349.364" y1="795.438" x2="467.993" y2="-266.928" gradientUnits="userSpaceOnUse">
<stop stop-color="#D8DCE7" stop-opacity="0.48"/>
<stop offset="0.489583" stop-color="#D8DCE7" stop-opacity="0.41"/>
<stop offset="0.635417" stop-color="#D8DCE7"/>
<stop offset="1" stop-color="#D8DCE7" stop-opacity="0"/>
</linearGradient>
<linearGradient id="paint10_linear_1226_12889" x1="408.277" y1="810.249" x2="526.906" y2="-252.116" gradientUnits="userSpaceOnUse">
<stop stop-color="#D8DCE7" stop-opacity="0.48"/>
<stop offset="0.489583" stop-color="#D8DCE7" stop-opacity="0.41"/>
<stop offset="0.635417" stop-color="#D8DCE7"/>
<stop offset="1" stop-color="#D8DCE7" stop-opacity="0"/>
</linearGradient>
<linearGradient id="paint11_linear_1226_12889" x1="464.79" y1="832.531" x2="583.419" y2="-229.835" gradientUnits="userSpaceOnUse">
<stop stop-color="#D8DCE7" stop-opacity="0.48"/>
<stop offset="0.489583" stop-color="#D8DCE7" stop-opacity="0.41"/>
<stop offset="0.635417" stop-color="#D8DCE7"/>
<stop offset="1" stop-color="#D8DCE7" stop-opacity="0"/>
</linearGradient>
<linearGradient id="paint12_linear_1226_12889" x1="526.918" y1="868.328" x2="645.547" y2="-194.037" gradientUnits="userSpaceOnUse">
<stop stop-color="#D8DCE7" stop-opacity="0.48"/>
<stop offset="0.489583" stop-color="#D8DCE7" stop-opacity="0.41"/>
<stop offset="0.635417" stop-color="#D8DCE7"/>
<stop offset="1" stop-color="#D8DCE7" stop-opacity="0"/>
</linearGradient>
<radialGradient id="paint13_radial_1226_12889" cx="0" cy="0" r="1" gradientUnits="userSpaceOnUse" gradientTransform="translate(260.424 200.427) rotate(90) scale(283.613 305.328)">
<stop stop-color="#6658DB"/>
<stop offset="1" stop-color="#6658DB" stop-opacity="0"/>
</radialGradient>
<linearGradient id="paint14_linear_1226_12889" x1="114" y1="168.172" x2="158.31" y2="168.172" gradientUnits="userSpaceOnUse">
<stop stop-color="#819DF6"/>
<stop offset="1" stop-color="#819DF6"/>
</linearGradient>
<linearGradient id="paint15_linear_1226_12889" x1="140.758" y1="183.958" x2="140.6" y2="165.583" gradientUnits="userSpaceOnUse">
<stop stop-color="#819DF6"/>
<stop offset="1" stop-color="#819DF6"/>
</linearGradient>
<linearGradient id="paint16_linear_1226_12889" x1="143.26" y1="168.173" x2="157.977" y2="168.173" gradientUnits="userSpaceOnUse">
<stop stop-color="#819DF6"/>
<stop offset="1" stop-color="#819DF6"/>
</linearGradient>
<linearGradient id="paint17_linear_1226_12889" x1="311.978" y1="187.86" x2="311.978" y2="148.713" gradientUnits="userSpaceOnUse">
<stop offset="0.21" stop-color="#ADD1FB"/>
<stop offset="0.49" stop-color="#6D9CB9"/>
<stop offset="1" stop-color="#CFE3FD"/>
</linearGradient>
<linearGradient id="paint18_linear_1226_12889" x1="307.305" y1="183.958" x2="307.463" y2="165.583" gradientUnits="userSpaceOnUse">
<stop stop-color="#86BEFA"/>
<stop offset="1" stop-color="white"/>
</linearGradient>
<linearGradient id="paint19_linear_1226_12889" x1="304.803" y1="168.173" x2="290.085" y2="168.173" gradientUnits="userSpaceOnUse">
<stop stop-color="#86BEFA"/>
<stop offset="1" stop-color="#86BEFA"/>
</linearGradient>
<linearGradient id="paint20_linear_1226_12889" x1="334.132" y1="168.172" x2="289.822" y2="168.172" gradientUnits="userSpaceOnUse">
<stop stop-color="#819DF6"/>
<stop offset="1" stop-color="#819DF6"/>
</linearGradient>
<linearGradient id="paint21_linear_1226_12889" x1="307.357" y1="183.958" x2="307.532" y2="165.583" gradientUnits="userSpaceOnUse">
<stop stop-color="#819DF6"/>
<stop offset="1" stop-color="#819DF6"/>
</linearGradient>
<linearGradient id="paint22_linear_1226_12889" x1="304.872" y1="168.173" x2="290.154" y2="168.173" gradientUnits="userSpaceOnUse">
<stop stop-color="#819DF6"/>
<stop offset="1" stop-color="#819DF6"/>
</linearGradient>
<linearGradient id="paint23_linear_1226_12889" x1="90.2521" y1="189.838" x2="144.817" y2="189.838" gradientUnits="userSpaceOnUse">
<stop stop-color="#819DF6"/>
<stop offset="1" stop-color="#819DF6"/>
</linearGradient>
<linearGradient id="paint24_linear_1226_12889" x1="123.204" y1="209.263" x2="123.012" y2="186.653" gradientUnits="userSpaceOnUse">
<stop stop-color="#819DF6"/>
<stop offset="1" stop-color="#819DF6"/>
</linearGradient>
<linearGradient id="paint25_linear_1226_12889" x1="126.284" y1="189.838" x2="144.397" y2="189.838" gradientUnits="userSpaceOnUse">
<stop stop-color="#819DF6"/>
<stop offset="1" stop-color="#819DF6"/>
</linearGradient>
<linearGradient id="paint26_linear_1226_12889" x1="334.062" y1="214.058" x2="334.062" y2="165.863" gradientUnits="userSpaceOnUse">
<stop offset="0.21" stop-color="#ADD1FB"/>
<stop offset="0.49" stop-color="#6D9CB9"/>
<stop offset="1" stop-color="#CFE3FD"/>
</linearGradient>
<linearGradient id="paint27_linear_1226_12889" x1="328.305" y1="209.263" x2="328.497" y2="186.653" gradientUnits="userSpaceOnUse">
<stop stop-color="#86BEFA"/>
<stop offset="1" stop-color="white"/>
</linearGradient>
<linearGradient id="paint28_linear_1226_12889" x1="325.207" y1="189.838" x2="307.095" y2="189.838" gradientUnits="userSpaceOnUse">
<stop stop-color="#86BEFA"/>
<stop offset="1" stop-color="#86BEFA"/>
</linearGradient>
<linearGradient id="paint29_linear_1226_12889" x1="361.327" y1="189.838" x2="306.762" y2="189.838" gradientUnits="userSpaceOnUse">
<stop stop-color="#819DF6"/>
<stop offset="1" stop-color="#819DF6"/>
</linearGradient>
<linearGradient id="paint30_linear_1226_12889" x1="328.374" y1="209.263" x2="328.567" y2="186.653" gradientUnits="userSpaceOnUse">
<stop stop-color="#819DF6"/>
<stop offset="1" stop-color="#819DF6"/>
</linearGradient>
<linearGradient id="paint31_linear_1226_12889" x1="325.294" y1="189.838" x2="307.182" y2="189.838" gradientUnits="userSpaceOnUse">
<stop stop-color="#819DF6"/>
<stop offset="1" stop-color="#819DF6"/>
</linearGradient>
<radialGradient id="paint32_radial_1226_12889" cx="0" cy="0" r="1" gradientUnits="userSpaceOnUse" gradientTransform="translate(135.927 160.21) scale(17.3775 17.3775)">
<stop offset="0.1" stop-color="white" stop-opacity="0.7"/>
<stop offset="0.34" stop-color="white" stop-opacity="0.48"/>
<stop offset="0.65" stop-color="white" stop-opacity="0.22"/>
<stop offset="0.88" stop-color="white" stop-opacity="0.06"/>
<stop offset="1" stop-color="white" stop-opacity="0"/>
</radialGradient>
<radialGradient id="paint33_radial_1226_12889" cx="0" cy="0" r="1" gradientUnits="userSpaceOnUse" gradientTransform="translate(313.658 159.668) scale(0.875)">
<stop offset="0.1" stop-color="white" stop-opacity="0.7"/>
<stop offset="0.34" stop-color="white" stop-opacity="0.48"/>
<stop offset="0.65" stop-color="white" stop-opacity="0.22"/>
<stop offset="0.88" stop-color="white" stop-opacity="0.06"/>
<stop offset="1" stop-color="white" stop-opacity="0"/>
</radialGradient>
<linearGradient id="paint34_linear_1226_12889" x1="136.207" y1="160.228" x2="313.57" y2="160.228" gradientUnits="userSpaceOnUse">
<stop stop-color="#819DF6"/>
<stop offset="1" stop-color="#819DF6"/>
</linearGradient>
<linearGradient id="paint35_linear_1226_12889" x1="224.897" y1="78.4676" x2="224.897" y2="253.048" gradientUnits="userSpaceOnUse">
<stop offset="0.21" stop-color="#81A7FA"/>
<stop offset="0.49" stop-color="#718FEA"/>
<stop offset="1" stop-color="#C0DCFD"/>
</linearGradient>
<linearGradient id="paint36_linear_1226_12889" x1="224.705" y1="259.4" x2="224.705" y2="113.363" gradientUnits="userSpaceOnUse">
<stop stop-color="#819DF6"/>
<stop offset="1" stop-color="white"/>
</linearGradient>
<linearGradient id="paint37_linear_1226_12889" x1="152.604" y1="139.368" x2="297.172" y2="139.368" gradientUnits="userSpaceOnUse">
<stop stop-color="#819DF6"/>
<stop offset="1" stop-color="#819DF6"/>
</linearGradient>
<radialGradient id="paint38_radial_1226_12889" cx="0" cy="0" r="1" gradientUnits="userSpaceOnUse" gradientTransform="translate(225.755 163.08) rotate(90) scale(65.905)">
<stop offset="0.1" stop-color="#1B75B2"/>
<stop offset="0.34" stop-color="#12507A"/>
<stop offset="0.65" stop-color="#082538"/>
<stop offset="0.88" stop-color="#020A0F"/>
<stop offset="1"/>
</radialGradient>
<linearGradient id="paint39_linear_1226_12889" x1="226.175" y1="214.39" x2="226.175" y2="90.5423" gradientUnits="userSpaceOnUse">
<stop stop-color="#566ED3"/>
<stop offset="0.39" stop-color="#81A7FA"/>
<stop offset="1" stop-color="#C0DCFD"/>
</linearGradient>
<linearGradient id="paint40_linear_1226_12889" x1="174.077" y1="167.56" x2="226.245" y2="167.56" gradientUnits="userSpaceOnUse">
<stop stop-color="#819DF6"/>
<stop offset="1" stop-color="white"/>
</linearGradient>
<linearGradient id="paint41_linear_1226_12889" x1="226.244" y1="167.823" x2="278.272" y2="167.823" gradientUnits="userSpaceOnUse">
<stop stop-color="white"/>
<stop offset="0.54" stop-color="#819DF6"/>
<stop offset="1" stop-color="#84AEF7"/>
</linearGradient>
<linearGradient id="paint42_linear_1226_12889" x1="226.244" y1="178.375" x2="262.644" y2="178.375" gradientUnits="userSpaceOnUse">
<stop stop-color="white"/>
<stop offset="1" stop-color="#819DF6"/>
</linearGradient>
<linearGradient id="paint43_linear_1226_12889" x1="188.427" y1="178.428" x2="226.244" y2="178.428" gradientUnits="userSpaceOnUse">
<stop stop-color="#819DF6"/>
<stop offset="1" stop-color="white"/>
</linearGradient>
<linearGradient id="paint44_linear_1226_12889" x1="210.547" y1="186.057" x2="226.244" y2="186.057" gradientUnits="userSpaceOnUse">
<stop stop-color="#819DF6"/>
<stop offset="1" stop-color="white"/>
</linearGradient>
<linearGradient id="paint45_linear_1226_12889" x1="242.869" y1="128.482" x2="247.734" y2="173.09" gradientUnits="userSpaceOnUse">
<stop stop-color="#819DF6"/>
<stop offset="1"/>
</linearGradient>
<linearGradient id="paint46_linear_1226_12889" x1="226.244" y1="141.765" x2="263.029" y2="141.765" gradientUnits="userSpaceOnUse">
<stop stop-color="#819DF6"/>
<stop offset="1"/>
</linearGradient>
<linearGradient id="paint47_linear_1226_12889" x1="248.364" y1="124.248" x2="254.874" y2="183.993" gradientUnits="userSpaceOnUse">
<stop stop-color="#819DF6"/>
<stop offset="1"/>
</linearGradient>
<linearGradient id="paint48_linear_1226_12889" x1="196.145" y1="123.022" x2="202.76" y2="183.66" gradientUnits="userSpaceOnUse">
<stop offset="0.42" stop-color="#819DF6"/>
<stop offset="1"/>
</linearGradient>
<linearGradient id="paint49_linear_1226_12889" x1="252.337" y1="178.602" x2="278.272" y2="178.602" gradientUnits="userSpaceOnUse">
<stop stop-color="#819DF6"/>
<stop offset="1" stop-color="#819DF6"/>
</linearGradient>
<linearGradient id="paint50_linear_1226_12889" x1="188.427" y1="199.025" x2="262.644" y2="199.025" gradientUnits="userSpaceOnUse">
<stop stop-color="#819DF6"/>
<stop offset="1" stop-color="#819DF6"/>
</linearGradient>
<linearGradient id="paint51_linear_1226_12889" x1="188.427" y1="141.835" x2="226.244" y2="141.835" gradientUnits="userSpaceOnUse">
<stop/>
<stop offset="1" stop-color="#819DF6"/>
</linearGradient>
<linearGradient id="paint52_linear_1226_12889" x1="225.912" y1="133.96" x2="240.91" y2="133.96" gradientUnits="userSpaceOnUse">
<stop stop-color="#819DF6"/>
<stop offset="1"/>
</linearGradient>
<linearGradient id="paint53_linear_1226_12889" x1="211.177" y1="133.96" x2="92.0017" y2="133.96" gradientUnits="userSpaceOnUse">
<stop/>
<stop offset="1" stop-color="#819DF6"/>
</linearGradient>
<linearGradient id="paint54_linear_1226_12889" x1="220.434" y1="83.7521" x2="233.121" y2="200.005" gradientUnits="userSpaceOnUse">
<stop stop-color="#566ED3"/>
<stop offset="0.39" stop-color="#81A7FA"/>
<stop offset="1" stop-color="#C0DCFD"/>
</linearGradient>
<linearGradient id="paint55_linear_1226_12889" x1="220.609" y1="235.635" x2="233.279" y2="119.382" gradientUnits="userSpaceOnUse">
<stop stop-color="#819DF6"/>
<stop offset="1" stop-color="white"/>
</linearGradient>
<linearGradient id="paint56_linear_1226_12889" x1="150.539" y1="154.277" x2="266.407" y2="166.912" gradientUnits="userSpaceOnUse">
<stop stop-color="#566ED3"/>
<stop offset="0.39" stop-color="#81A7FA"/>
<stop offset="1" stop-color="#C0DCFD"/>
</linearGradient>
<linearGradient id="paint57_linear_1226_12889" x1="300.987" y1="155.222" x2="186.764" y2="167.682" gradientUnits="userSpaceOnUse">
<stop stop-color="#566ED3"/>
<stop offset="0.39" stop-color="#81A7FA"/>
<stop offset="1" stop-color="#C0DCFD"/>
</linearGradient>
<linearGradient id="paint58_linear_1226_12889" x1="206.207" y1="128.482" x2="211.737" y2="179.18" gradientUnits="userSpaceOnUse">
<stop stop-color="#819DF6"/>
<stop offset="1"/>
</linearGradient>
<linearGradient id="paint59_linear_1226_12889" x1="276.422" y1="102.367" x2="203.19" y2="193.541" gradientUnits="userSpaceOnUse">
<stop stop-color="white"/>
<stop offset="0.11" stop-color="#EEF3FE"/>
<stop offset="0.33" stop-color="#C4D6FC"/>
<stop offset="0.63" stop-color="#81A7FA"/>
<stop offset="0.66" stop-color="#7293EC"/>
<stop offset="0.7" stop-color="#6582E1"/>
<stop offset="0.75" stop-color="#5C76D8"/>
<stop offset="0.81" stop-color="#576FD4"/>
<stop offset="1" stop-color="#566ED3"/>
</linearGradient>
<linearGradient id="paint60_linear_1226_12889" x1="176.375" y1="102.119" x2="249.606" y2="193.293" gradientUnits="userSpaceOnUse">
<stop stop-color="white"/>
<stop offset="0.11" stop-color="#EEF3FE"/>
<stop offset="0.33" stop-color="#C4D6FC"/>
<stop offset="0.63" stop-color="#81A7FA"/>
<stop offset="0.66" stop-color="#7293EC"/>
<stop offset="0.7" stop-color="#6582E1"/>
<stop offset="0.75" stop-color="#5C76D8"/>
<stop offset="0.81" stop-color="#576FD4"/>
<stop offset="1" stop-color="#566ED3"/>
</linearGradient>
<linearGradient id="paint61_linear_1226_12889" x1="175.346" y1="216.327" x2="250.752" y2="126.943" gradientUnits="userSpaceOnUse">
<stop stop-color="#819DF6"/>
<stop offset="1" stop-color="white"/>
</linearGradient>
<linearGradient id="paint62_linear_1226_12889" x1="275.384" y1="215.246" x2="201.902" y2="128.155" gradientUnits="userSpaceOnUse">
<stop stop-color="#819DF6"/>
<stop offset="1" stop-color="white"/>
</linearGradient>
<radialGradient id="paint63_radial_1226_12889" cx="0" cy="0" r="1" gradientUnits="userSpaceOnUse" gradientTransform="translate(336.512 182.75) scale(22.855)">
<stop offset="0.1" stop-color="white" stop-opacity="0.7"/>
<stop offset="0.34" stop-color="white" stop-opacity="0.48"/>
<stop offset="0.65" stop-color="white" stop-opacity="0.22"/>
<stop offset="0.88" stop-color="white" stop-opacity="0.06"/>
<stop offset="1" stop-color="white" stop-opacity="0"/>
</radialGradient>
<radialGradient id="paint64_radial_1226_12889" cx="0" cy="0" r="1" gradientUnits="userSpaceOnUse" gradientTransform="translate(115.522 182.75) scale(22.855 22.855)">
<stop offset="0.1" stop-color="white" stop-opacity="0.7"/>
<stop offset="0.34" stop-color="white" stop-opacity="0.48"/>
<stop offset="0.65" stop-color="white" stop-opacity="0.22"/>
<stop offset="0.88" stop-color="white" stop-opacity="0.06"/>
<stop offset="1" stop-color="white" stop-opacity="0"/>
</radialGradient>
<radialGradient id="paint65_radial_1226_12889" cx="0" cy="0" r="1" gradientUnits="userSpaceOnUse" gradientTransform="translate(346.889 177.045) scale(12.075)">
<stop stop-color="white" stop-opacity="0.5"/>
<stop offset="0.16" stop-color="white" stop-opacity="0.45"/>
<stop offset="0.46" stop-color="white" stop-opacity="0.31"/>
<stop offset="0.86" stop-color="white" stop-opacity="0.08"/>
<stop offset="1" stop-color="white" stop-opacity="0"/>
</radialGradient>
<radialGradient id="paint66_radial_1226_12889" cx="0" cy="0" r="1" gradientUnits="userSpaceOnUse" gradientTransform="translate(206.68 246.887) scale(14.1925 14.1925)">
<stop stop-color="white" stop-opacity="0.5"/>
<stop offset="0.16" stop-color="white" stop-opacity="0.45"/>
<stop offset="0.46" stop-color="white" stop-opacity="0.31"/>
<stop offset="0.86" stop-color="white" stop-opacity="0.08"/>
<stop offset="1" stop-color="white" stop-opacity="0"/>
</radialGradient>
<radialGradient id="paint67_radial_1226_12889" cx="0" cy="0" r="1" gradientUnits="userSpaceOnUse" gradientTransform="translate(276.924 98.4352) scale(19.3375 19.3375)">
<stop stop-color="white" stop-opacity="0.5"/>
<stop offset="0.16" stop-color="white" stop-opacity="0.45"/>
<stop offset="0.46" stop-color="white" stop-opacity="0.31"/>
<stop offset="0.86" stop-color="white" stop-opacity="0.08"/>
<stop offset="1" stop-color="white" stop-opacity="0"/>
</radialGradient>
<radialGradient id="paint68_radial_1226_12889" cx="0" cy="0" r="1" gradientUnits="userSpaceOnUse" gradientTransform="translate(130.187 164.112) scale(13.23 13.23)">
<stop stop-color="white" stop-opacity="0.5"/>
<stop offset="0.16" stop-color="white" stop-opacity="0.45"/>
<stop offset="0.46" stop-color="white" stop-opacity="0.31"/>
<stop offset="0.86" stop-color="white" stop-opacity="0.08"/>
<stop offset="1" stop-color="white" stop-opacity="0"/>
</radialGradient>
<clipPath id="clip0_1226_12889">
<rect width="449" height="320" rx="8" fill="white"/>
</clipPath>
<clipPath id="clip1_1226_12889">
<path d="M-627 -2853C-627 -2859.63 -621.627 -2865 -615 -2865H873C879.627 -2865 885 -2859.63 885 -2853V622H-627V-2853Z" fill="white"/>
</clipPath>
</defs>
</svg>
