<svg xmlns="http://www.w3.org/2000/svg" width="449" height="320" fill="none"><g clip-path="url(#a)"><rect width="449" height="320" fill="#fff" rx="8"/><rect width="449" height="320" fill="#000" fill-opacity=".03" rx="8"/><g clip-path="url(#b)"><path fill="#FEFEFE" d="M-627-2853c0-6.63 5.373-12 12-12H873c6.627 0 12 5.37 12 12V622H-627v-3475Z"/><g stroke-opacity=".5" stroke-width="2" opacity=".4"><path stroke="url(#c)" d="M-217.345 857.243c39.318-8.662 120.296-56.47 129.658-178.407 11.703-152.421-92.28-260.233-104.933-406.672-9.339-108.083 23.23-372.541 164.57-469.396"/><path stroke="url(#d)" d="M-159.349 839.173c39.319-8.662 120.296-56.47 129.658-178.407 11.703-152.421-92.279-260.233-104.932-406.673-9.339-108.083 23.229-372.54 164.568-469.395"/><path stroke="url(#e)" d="M-100.8 822.982c39.318-8.662 120.296-56.47 129.658-178.407 11.703-152.421-92.28-260.233-104.933-406.673-9.339-108.083 23.23-372.54 164.57-469.395"/><path stroke="url(#f)" d="M-41.707 808.907c39.32-8.662 120.297-56.47 129.659-178.407C99.654 478.079-4.328 370.267-16.981 223.828-26.32 115.745 6.25-148.713 147.588-245.568"/><path stroke="url(#g)" d="M17.91 797.246c39.318-8.662 120.296-56.469 129.658-178.406 11.703-152.422-92.28-260.234-104.933-406.673-9.339-108.083 23.23-372.541 164.569-469.395"/><path stroke="url(#h)" d="M78.004 788.374c39.319-8.662 120.297-56.47 129.659-178.407 11.702-152.421-92.28-260.233-104.933-406.672-9.339-108.084 23.23-372.541 164.569-469.396"/><path stroke="url(#i)" d="M138.491 782.763c39.318-8.662 120.296-56.47 129.658-178.407 11.703-152.421-92.28-260.233-104.933-406.672-9.339-108.083 23.23-372.541 164.569-469.396"/><path stroke="url(#j)" d="M199.211 781.008c39.319-8.662 120.297-56.47 129.659-178.407 11.702-152.421-92.28-260.233-104.933-406.673-9.339-108.083 23.23-372.541 164.569-469.395"/><path stroke="url(#k)" d="M259.891 783.845c39.319-8.662 120.297-56.47 129.659-178.407 11.702-152.421-92.28-260.233-104.933-406.672-9.339-108.083 23.23-372.541 164.569-469.396"/><path stroke="url(#l)" d="M320.065 792.166c39.319-8.662 120.296-56.47 129.658-178.406 11.703-152.422-92.279-260.234-104.932-406.673-9.339-108.083 23.229-372.541 164.568-469.395"/><path stroke="url(#m)" d="M378.978 806.977c39.319-8.662 120.296-56.469 129.658-178.406 11.703-152.422-92.279-260.234-104.932-406.673-9.339-108.083 23.23-372.541 164.569-469.395"/><path stroke="url(#n)" d="M435.491 829.259c39.318-8.662 120.296-56.47 129.658-178.407 11.703-152.421-92.28-260.233-104.933-406.672-9.339-108.083 23.23-372.541 164.569-469.396"/><path stroke="url(#o)" d="M497.619 865.057c39.318-8.662 120.296-56.47 129.658-178.407 11.703-152.421-92.28-260.233-104.933-406.672-9.339-108.083 23.23-372.541 164.569-469.396"/></g><circle cx="260.424" cy="200.427" r="299.083" fill="url(#p)" fill-opacity=".22" transform="rotate(-173.628 260.424 200.427)"/></g><path fill="#2FAD98" d="M394.053 148.667h-3.646v14.945h3.646zM401.344 163.612h-18.228v255.061h18.228zM360.197 92.032h-3.646v14.945h3.646zM367.488 106.977H349.26v255.061h18.228zM326.342 118.855h-3.646v14.051h3.646zM333.633 132.906h-18.228v32.013h18.228zM326.342 164.919h-3.646v13.567h3.646zM292.482 142.143h-3.646v14.051h3.646z"/><path fill="#2FAD98" d="M299.773 156.193h-18.228v32.013h18.228z"/><path fill="#2FAD98" d="M292.482 188.206h-3.646v13.567h3.646z"/><path fill="#DA2947" d="M258.627 146.638h-3.646v34.702h3.646zM265.918 181.34H247.69v274.664h18.228z"/><path fill="#2FAD98" d="M157.022 42h-3.646v14.945h3.646zM164.313 56.945h-18.228v326.968h18.228zM123.163 59.958h-3.646v14.945h3.646zM130.454 74.903h-18.228V401.87h18.228zM224.733 221.125h-3.646v14.051h3.646zM232.024 235.176h-18.228v88.135h18.228z"/><path fill="#DA2947" d="M190.878 242.353h-3.646v12.166h3.646z"/><path fill="#DA2947" d="M198.169 254.518h-18.228v106.168h18.228zM89.307 65.186H85.66V77.35h3.646zM96.598 77.351H78.37V334.35h18.228zM55.447 200.082h-3.646v12.166h3.646zM62.738 212.248H44.51v256.998h18.228z"/></g><rect width="448" height="319" x=".5" y=".5" stroke="#F4F5F6" rx="7.5"/><defs><linearGradient id="c" x1="-188.046" x2="-69.417" y1="860.515" y2="-201.851" gradientUnits="userSpaceOnUse"><stop stop-color="#D8DCE7" stop-opacity=".48"/><stop offset=".49" stop-color="#D8DCE7" stop-opacity=".41"/><stop offset=".635" stop-color="#D8DCE7"/><stop offset="1" stop-color="#D8DCE7" stop-opacity="0"/></linearGradient><linearGradient id="d" x1="-130.05" x2="-11.421" y1="842.444" y2="-219.921" gradientUnits="userSpaceOnUse"><stop stop-color="#D8DCE7" stop-opacity=".48"/><stop offset=".49" stop-color="#D8DCE7" stop-opacity=".41"/><stop offset=".635" stop-color="#D8DCE7"/><stop offset="1" stop-color="#D8DCE7" stop-opacity="0"/></linearGradient><linearGradient id="e" x1="-71.501" x2="47.128" y1="826.253" y2="-236.112" gradientUnits="userSpaceOnUse"><stop stop-color="#D8DCE7" stop-opacity=".48"/><stop offset=".49" stop-color="#D8DCE7" stop-opacity=".41"/><stop offset=".635" stop-color="#D8DCE7"/><stop offset="1" stop-color="#D8DCE7" stop-opacity="0"/></linearGradient><linearGradient id="f" x1="-12.408" x2="106.222" y1="812.179" y2="-250.187" gradientUnits="userSpaceOnUse"><stop stop-color="#D8DCE7" stop-opacity=".48"/><stop offset=".49" stop-color="#D8DCE7" stop-opacity=".41"/><stop offset=".635" stop-color="#D8DCE7"/><stop offset="1" stop-color="#D8DCE7" stop-opacity="0"/></linearGradient><linearGradient id="g" x1="47.209" x2="165.838" y1="800.518" y2="-261.847" gradientUnits="userSpaceOnUse"><stop stop-color="#D8DCE7" stop-opacity=".48"/><stop offset=".49" stop-color="#D8DCE7" stop-opacity=".41"/><stop offset=".635" stop-color="#D8DCE7"/><stop offset="1" stop-color="#D8DCE7" stop-opacity="0"/></linearGradient><linearGradient id="h" x1="107.303" x2="225.933" y1="791.645" y2="-270.72" gradientUnits="userSpaceOnUse"><stop stop-color="#D8DCE7" stop-opacity=".48"/><stop offset=".49" stop-color="#D8DCE7" stop-opacity=".41"/><stop offset=".635" stop-color="#D8DCE7"/><stop offset="1" stop-color="#D8DCE7" stop-opacity="0"/></linearGradient><linearGradient id="i" x1="167.79" x2="286.419" y1="786.035" y2="-276.331" gradientUnits="userSpaceOnUse"><stop stop-color="#D8DCE7" stop-opacity=".48"/><stop offset=".49" stop-color="#D8DCE7" stop-opacity=".41"/><stop offset=".635" stop-color="#D8DCE7"/><stop offset="1" stop-color="#D8DCE7" stop-opacity="0"/></linearGradient><linearGradient id="j" x1="228.51" x2="347.14" y1="784.279" y2="-278.086" gradientUnits="userSpaceOnUse"><stop stop-color="#D8DCE7" stop-opacity=".48"/><stop offset=".49" stop-color="#D8DCE7" stop-opacity=".41"/><stop offset=".635" stop-color="#D8DCE7"/><stop offset="1" stop-color="#D8DCE7" stop-opacity="0"/></linearGradient><linearGradient id="k" x1="289.19" x2="407.819" y1="787.117" y2="-275.249" gradientUnits="userSpaceOnUse"><stop stop-color="#D8DCE7" stop-opacity=".48"/><stop offset=".49" stop-color="#D8DCE7" stop-opacity=".41"/><stop offset=".635" stop-color="#D8DCE7"/><stop offset="1" stop-color="#D8DCE7" stop-opacity="0"/></linearGradient><linearGradient id="l" x1="349.364" x2="467.993" y1="795.438" y2="-266.928" gradientUnits="userSpaceOnUse"><stop stop-color="#D8DCE7" stop-opacity=".48"/><stop offset=".49" stop-color="#D8DCE7" stop-opacity=".41"/><stop offset=".635" stop-color="#D8DCE7"/><stop offset="1" stop-color="#D8DCE7" stop-opacity="0"/></linearGradient><linearGradient id="m" x1="408.277" x2="526.906" y1="810.249" y2="-252.116" gradientUnits="userSpaceOnUse"><stop stop-color="#D8DCE7" stop-opacity=".48"/><stop offset=".49" stop-color="#D8DCE7" stop-opacity=".41"/><stop offset=".635" stop-color="#D8DCE7"/><stop offset="1" stop-color="#D8DCE7" stop-opacity="0"/></linearGradient><linearGradient id="n" x1="464.79" x2="583.419" y1="832.531" y2="-229.835" gradientUnits="userSpaceOnUse"><stop stop-color="#D8DCE7" stop-opacity=".48"/><stop offset=".49" stop-color="#D8DCE7" stop-opacity=".41"/><stop offset=".635" stop-color="#D8DCE7"/><stop offset="1" stop-color="#D8DCE7" stop-opacity="0"/></linearGradient><linearGradient id="o" x1="526.918" x2="645.547" y1="868.329" y2="-194.037" gradientUnits="userSpaceOnUse"><stop stop-color="#D8DCE7" stop-opacity=".48"/><stop offset=".49" stop-color="#D8DCE7" stop-opacity=".41"/><stop offset=".635" stop-color="#D8DCE7"/><stop offset="1" stop-color="#D8DCE7" stop-opacity="0"/></linearGradient><clipPath id="a"><rect width="449" height="320" fill="#fff" rx="8"/></clipPath><clipPath id="b"><path fill="#fff" d="M-627-2853c0-6.63 5.373-12 12-12H873c6.627 0 12 5.37 12 12V622H-627v-3475Z"/></clipPath><radialGradient id="p" cx="0" cy="0" r="1" gradientTransform="matrix(0 283.613 -305.328 0 260.424 200.427)" gradientUnits="userSpaceOnUse"><stop stop-color="#6658DB"/><stop offset="1" stop-color="#6658DB" stop-opacity="0"/></radialGradient></defs></svg>